<svg width="557" height="223" viewBox="0 0 557 223" fill="none" xmlns="http://www.w3.org/2000/svg">
<rect width="557" height="223" rx="30" fill="white"/>
<path d="M81.0002 71.9987C88.3668 71.9987 94.3335 66.032 94.3335 58.6654C94.3335 51.2987 88.3668 45.332 81.0002 45.332C73.6335 45.332 67.6668 51.2987 67.6668 58.6654C67.6668 66.032 73.6335 71.9987 81.0002 71.9987ZM81.0002 78.6654C72.1002 78.6654 54.3335 83.132 54.3335 91.9987V98.6654H107.667V91.9987C107.667 83.132 89.9002 78.6654 81.0002 78.6654Z" fill="black"/>
<path d="M56.1006 134.342L56.7334 134.79C56.2061 135.481 55.9336 136.226 55.916 137.022V138.147H54.8701V137.163C54.8701 136.624 54.9785 136.105 55.1953 135.607C55.418 135.109 55.7197 134.688 56.1006 134.342ZM58.3066 134.342L58.9395 134.79C58.4121 135.481 58.1396 136.226 58.1221 137.022V138.147H57.0762V137.163C57.0762 136.624 57.1846 136.105 57.4014 135.607C57.624 135.109 57.9258 134.688 58.3066 134.342ZM62.3145 148H61.2334V135.203H62.3145V148ZM67.1836 136.056V138.49H69.1523V139.352H67.1836V145.688C67.1836 146.216 67.2773 146.608 67.4648 146.866C67.6582 147.124 67.9775 147.253 68.4229 147.253C68.5986 147.253 68.8828 147.224 69.2754 147.165L69.3193 148.026C69.0439 148.126 68.6689 148.176 68.1943 148.176C67.4736 148.176 66.9492 147.968 66.6211 147.552C66.293 147.13 66.1289 146.512 66.1289 145.697V139.352H64.3799V138.49H66.1289V136.056H67.1836ZM77.9854 145.812L78.1436 146.629L78.3545 145.768L80.6396 138.49H81.5361L83.7949 145.706L84.041 146.708L84.2432 145.785L86.1943 138.49H87.2842L84.5156 148H83.6191L81.1758 140.459L81.0615 139.94L80.9473 140.468L78.5479 148H77.6514L74.8916 138.49H75.9727L77.9854 145.812ZM88.6992 143.104C88.6992 142.19 88.875 141.367 89.2266 140.635C89.584 139.902 90.085 139.334 90.7295 138.93C91.3799 138.52 92.1152 138.314 92.9355 138.314C94.2012 138.314 95.2266 138.76 96.0117 139.65C96.7969 140.535 97.1895 141.71 97.1895 143.175V143.395C97.1895 144.314 97.0107 145.144 96.6533 145.882C96.3018 146.614 95.8037 147.18 95.1592 147.578C94.5146 147.977 93.7793 148.176 92.9531 148.176C91.6934 148.176 90.668 147.733 89.877 146.849C89.0918 145.958 88.6992 144.78 88.6992 143.315V143.104ZM89.7539 143.395C89.7539 144.531 90.0469 145.466 90.6328 146.198C91.2246 146.925 91.998 147.288 92.9531 147.288C93.9023 147.288 94.6699 146.925 95.2559 146.198C95.8477 145.466 96.1436 144.502 96.1436 143.307V143.104C96.1436 142.378 96.0088 141.713 95.7393 141.109C95.4697 140.506 95.0918 140.04 94.6055 139.712C94.1191 139.378 93.5625 139.211 92.9355 139.211C91.998 139.211 91.2334 139.58 90.6416 140.318C90.0498 141.051 89.7539 142.012 89.7539 143.201V143.395ZM105.486 146.796C104.854 147.716 103.843 148.176 102.454 148.176C101.44 148.176 100.67 147.883 100.143 147.297C99.6152 146.705 99.3457 145.832 99.334 144.678V138.49H100.38V144.546C100.38 146.356 101.112 147.262 102.577 147.262C104.101 147.262 105.064 146.632 105.469 145.372V138.49H106.523V148H105.504L105.486 146.796ZM110.443 148H109.389V134.5H110.443V148ZM112.887 143.157C112.887 141.681 113.215 140.506 113.871 139.633C114.533 138.754 115.43 138.314 116.561 138.314C117.844 138.314 118.822 138.821 119.496 139.835V134.5H120.542V148H119.558L119.514 146.734C118.84 147.695 117.85 148.176 116.543 148.176C115.447 148.176 114.562 147.736 113.889 146.857C113.221 145.973 112.887 144.78 112.887 143.28V143.157ZM113.95 143.342C113.95 144.555 114.193 145.513 114.68 146.216C115.166 146.913 115.852 147.262 116.736 147.262C118.031 147.262 118.951 146.69 119.496 145.548V141.083C118.951 139.847 118.037 139.229 116.754 139.229C115.869 139.229 115.181 139.577 114.688 140.274C114.196 140.966 113.95 141.988 113.95 143.342ZM135.343 143.342C135.343 144.824 135.015 146.002 134.358 146.875C133.702 147.742 132.82 148.176 131.713 148.176C130.389 148.176 129.387 147.684 128.707 146.699L128.663 148H127.679V134.5H128.725V139.87C129.393 138.833 130.383 138.314 131.695 138.314C132.82 138.314 133.708 138.745 134.358 139.606C135.015 140.462 135.343 141.654 135.343 143.184V143.342ZM134.288 143.157C134.288 141.903 134.045 140.937 133.559 140.257C133.072 139.571 132.387 139.229 131.502 139.229C130.828 139.229 130.257 139.396 129.788 139.729C129.319 140.058 128.965 140.541 128.725 141.18V145.469C129.252 146.664 130.184 147.262 131.52 147.262C132.387 147.262 133.063 146.919 133.55 146.233C134.042 145.548 134.288 144.522 134.288 143.157ZM141.354 148.176C140.546 148.176 139.813 147.977 139.157 147.578C138.507 147.18 138 146.626 137.637 145.917C137.273 145.202 137.092 144.402 137.092 143.518V143.14C137.092 142.226 137.268 141.402 137.619 140.67C137.977 139.938 138.472 139.363 139.104 138.947C139.737 138.525 140.423 138.314 141.161 138.314C142.315 138.314 143.229 138.71 143.903 139.501C144.583 140.286 144.923 141.361 144.923 142.727V143.315H138.138V143.518C138.138 144.596 138.445 145.495 139.061 146.216C139.682 146.931 140.461 147.288 141.398 147.288C141.961 147.288 142.456 147.186 142.884 146.98C143.317 146.775 143.71 146.447 144.062 145.996L144.721 146.497C143.947 147.616 142.825 148.176 141.354 148.176ZM141.161 139.211C140.37 139.211 139.702 139.501 139.157 140.081C138.618 140.661 138.29 141.44 138.173 142.419H143.877V142.305C143.848 141.391 143.587 140.646 143.095 140.072C142.603 139.498 141.958 139.211 141.161 139.211ZM150.926 143.157C150.926 141.669 151.254 140.491 151.91 139.624C152.572 138.751 153.469 138.314 154.6 138.314C155.895 138.314 156.879 138.83 157.553 139.861L157.605 138.49H158.59V147.807C158.59 149.031 158.247 150.001 157.562 150.716C156.876 151.431 155.947 151.788 154.775 151.788C154.113 151.788 153.48 151.639 152.877 151.34C152.279 151.047 151.808 150.654 151.462 150.162L152.051 149.529C152.795 150.443 153.68 150.9 154.705 150.9C155.584 150.9 156.27 150.64 156.762 150.118C157.254 149.603 157.509 148.885 157.526 147.965V146.77C156.853 147.707 155.871 148.176 154.582 148.176C153.48 148.176 152.596 147.736 151.928 146.857C151.26 145.979 150.926 144.792 150.926 143.298V143.157ZM151.989 143.342C151.989 144.555 152.232 145.513 152.719 146.216C153.205 146.913 153.891 147.262 154.775 147.262C156.07 147.262 156.987 146.682 157.526 145.521V141.101C157.28 140.491 156.926 140.028 156.463 139.712C156 139.39 155.443 139.229 154.793 139.229C153.908 139.229 153.22 139.577 152.728 140.274C152.235 140.966 151.989 141.988 151.989 143.342ZM165.727 139.387C165.504 139.346 165.267 139.325 165.015 139.325C164.358 139.325 163.802 139.51 163.345 139.879C162.894 140.242 162.571 140.772 162.378 141.47V148H161.332V138.49H162.36L162.378 140.002C162.935 138.877 163.828 138.314 165.059 138.314C165.352 138.314 165.583 138.353 165.753 138.429L165.727 139.387ZM170.903 148.176C170.095 148.176 169.362 147.977 168.706 147.578C168.056 147.18 167.549 146.626 167.186 145.917C166.822 145.202 166.641 144.402 166.641 143.518V143.14C166.641 142.226 166.816 141.402 167.168 140.67C167.525 139.938 168.021 139.363 168.653 138.947C169.286 138.525 169.972 138.314 170.71 138.314C171.864 138.314 172.778 138.71 173.452 139.501C174.132 140.286 174.472 141.361 174.472 142.727V143.315H167.687V143.518C167.687 144.596 167.994 145.495 168.609 146.216C169.23 146.931 170.01 147.288 170.947 147.288C171.51 147.288 172.005 147.186 172.433 146.98C172.866 146.775 173.259 146.447 173.61 145.996L174.27 146.497C173.496 147.616 172.374 148.176 170.903 148.176ZM170.71 139.211C169.919 139.211 169.251 139.501 168.706 140.081C168.167 140.661 167.839 141.44 167.722 142.419H173.426V142.305C173.396 141.391 173.136 140.646 172.644 140.072C172.151 139.498 171.507 139.211 170.71 139.211ZM182.522 148C182.417 147.701 182.35 147.259 182.32 146.673C181.951 147.153 181.479 147.525 180.905 147.789C180.337 148.047 179.733 148.176 179.095 148.176C178.181 148.176 177.439 147.921 176.871 147.411C176.309 146.901 176.027 146.257 176.027 145.478C176.027 144.552 176.411 143.819 177.179 143.28C177.952 142.741 179.027 142.472 180.404 142.472H182.312V141.391C182.312 140.711 182.101 140.178 181.679 139.791C181.263 139.398 180.653 139.202 179.851 139.202C179.118 139.202 178.512 139.39 178.031 139.765C177.551 140.14 177.311 140.591 177.311 141.118L176.256 141.109C176.256 140.354 176.607 139.7 177.311 139.149C178.014 138.593 178.878 138.314 179.903 138.314C180.964 138.314 181.799 138.581 182.408 139.114C183.023 139.642 183.34 140.38 183.357 141.329V145.829C183.357 146.749 183.454 147.438 183.647 147.895V148H182.522ZM179.218 147.244C179.921 147.244 180.548 147.074 181.099 146.734C181.655 146.395 182.06 145.94 182.312 145.372V143.28H180.431C179.382 143.292 178.562 143.485 177.97 143.86C177.378 144.229 177.082 144.739 177.082 145.39C177.082 145.923 177.278 146.365 177.671 146.717C178.069 147.068 178.585 147.244 179.218 147.244ZM187.805 136.056V138.49H189.773V139.352H187.805V145.688C187.805 146.216 187.898 146.608 188.086 146.866C188.279 147.124 188.599 147.253 189.044 147.253C189.22 147.253 189.504 147.224 189.896 147.165L189.94 148.026C189.665 148.126 189.29 148.176 188.815 148.176C188.095 148.176 187.57 147.968 187.242 147.552C186.914 147.13 186.75 146.512 186.75 145.697V139.352H185.001V138.49H186.75V136.056H187.805ZM197.508 148H196.453V138.49H197.508V148ZM196.269 135.739C196.269 135.54 196.333 135.373 196.462 135.238C196.591 135.098 196.767 135.027 196.989 135.027C197.212 135.027 197.388 135.098 197.517 135.238C197.651 135.373 197.719 135.54 197.719 135.739C197.719 135.938 197.651 136.105 197.517 136.24C197.388 136.375 197.212 136.442 196.989 136.442C196.767 136.442 196.591 136.375 196.462 136.24C196.333 136.105 196.269 135.938 196.269 135.739ZM201.129 148V139.352H199.556V138.49H201.129V137.339C201.129 136.366 201.375 135.619 201.867 135.098C202.365 134.576 203.057 134.315 203.941 134.315C204.34 134.315 204.712 134.365 205.058 134.465L204.979 135.344C204.686 135.273 204.366 135.238 204.021 135.238C203.44 135.238 202.989 135.42 202.667 135.783C202.345 136.141 202.184 136.65 202.184 137.312V138.49H204.451V139.352H202.184V148H201.129ZM212.273 148H211.192V135.203H212.273V148ZM223.4 147.288C224.133 147.288 224.745 147.083 225.237 146.673C225.735 146.257 226.005 145.721 226.046 145.064H227.057C227.027 145.645 226.846 146.175 226.512 146.655C226.178 147.13 225.732 147.502 225.176 147.771C224.625 148.041 224.033 148.176 223.4 148.176C222.152 148.176 221.162 147.742 220.43 146.875C219.703 146.008 219.34 144.842 219.34 143.377V143.061C219.34 142.123 219.504 141.294 219.832 140.573C220.16 139.853 220.629 139.296 221.238 138.903C221.854 138.511 222.571 138.314 223.392 138.314C224.435 138.314 225.293 138.625 225.967 139.246C226.646 139.867 227.01 140.685 227.057 141.698H226.046C225.999 140.954 225.729 140.354 225.237 139.896C224.751 139.439 224.136 139.211 223.392 139.211C222.442 139.211 221.704 139.554 221.177 140.239C220.655 140.925 220.395 141.886 220.395 143.122V143.43C220.395 144.643 220.655 145.589 221.177 146.269C221.704 146.948 222.445 147.288 223.4 147.288ZM228.586 143.104C228.586 142.19 228.762 141.367 229.113 140.635C229.471 139.902 229.972 139.334 230.616 138.93C231.267 138.52 232.002 138.314 232.822 138.314C234.088 138.314 235.113 138.76 235.898 139.65C236.684 140.535 237.076 141.71 237.076 143.175V143.395C237.076 144.314 236.897 145.144 236.54 145.882C236.188 146.614 235.69 147.18 235.046 147.578C234.401 147.977 233.666 148.176 232.84 148.176C231.58 148.176 230.555 147.733 229.764 146.849C228.979 145.958 228.586 144.78 228.586 143.315V143.104ZM229.641 143.395C229.641 144.531 229.934 145.466 230.52 146.198C231.111 146.925 231.885 147.288 232.84 147.288C233.789 147.288 234.557 146.925 235.143 146.198C235.734 145.466 236.03 144.502 236.03 143.307V143.104C236.03 142.378 235.896 141.713 235.626 141.109C235.356 140.506 234.979 140.04 234.492 139.712C234.006 139.378 233.449 139.211 232.822 139.211C231.885 139.211 231.12 139.58 230.528 140.318C229.937 141.051 229.641 142.012 229.641 143.201V143.395ZM245.373 146.796C244.74 147.716 243.729 148.176 242.341 148.176C241.327 148.176 240.557 147.883 240.029 147.297C239.502 146.705 239.232 145.832 239.221 144.678V138.49H240.267V144.546C240.267 146.356 240.999 147.262 242.464 147.262C243.987 147.262 244.951 146.632 245.355 145.372V138.49H246.41V148H245.391L245.373 146.796ZM250.33 148H249.275V134.5H250.33V148ZM252.773 143.157C252.773 141.681 253.102 140.506 253.758 139.633C254.42 138.754 255.316 138.314 256.447 138.314C257.73 138.314 258.709 138.821 259.383 139.835V134.5H260.429V148H259.444L259.4 146.734C258.727 147.695 257.736 148.176 256.43 148.176C255.334 148.176 254.449 147.736 253.775 146.857C253.107 145.973 252.773 144.78 252.773 143.28V143.157ZM253.837 143.342C253.837 144.555 254.08 145.513 254.566 146.216C255.053 146.913 255.738 147.262 256.623 147.262C257.918 147.262 258.838 146.69 259.383 145.548V141.083C258.838 139.847 257.924 139.229 256.641 139.229C255.756 139.229 255.067 139.577 254.575 140.274C254.083 140.966 253.837 141.988 253.837 143.342ZM269.851 145.812L270.009 146.629L270.22 145.768L272.505 138.49H273.401L275.66 145.706L275.906 146.708L276.108 145.785L278.06 138.49H279.149L276.381 148H275.484L273.041 140.459L272.927 139.94L272.812 140.468L270.413 148H269.517L266.757 138.49H267.838L269.851 145.812ZM280.564 143.104C280.564 142.19 280.74 141.367 281.092 140.635C281.449 139.902 281.95 139.334 282.595 138.93C283.245 138.52 283.98 138.314 284.801 138.314C286.066 138.314 287.092 138.76 287.877 139.65C288.662 140.535 289.055 141.71 289.055 143.175V143.395C289.055 144.314 288.876 145.144 288.519 145.882C288.167 146.614 287.669 147.18 287.024 147.578C286.38 147.977 285.645 148.176 284.818 148.176C283.559 148.176 282.533 147.733 281.742 146.849C280.957 145.958 280.564 144.78 280.564 143.315V143.104ZM281.619 143.395C281.619 144.531 281.912 145.466 282.498 146.198C283.09 146.925 283.863 147.288 284.818 147.288C285.768 147.288 286.535 146.925 287.121 146.198C287.713 145.466 288.009 144.502 288.009 143.307V143.104C288.009 142.378 287.874 141.713 287.604 141.109C287.335 140.506 286.957 140.04 286.471 139.712C285.984 139.378 285.428 139.211 284.801 139.211C283.863 139.211 283.099 139.58 282.507 140.318C281.915 141.051 281.619 142.012 281.619 143.201V143.395ZM295.629 139.387C295.406 139.346 295.169 139.325 294.917 139.325C294.261 139.325 293.704 139.51 293.247 139.879C292.796 140.242 292.474 140.772 292.28 141.47V148H291.234V138.49H292.263L292.28 140.002C292.837 138.877 293.73 138.314 294.961 138.314C295.254 138.314 295.485 138.353 295.655 138.429L295.629 139.387ZM299.558 143.21L298.354 144.37V148H297.299V134.5H298.354V143.14L299.347 142.067L302.985 138.49H304.312L300.278 142.498L304.664 148H303.407L299.558 143.21ZM312.776 145.812L312.935 146.629L313.146 145.768L315.431 138.49H316.327L318.586 145.706L318.832 146.708L319.034 145.785L320.985 138.49H322.075L319.307 148H318.41L315.967 140.459L315.853 139.94L315.738 140.468L313.339 148H312.442L309.683 138.49H310.764L312.776 145.812ZM325.248 148H324.193V138.49H325.248V148ZM324.009 135.739C324.009 135.54 324.073 135.373 324.202 135.238C324.331 135.098 324.507 135.027 324.729 135.027C324.952 135.027 325.128 135.098 325.257 135.238C325.392 135.373 325.459 135.54 325.459 135.739C325.459 135.938 325.392 136.105 325.257 136.24C325.128 136.375 324.952 136.442 324.729 136.442C324.507 136.442 324.331 136.375 324.202 136.24C324.073 136.105 324.009 135.938 324.009 135.739ZM329.748 136.056V138.49H331.717V139.352H329.748V145.688C329.748 146.216 329.842 146.608 330.029 146.866C330.223 147.124 330.542 147.253 330.987 147.253C331.163 147.253 331.447 147.224 331.84 147.165L331.884 148.026C331.608 148.126 331.233 148.176 330.759 148.176C330.038 148.176 329.514 147.968 329.186 147.552C328.857 147.13 328.693 146.512 328.693 145.697V139.352H326.944V138.49H328.693V136.056H329.748ZM334.942 140.099C335.288 139.53 335.73 139.091 336.27 138.78C336.809 138.47 337.397 138.314 338.036 138.314C339.056 138.314 339.814 138.602 340.312 139.176C340.811 139.75 341.062 140.611 341.068 141.76V148H340.022V141.751C340.017 140.901 339.835 140.269 339.478 139.853C339.126 139.437 338.561 139.229 337.781 139.229C337.131 139.229 336.554 139.434 336.05 139.844C335.552 140.248 335.183 140.796 334.942 141.487V148H333.896V134.5H334.942V140.099ZM349.787 136.056V138.49H351.756V139.352H349.787V145.688C349.787 146.216 349.881 146.608 350.068 146.866C350.262 147.124 350.581 147.253 351.026 147.253C351.202 147.253 351.486 147.224 351.879 147.165L351.923 148.026C351.647 148.126 351.272 148.176 350.798 148.176C350.077 148.176 349.553 147.968 349.225 147.552C348.896 147.13 348.732 146.512 348.732 145.697V139.352H346.983V138.49H348.732V136.056H349.787ZM354.981 140.099C355.327 139.53 355.77 139.091 356.309 138.78C356.848 138.47 357.437 138.314 358.075 138.314C359.095 138.314 359.854 138.602 360.352 139.176C360.85 139.75 361.102 140.611 361.107 141.76V148H360.062V141.751C360.056 140.901 359.874 140.269 359.517 139.853C359.165 139.437 358.6 139.229 357.82 139.229C357.17 139.229 356.593 139.434 356.089 139.844C355.591 140.248 355.222 140.796 354.981 141.487V148H353.936V134.5H354.981V140.099ZM364.992 148H363.938V138.49H364.992V148ZM363.753 135.739C363.753 135.54 363.817 135.373 363.946 135.238C364.075 135.098 364.251 135.027 364.474 135.027C364.696 135.027 364.872 135.098 365.001 135.238C365.136 135.373 365.203 135.54 365.203 135.739C365.203 135.938 365.136 136.105 365.001 136.24C364.872 136.375 364.696 136.442 364.474 136.442C364.251 136.442 364.075 136.375 363.946 136.24C363.817 136.105 363.753 135.938 363.753 135.739ZM373.553 145.583C373.553 145.062 373.342 144.643 372.92 144.326C372.504 144.01 371.874 143.764 371.03 143.588C370.187 143.406 369.53 143.201 369.062 142.973C368.599 142.738 368.253 142.454 368.024 142.12C367.802 141.786 367.69 141.382 367.69 140.907C367.69 140.157 368.004 139.539 368.631 139.053C369.258 138.561 370.061 138.314 371.039 138.314C372.1 138.314 372.949 138.578 373.588 139.105C374.232 139.627 374.555 140.31 374.555 141.153H373.5C373.5 140.597 373.266 140.134 372.797 139.765C372.334 139.396 371.748 139.211 371.039 139.211C370.348 139.211 369.791 139.366 369.369 139.677C368.953 139.981 368.745 140.38 368.745 140.872C368.745 141.347 368.918 141.716 369.264 141.979C369.615 142.237 370.251 142.475 371.171 142.691C372.097 142.908 372.788 143.14 373.245 143.386C373.708 143.632 374.051 143.928 374.273 144.273C374.496 144.619 374.607 145.038 374.607 145.53C374.607 146.333 374.282 146.975 373.632 147.455C372.987 147.936 372.144 148.176 371.101 148.176C369.993 148.176 369.094 147.909 368.402 147.376C367.717 146.837 367.374 146.157 367.374 145.337H368.429C368.47 145.952 368.728 146.433 369.202 146.778C369.683 147.118 370.315 147.288 371.101 147.288C371.833 147.288 372.425 147.127 372.876 146.805C373.327 146.482 373.553 146.075 373.553 145.583ZM382.992 136.056V138.49H384.961V139.352H382.992V145.688C382.992 146.216 383.086 146.608 383.273 146.866C383.467 147.124 383.786 147.253 384.231 147.253C384.407 147.253 384.691 147.224 385.084 147.165L385.128 148.026C384.853 148.126 384.478 148.176 384.003 148.176C383.282 148.176 382.758 147.968 382.43 147.552C382.102 147.13 381.938 146.512 381.938 145.697V139.352H380.188V138.49H381.938V136.056H382.992ZM386.385 143.104C386.385 142.19 386.561 141.367 386.912 140.635C387.27 139.902 387.771 139.334 388.415 138.93C389.065 138.52 389.801 138.314 390.621 138.314C391.887 138.314 392.912 138.76 393.697 139.65C394.482 140.535 394.875 141.71 394.875 143.175V143.395C394.875 144.314 394.696 145.144 394.339 145.882C393.987 146.614 393.489 147.18 392.845 147.578C392.2 147.977 391.465 148.176 390.639 148.176C389.379 148.176 388.354 147.733 387.562 146.849C386.777 145.958 386.385 144.78 386.385 143.315V143.104ZM387.439 143.395C387.439 144.531 387.732 145.466 388.318 146.198C388.91 146.925 389.684 147.288 390.639 147.288C391.588 147.288 392.355 146.925 392.941 146.198C393.533 145.466 393.829 144.502 393.829 143.307V143.104C393.829 142.378 393.694 141.713 393.425 141.109C393.155 140.506 392.777 140.04 392.291 139.712C391.805 139.378 391.248 139.211 390.621 139.211C389.684 139.211 388.919 139.58 388.327 140.318C387.735 141.051 387.439 142.012 387.439 143.201V143.395ZM396.475 143.104C396.475 142.19 396.65 141.367 397.002 140.635C397.359 139.902 397.86 139.334 398.505 138.93C399.155 138.52 399.891 138.314 400.711 138.314C401.977 138.314 403.002 138.76 403.787 139.65C404.572 140.535 404.965 141.71 404.965 143.175V143.395C404.965 144.314 404.786 145.144 404.429 145.882C404.077 146.614 403.579 147.18 402.935 147.578C402.29 147.977 401.555 148.176 400.729 148.176C399.469 148.176 398.443 147.733 397.652 146.849C396.867 145.958 396.475 144.78 396.475 143.315V143.104ZM397.529 143.395C397.529 144.531 397.822 145.466 398.408 146.198C399 146.925 399.773 147.288 400.729 147.288C401.678 147.288 402.445 146.925 403.031 146.198C403.623 145.466 403.919 144.502 403.919 143.307V143.104C403.919 142.378 403.784 141.713 403.515 141.109C403.245 140.506 402.867 140.04 402.381 139.712C401.895 139.378 401.338 139.211 400.711 139.211C399.773 139.211 399.009 139.58 398.417 140.318C397.825 141.051 397.529 142.012 397.529 143.201V143.395ZM408.322 148H407.268V134.5H408.322V148ZM416.742 148H415.688V134.5H416.742V148ZM425.61 148C425.505 147.701 425.438 147.259 425.408 146.673C425.039 147.153 424.567 147.525 423.993 147.789C423.425 148.047 422.821 148.176 422.183 148.176C421.269 148.176 420.527 147.921 419.959 147.411C419.396 146.901 419.115 146.257 419.115 145.478C419.115 144.552 419.499 143.819 420.267 143.28C421.04 142.741 422.115 142.472 423.492 142.472H425.399V141.391C425.399 140.711 425.188 140.178 424.767 139.791C424.351 139.398 423.741 139.202 422.938 139.202C422.206 139.202 421.6 139.39 421.119 139.765C420.639 140.14 420.398 140.591 420.398 141.118L419.344 141.109C419.344 140.354 419.695 139.7 420.398 139.149C421.102 138.593 421.966 138.314 422.991 138.314C424.052 138.314 424.887 138.581 425.496 139.114C426.111 139.642 426.428 140.38 426.445 141.329V145.829C426.445 146.749 426.542 147.438 426.735 147.895V148H425.61ZM422.306 147.244C423.009 147.244 423.636 147.074 424.187 146.734C424.743 146.395 425.147 145.94 425.399 145.372V143.28H423.519C422.47 143.292 421.649 143.485 421.058 143.86C420.466 144.229 420.17 144.739 420.17 145.39C420.17 145.923 420.366 146.365 420.759 146.717C421.157 147.068 421.673 147.244 422.306 147.244ZM430.893 136.056V138.49H432.861V139.352H430.893V145.688C430.893 146.216 430.986 146.608 431.174 146.866C431.367 147.124 431.687 147.253 432.132 147.253C432.308 147.253 432.592 147.224 432.984 147.165L433.028 148.026C432.753 148.126 432.378 148.176 431.903 148.176C431.183 148.176 430.658 147.968 430.33 147.552C430.002 147.13 429.838 146.512 429.838 145.697V139.352H428.089V138.49H429.838V136.056H430.893ZM438.724 148.176C437.915 148.176 437.183 147.977 436.526 147.578C435.876 147.18 435.369 146.626 435.006 145.917C434.643 145.202 434.461 144.402 434.461 143.518V143.14C434.461 142.226 434.637 141.402 434.988 140.67C435.346 139.938 435.841 139.363 436.474 138.947C437.106 138.525 437.792 138.314 438.53 138.314C439.685 138.314 440.599 138.71 441.272 139.501C441.952 140.286 442.292 141.361 442.292 142.727V143.315H435.507V143.518C435.507 144.596 435.814 145.495 436.43 146.216C437.051 146.931 437.83 147.288 438.768 147.288C439.33 147.288 439.825 147.186 440.253 146.98C440.687 146.775 441.079 146.447 441.431 145.996L442.09 146.497C441.316 147.616 440.194 148.176 438.724 148.176ZM438.53 139.211C437.739 139.211 437.071 139.501 436.526 140.081C435.987 140.661 435.659 141.44 435.542 142.419H441.246V142.305C441.217 141.391 440.956 140.646 440.464 140.072C439.972 139.498 439.327 139.211 438.53 139.211ZM448.734 139.387C448.512 139.346 448.274 139.325 448.022 139.325C447.366 139.325 446.81 139.51 446.353 139.879C445.901 140.242 445.579 140.772 445.386 141.47V148H444.34V138.49H445.368L445.386 140.002C445.942 138.877 446.836 138.314 448.066 138.314C448.359 138.314 448.591 138.353 448.761 138.429L448.734 139.387ZM449.218 147.367C449.218 147.162 449.282 146.989 449.411 146.849C449.546 146.702 449.73 146.629 449.965 146.629C450.199 146.629 450.384 146.702 450.519 146.849C450.653 146.989 450.721 147.162 450.721 147.367C450.721 147.572 450.653 147.742 450.519 147.877C450.384 148.006 450.199 148.07 449.965 148.07C449.73 148.07 449.546 148.006 449.411 147.877C449.282 147.742 449.218 147.572 449.218 147.367ZM459.562 148H458.481V135.203H459.562V148ZM464.432 136.056V138.49H466.4V139.352H464.432V145.688C464.432 146.216 464.525 146.608 464.713 146.866C464.906 147.124 465.226 147.253 465.671 147.253C465.847 147.253 466.131 147.224 466.523 147.165L466.567 148.026C466.292 148.126 465.917 148.176 465.442 148.176C464.722 148.176 464.197 147.968 463.869 147.552C463.541 147.13 463.377 146.512 463.377 145.697V139.352H461.628V138.49H463.377V136.056H464.432ZM469.195 135.739L469.046 138.42H468.255C468.284 136.686 468.299 135.379 468.299 134.5H469.195V135.739ZM476.631 145.583C476.631 145.062 476.42 144.643 475.998 144.326C475.582 144.01 474.952 143.764 474.108 143.588C473.265 143.406 472.608 143.201 472.14 142.973C471.677 142.738 471.331 142.454 471.103 142.12C470.88 141.786 470.769 141.382 470.769 140.907C470.769 140.157 471.082 139.539 471.709 139.053C472.336 138.561 473.139 138.314 474.117 138.314C475.178 138.314 476.027 138.578 476.666 139.105C477.311 139.627 477.633 140.31 477.633 141.153H476.578C476.578 140.597 476.344 140.134 475.875 139.765C475.412 139.396 474.826 139.211 474.117 139.211C473.426 139.211 472.869 139.366 472.447 139.677C472.031 139.981 471.823 140.38 471.823 140.872C471.823 141.347 471.996 141.716 472.342 141.979C472.693 142.237 473.329 142.475 474.249 142.691C475.175 142.908 475.866 143.14 476.323 143.386C476.786 143.632 477.129 143.928 477.352 144.273C477.574 144.619 477.686 145.038 477.686 145.53C477.686 146.333 477.36 146.975 476.71 147.455C476.065 147.936 475.222 148.176 474.179 148.176C473.071 148.176 472.172 147.909 471.48 147.376C470.795 146.837 470.452 146.157 470.452 145.337H471.507C471.548 145.952 471.806 146.433 472.28 146.778C472.761 147.118 473.394 147.288 474.179 147.288C474.911 147.288 475.503 147.127 475.954 146.805C476.405 146.482 476.631 146.075 476.631 145.583ZM57.6299 167.21L56.4258 168.37V172H55.3711V158.5H56.4258V167.14L57.4189 166.067L61.0576 162.49H62.3848L58.3506 166.498L62.7363 172H61.4795L57.6299 167.21ZM67.7021 172.176C66.8936 172.176 66.1611 171.977 65.5049 171.578C64.8545 171.18 64.3477 170.626 63.9844 169.917C63.6211 169.202 63.4395 168.402 63.4395 167.518V167.14C63.4395 166.226 63.6152 165.402 63.9668 164.67C64.3242 163.938 64.8193 163.363 65.4521 162.947C66.085 162.525 66.7705 162.314 67.5088 162.314C68.6631 162.314 69.5771 162.71 70.251 163.501C70.9307 164.286 71.2705 165.361 71.2705 166.727V167.315H64.4854V167.518C64.4854 168.596 64.793 169.495 65.4082 170.216C66.0293 170.931 66.8086 171.288 67.7461 171.288C68.3086 171.288 68.8037 171.186 69.2314 170.98C69.665 170.775 70.0576 170.447 70.4092 169.996L71.0684 170.497C70.2949 171.616 69.1729 172.176 67.7021 172.176ZM67.5088 163.211C66.7178 163.211 66.0498 163.501 65.5049 164.081C64.9658 164.661 64.6377 165.44 64.5205 166.419H70.2246V166.305C70.1953 165.391 69.9346 164.646 69.4424 164.072C68.9502 163.498 68.3057 163.211 67.5088 163.211ZM80.9648 167.342C80.9648 168.824 80.6367 170.002 79.9805 170.875C79.3242 171.742 78.4453 172.176 77.3438 172.176C76.043 172.176 75.0469 171.719 74.3555 170.805V175.656H73.3096V162.49H74.2852L74.3379 163.835C75.0234 162.821 76.0166 162.314 77.3174 162.314C78.4541 162.314 79.3447 162.745 79.9893 163.606C80.6396 164.468 80.9648 165.663 80.9648 167.192V167.342ZM79.9102 167.157C79.9102 165.944 79.6611 164.986 79.1631 164.283C78.665 163.58 77.9707 163.229 77.0801 163.229C76.4355 163.229 75.8818 163.384 75.4189 163.694C74.9561 164.005 74.6016 164.456 74.3555 165.048V169.609C74.6074 170.154 74.9678 170.57 75.4365 170.857C75.9053 171.145 76.459 171.288 77.0977 171.288C77.9824 171.288 78.6709 170.937 79.1631 170.233C79.6611 169.524 79.9102 168.499 79.9102 167.157ZM84.9375 160.056V162.49H86.9062V163.352H84.9375V169.688C84.9375 170.216 85.0312 170.608 85.2188 170.866C85.4121 171.124 85.7314 171.253 86.1768 171.253C86.3525 171.253 86.6367 171.224 87.0293 171.165L87.0732 172.026C86.7979 172.126 86.4229 172.176 85.9482 172.176C85.2275 172.176 84.7031 171.968 84.375 171.552C84.0469 171.13 83.8828 170.512 83.8828 169.697V163.352H82.1338V162.49H83.8828V160.056H84.9375ZM96.9785 171.288C97.7109 171.288 98.3232 171.083 98.8154 170.673C99.3135 170.257 99.583 169.721 99.624 169.064H100.635C100.605 169.645 100.424 170.175 100.09 170.655C99.7559 171.13 99.3105 171.502 98.7539 171.771C98.2031 172.041 97.6113 172.176 96.9785 172.176C95.7305 172.176 94.7402 171.742 94.0078 170.875C93.2812 170.008 92.918 168.842 92.918 167.377V167.061C92.918 166.123 93.082 165.294 93.4102 164.573C93.7383 163.853 94.207 163.296 94.8164 162.903C95.4316 162.511 96.1494 162.314 96.9697 162.314C98.0127 162.314 98.8711 162.625 99.5449 163.246C100.225 163.867 100.588 164.685 100.635 165.698H99.624C99.5771 164.954 99.3076 164.354 98.8154 163.896C98.3291 163.439 97.7139 163.211 96.9697 163.211C96.0205 163.211 95.2822 163.554 94.7549 164.239C94.2334 164.925 93.9727 165.886 93.9727 167.122V167.43C93.9727 168.643 94.2334 169.589 94.7549 170.269C95.2822 170.948 96.0234 171.288 96.9785 171.288ZM103.922 172H102.867V158.5H103.922V172ZM110.47 172.176C109.661 172.176 108.929 171.977 108.272 171.578C107.622 171.18 107.115 170.626 106.752 169.917C106.389 169.202 106.207 168.402 106.207 167.518V167.14C106.207 166.226 106.383 165.402 106.734 164.67C107.092 163.938 107.587 163.363 108.22 162.947C108.853 162.525 109.538 162.314 110.276 162.314C111.431 162.314 112.345 162.71 113.019 163.501C113.698 164.286 114.038 165.361 114.038 166.727V167.315H107.253V167.518C107.253 168.596 107.561 169.495 108.176 170.216C108.797 170.931 109.576 171.288 110.514 171.288C111.076 171.288 111.571 171.186 111.999 170.98C112.433 170.775 112.825 170.447 113.177 169.996L113.836 170.497C113.062 171.616 111.94 172.176 110.47 172.176ZM110.276 163.211C109.485 163.211 108.817 163.501 108.272 164.081C107.733 164.661 107.405 165.44 107.288 166.419H112.992V166.305C112.963 165.391 112.702 164.646 112.21 164.072C111.718 163.498 111.073 163.211 110.276 163.211ZM122.089 172C121.983 171.701 121.916 171.259 121.887 170.673C121.518 171.153 121.046 171.525 120.472 171.789C119.903 172.047 119.3 172.176 118.661 172.176C117.747 172.176 117.006 171.921 116.438 171.411C115.875 170.901 115.594 170.257 115.594 169.478C115.594 168.552 115.978 167.819 116.745 167.28C117.519 166.741 118.594 166.472 119.971 166.472H121.878V165.391C121.878 164.711 121.667 164.178 121.245 163.791C120.829 163.398 120.22 163.202 119.417 163.202C118.685 163.202 118.078 163.39 117.598 163.765C117.117 164.14 116.877 164.591 116.877 165.118L115.822 165.109C115.822 164.354 116.174 163.7 116.877 163.149C117.58 162.593 118.444 162.314 119.47 162.314C120.53 162.314 121.365 162.581 121.975 163.114C122.59 163.642 122.906 164.38 122.924 165.329V169.829C122.924 170.749 123.021 171.438 123.214 171.895V172H122.089ZM118.784 171.244C119.487 171.244 120.114 171.074 120.665 170.734C121.222 170.395 121.626 169.94 121.878 169.372V167.28H119.997C118.948 167.292 118.128 167.485 117.536 167.86C116.944 168.229 116.648 168.739 116.648 169.39C116.648 169.923 116.845 170.365 117.237 170.717C117.636 171.068 118.151 171.244 118.784 171.244ZM130.131 163.387C129.908 163.346 129.671 163.325 129.419 163.325C128.763 163.325 128.206 163.51 127.749 163.879C127.298 164.242 126.976 164.772 126.782 165.47V172H125.736V162.49H126.765L126.782 164.002C127.339 162.877 128.232 162.314 129.463 162.314C129.756 162.314 129.987 162.353 130.157 162.429L130.131 163.387ZM142.181 172C142.075 171.701 142.008 171.259 141.979 170.673C141.609 171.153 141.138 171.525 140.563 171.789C139.995 172.047 139.392 172.176 138.753 172.176C137.839 172.176 137.098 171.921 136.529 171.411C135.967 170.901 135.686 170.257 135.686 169.478C135.686 168.552 136.069 167.819 136.837 167.28C137.61 166.741 138.686 166.472 140.062 166.472H141.97V165.391C141.97 164.711 141.759 164.178 141.337 163.791C140.921 163.398 140.312 163.202 139.509 163.202C138.776 163.202 138.17 163.39 137.689 163.765C137.209 164.14 136.969 164.591 136.969 165.118L135.914 165.109C135.914 164.354 136.266 163.7 136.969 163.149C137.672 162.593 138.536 162.314 139.562 162.314C140.622 162.314 141.457 162.581 142.066 163.114C142.682 163.642 142.998 164.38 143.016 165.329V169.829C143.016 170.749 143.112 171.438 143.306 171.895V172H142.181ZM138.876 171.244C139.579 171.244 140.206 171.074 140.757 170.734C141.313 170.395 141.718 169.94 141.97 169.372V167.28H140.089C139.04 167.292 138.22 167.485 137.628 167.86C137.036 168.229 136.74 168.739 136.74 169.39C136.74 169.923 136.937 170.365 137.329 170.717C137.728 171.068 138.243 171.244 138.876 171.244ZM146.83 162.49L146.865 164.116C147.223 163.53 147.668 163.085 148.201 162.78C148.734 162.47 149.323 162.314 149.968 162.314C150.987 162.314 151.746 162.602 152.244 163.176C152.742 163.75 152.994 164.611 153 165.76V172H151.954V165.751C151.948 164.901 151.767 164.269 151.409 163.853C151.058 163.437 150.492 163.229 149.713 163.229C149.062 163.229 148.485 163.434 147.981 163.844C147.483 164.248 147.114 164.796 146.874 165.487V172H145.828V162.49H146.83ZM155.303 167.157C155.303 165.681 155.631 164.506 156.287 163.633C156.949 162.754 157.846 162.314 158.977 162.314C160.26 162.314 161.238 162.821 161.912 163.835V158.5H162.958V172H161.974L161.93 170.734C161.256 171.695 160.266 172.176 158.959 172.176C157.863 172.176 156.979 171.736 156.305 170.857C155.637 169.973 155.303 168.78 155.303 167.28V167.157ZM156.366 167.342C156.366 168.555 156.609 169.513 157.096 170.216C157.582 170.913 158.268 171.262 159.152 171.262C160.447 171.262 161.367 170.69 161.912 169.548V165.083C161.367 163.847 160.453 163.229 159.17 163.229C158.285 163.229 157.597 163.577 157.104 164.274C156.612 164.966 156.366 165.988 156.366 167.342ZM175.799 169.583C175.799 169.062 175.588 168.643 175.166 168.326C174.75 168.01 174.12 167.764 173.276 167.588C172.433 167.406 171.776 167.201 171.308 166.973C170.845 166.738 170.499 166.454 170.271 166.12C170.048 165.786 169.937 165.382 169.937 164.907C169.937 164.157 170.25 163.539 170.877 163.053C171.504 162.561 172.307 162.314 173.285 162.314C174.346 162.314 175.195 162.578 175.834 163.105C176.479 163.627 176.801 164.31 176.801 165.153H175.746C175.746 164.597 175.512 164.134 175.043 163.765C174.58 163.396 173.994 163.211 173.285 163.211C172.594 163.211 172.037 163.366 171.615 163.677C171.199 163.981 170.991 164.38 170.991 164.872C170.991 165.347 171.164 165.716 171.51 165.979C171.861 166.237 172.497 166.475 173.417 166.691C174.343 166.908 175.034 167.14 175.491 167.386C175.954 167.632 176.297 167.928 176.52 168.273C176.742 168.619 176.854 169.038 176.854 169.53C176.854 170.333 176.528 170.975 175.878 171.455C175.233 171.936 174.39 172.176 173.347 172.176C172.239 172.176 171.34 171.909 170.648 171.376C169.963 170.837 169.62 170.157 169.62 169.337H170.675C170.716 169.952 170.974 170.433 171.448 170.778C171.929 171.118 172.562 171.288 173.347 171.288C174.079 171.288 174.671 171.127 175.122 170.805C175.573 170.482 175.799 170.075 175.799 169.583ZM180.404 172H179.35V162.49H180.404V172ZM179.165 159.739C179.165 159.54 179.229 159.373 179.358 159.238C179.487 159.098 179.663 159.027 179.886 159.027C180.108 159.027 180.284 159.098 180.413 159.238C180.548 159.373 180.615 159.54 180.615 159.739C180.615 159.938 180.548 160.105 180.413 160.24C180.284 160.375 180.108 160.442 179.886 160.442C179.663 160.442 179.487 160.375 179.358 160.24C179.229 160.105 179.165 159.938 179.165 159.739ZM184.228 162.49L184.263 164.037C184.614 163.463 185.054 163.032 185.581 162.745C186.108 162.458 186.694 162.314 187.339 162.314C188.839 162.314 189.791 162.93 190.195 164.16C190.535 163.568 190.989 163.114 191.558 162.798C192.126 162.476 192.753 162.314 193.438 162.314C195.478 162.314 196.518 163.428 196.559 165.654V172H195.504V165.733C195.498 164.884 195.313 164.254 194.95 163.844C194.593 163.434 194.007 163.229 193.192 163.229C192.437 163.24 191.798 163.486 191.276 163.967C190.755 164.441 190.465 165.021 190.406 165.707V172H189.352V165.654C189.346 164.84 189.152 164.233 188.771 163.835C188.396 163.431 187.816 163.229 187.031 163.229C186.369 163.229 185.801 163.419 185.326 163.8C184.852 164.175 184.5 164.734 184.271 165.479V172H183.217V162.49H184.228ZM206.877 167.342C206.877 168.824 206.549 170.002 205.893 170.875C205.236 171.742 204.357 172.176 203.256 172.176C201.955 172.176 200.959 171.719 200.268 170.805V175.656H199.222V162.49H200.197L200.25 163.835C200.936 162.821 201.929 162.314 203.229 162.314C204.366 162.314 205.257 162.745 205.901 163.606C206.552 164.468 206.877 165.663 206.877 167.192V167.342ZM205.822 167.157C205.822 165.944 205.573 164.986 205.075 164.283C204.577 163.58 203.883 163.229 202.992 163.229C202.348 163.229 201.794 163.384 201.331 163.694C200.868 164.005 200.514 164.456 200.268 165.048V169.609C200.52 170.154 200.88 170.57 201.349 170.857C201.817 171.145 202.371 171.288 203.01 171.288C203.895 171.288 204.583 170.937 205.075 170.233C205.573 169.524 205.822 168.499 205.822 167.157ZM210.393 172H209.338V158.5H210.393V172ZM216.94 172.176C216.132 172.176 215.399 171.977 214.743 171.578C214.093 171.18 213.586 170.626 213.223 169.917C212.859 169.202 212.678 168.402 212.678 167.518V167.14C212.678 166.226 212.854 165.402 213.205 164.67C213.562 163.938 214.058 163.363 214.69 162.947C215.323 162.525 216.009 162.314 216.747 162.314C217.901 162.314 218.815 162.71 219.489 163.501C220.169 164.286 220.509 165.361 220.509 166.727V167.315H213.724V167.518C213.724 168.596 214.031 169.495 214.646 170.216C215.268 170.931 216.047 171.288 216.984 171.288C217.547 171.288 218.042 171.186 218.47 170.98C218.903 170.775 219.296 170.447 219.647 169.996L220.307 170.497C219.533 171.616 218.411 172.176 216.94 172.176ZM216.747 163.211C215.956 163.211 215.288 163.501 214.743 164.081C214.204 164.661 213.876 165.44 213.759 166.419H219.463V166.305C219.434 165.391 219.173 164.646 218.681 164.072C218.188 163.498 217.544 163.211 216.747 163.211ZM226.784 162.341L226.16 161.884C226.688 161.175 226.96 160.431 226.978 159.651V158.5H228.015V159.388C228.015 160.612 227.604 161.597 226.784 162.341ZM228.929 162.341L228.305 161.884C228.832 161.175 229.104 160.431 229.122 159.651V158.5H230.159V159.388C230.159 160.612 229.749 161.597 228.929 162.341Z" fill="black"/>
<path d="M136.862 63.3965H135.166L134.533 67H132.925L133.558 63.3965H131.562V61.8848H133.821L134.261 59.3887H132.222V57.8594H134.533L135.175 54.2031H136.774L136.133 57.8594H137.838L138.479 54.2031H140.088L139.446 57.8594H141.371V59.3887H139.174L138.734 61.8848H140.703V63.3965H138.471L137.838 67H136.229L136.862 63.3965ZM135.43 61.8848H137.126L137.565 59.3887H135.86L135.43 61.8848ZM151.206 61.709C151.206 63.4785 150.84 64.832 150.107 65.7695C149.375 66.707 148.303 67.1758 146.891 67.1758C145.496 67.1758 144.43 66.7158 143.691 65.7959C142.953 64.876 142.575 63.5576 142.558 61.8408V59.4854C142.558 57.6982 142.927 56.3418 143.665 55.416C144.409 54.4902 145.479 54.0273 146.873 54.0273C148.268 54.0273 149.334 54.4873 150.072 55.4072C150.811 56.3213 151.188 57.6367 151.206 59.3535V61.709ZM148.666 59.125C148.666 58.0645 148.52 57.2939 148.227 56.8135C147.939 56.3271 147.488 56.084 146.873 56.084C146.275 56.084 145.833 56.3154 145.546 56.7783C145.265 57.2354 145.115 57.9531 145.098 58.9316V62.043C145.098 63.0859 145.238 63.8623 145.52 64.3721C145.807 64.876 146.264 65.1279 146.891 65.1279C147.512 65.1279 147.96 64.8848 148.235 64.3984C148.511 63.9121 148.654 63.168 148.666 62.166V59.125ZM159.099 67H156.559V57.209L153.526 58.1494V56.084L158.826 54.1855H159.099V67ZM177.125 56.3389H173.205V67H170.568V56.3389H166.701V54.2031H177.125V56.3389ZM182.056 67.1758C180.661 67.1758 179.524 66.748 178.646 65.8926C177.772 65.0371 177.336 63.8975 177.336 62.4736V62.2275C177.336 61.2725 177.521 60.4199 177.89 59.6699C178.259 58.9141 178.78 58.334 179.454 57.9297C180.134 57.5195 180.907 57.3145 181.774 57.3145C183.075 57.3145 184.098 57.7246 184.842 58.5449C185.592 59.3652 185.967 60.5283 185.967 62.0342V63.0713H179.911C179.993 63.6924 180.239 64.1904 180.649 64.5654C181.065 64.9404 181.59 65.1279 182.223 65.1279C183.201 65.1279 183.966 64.7734 184.517 64.0645L185.765 65.4619C185.384 66.001 184.868 66.4229 184.218 66.7275C183.567 67.0264 182.847 67.1758 182.056 67.1758ZM181.766 59.3711C181.262 59.3711 180.852 59.541 180.535 59.8809C180.225 60.2207 180.025 60.707 179.938 61.3398H183.471V61.1377C183.459 60.5752 183.307 60.1416 183.014 59.8369C182.721 59.5264 182.305 59.3711 181.766 59.3711ZM192.567 64.3721C192.567 64.0615 192.412 63.8184 192.102 63.6426C191.797 63.4609 191.305 63.2998 190.625 63.1592C188.363 62.6846 187.232 61.7236 187.232 60.2764C187.232 59.4326 187.581 58.7295 188.278 58.167C188.981 57.5986 189.898 57.3145 191.029 57.3145C192.236 57.3145 193.2 57.5986 193.921 58.167C194.647 58.7354 195.011 59.4736 195.011 60.3818H192.471C192.471 60.0186 192.354 59.7197 192.119 59.4854C191.885 59.2451 191.519 59.125 191.021 59.125C190.593 59.125 190.262 59.2217 190.027 59.415C189.793 59.6084 189.676 59.8545 189.676 60.1533C189.676 60.4346 189.808 60.6631 190.071 60.8389C190.341 61.0088 190.792 61.1582 191.425 61.2871C192.058 61.4102 192.591 61.5508 193.024 61.709C194.366 62.2012 195.037 63.0537 195.037 64.2666C195.037 65.1338 194.665 65.8369 193.921 66.376C193.177 66.9092 192.216 67.1758 191.038 67.1758C190.241 67.1758 189.532 67.0352 188.911 66.7539C188.296 66.4668 187.812 66.0771 187.461 65.585C187.109 65.0869 186.934 64.5508 186.934 63.9766H189.342C189.365 64.4277 189.532 64.7734 189.843 65.0137C190.153 65.2539 190.569 65.374 191.091 65.374C191.577 65.374 191.943 65.2832 192.189 65.1016C192.441 64.9141 192.567 64.6709 192.567 64.3721ZM199.722 55.1523V57.4902H201.348V59.3535H199.722V64.0996C199.722 64.4512 199.789 64.7031 199.924 64.8555C200.059 65.0078 200.316 65.084 200.697 65.084C200.979 65.084 201.228 65.0635 201.444 65.0225V66.9473C200.946 67.0996 200.434 67.1758 199.906 67.1758C198.125 67.1758 197.217 66.2764 197.182 64.4775V59.3535H195.793V57.4902H197.182V55.1523H199.722ZM207.14 67.1758C205.745 67.1758 204.608 66.748 203.729 65.8926C202.856 65.0371 202.42 63.8975 202.42 62.4736V62.2275C202.42 61.2725 202.604 60.4199 202.974 59.6699C203.343 58.9141 203.864 58.334 204.538 57.9297C205.218 57.5195 205.991 57.3145 206.858 57.3145C208.159 57.3145 209.182 57.7246 209.926 58.5449C210.676 59.3652 211.051 60.5283 211.051 62.0342V63.0713H204.995C205.077 63.6924 205.323 64.1904 205.733 64.5654C206.149 64.9404 206.674 65.1279 207.307 65.1279C208.285 65.1279 209.05 64.7734 209.601 64.0645L210.849 65.4619C210.468 66.001 209.952 66.4229 209.302 66.7275C208.651 67.0264 207.931 67.1758 207.14 67.1758ZM206.85 59.3711C206.346 59.3711 205.936 59.541 205.619 59.8809C205.309 60.2207 205.109 60.707 205.021 61.3398H208.555V61.1377C208.543 60.5752 208.391 60.1416 208.098 59.8369C207.805 59.5264 207.389 59.3711 206.85 59.3711ZM217.845 59.8721C217.499 59.8252 217.194 59.8018 216.931 59.8018C215.97 59.8018 215.34 60.127 215.041 60.7773V67H212.501V57.4902H214.9L214.971 58.624C215.48 57.751 216.187 57.3145 217.089 57.3145C217.37 57.3145 217.634 57.3525 217.88 57.4287L217.845 59.8721Z" fill="black"/>
<path d="M137.891 87.5527C137.891 87.0013 137.697 86.5661 137.31 86.2471C136.922 85.9235 136.214 85.6182 135.184 85.3311C134.154 85.0394 133.402 84.7227 132.928 84.3809C132.253 83.8978 131.916 83.2643 131.916 82.4805C131.916 81.7194 132.228 81.1019 132.853 80.6279C133.481 80.1494 134.284 79.9102 135.259 79.9102C135.92 79.9102 136.51 80.0378 137.029 80.293C137.553 80.5482 137.959 80.9036 138.246 81.3594C138.533 81.8151 138.677 82.3232 138.677 82.8838H137.829C137.829 82.2048 137.597 81.6602 137.132 81.25C136.667 80.8353 136.043 80.6279 135.259 80.6279C134.498 80.6279 133.892 80.7988 133.44 81.1406C132.989 81.4779 132.764 81.9199 132.764 82.4668C132.764 82.9727 132.966 83.3851 133.372 83.7041C133.778 84.0231 134.427 84.3057 135.32 84.5518C136.214 84.7933 136.89 85.0462 137.351 85.3105C137.811 85.5703 138.157 85.8825 138.39 86.2471C138.622 86.6117 138.738 87.0423 138.738 87.5391C138.738 88.3229 138.424 88.9518 137.795 89.4258C137.171 89.8997 136.346 90.1367 135.32 90.1367C134.618 90.1367 133.974 90.0114 133.386 89.7607C132.802 89.5101 132.358 89.1592 132.053 88.708C131.752 88.2568 131.602 87.7396 131.602 87.1562H132.442C132.442 87.8581 132.704 88.4118 133.229 88.8174C133.753 89.223 134.45 89.4258 135.32 89.4258C136.095 89.4258 136.717 89.2549 137.187 88.9131C137.656 88.5713 137.891 88.1178 137.891 87.5527ZM143.229 90.1367C142.601 90.1367 142.031 89.9818 141.521 89.6719C141.015 89.362 140.62 88.9313 140.338 88.3799C140.055 87.8239 139.914 87.2018 139.914 86.5137V86.2197C139.914 85.5088 140.051 84.8685 140.324 84.2988C140.602 83.7292 140.987 83.2826 141.479 82.959C141.972 82.6309 142.505 82.4668 143.079 82.4668C143.977 82.4668 144.688 82.7744 145.212 83.3896C145.741 84.0003 146.005 84.8366 146.005 85.8984V86.3564H140.728V86.5137C140.728 87.3522 140.967 88.0518 141.445 88.6123C141.928 89.1683 142.535 89.4463 143.264 89.4463C143.701 89.4463 144.086 89.3665 144.419 89.207C144.756 89.0475 145.062 88.7923 145.335 88.4414L145.848 88.8311C145.246 89.7015 144.373 90.1367 143.229 90.1367ZM143.079 83.1641C142.464 83.1641 141.944 83.3896 141.521 83.8408C141.101 84.292 140.846 84.8981 140.755 85.6592H145.191V85.5703C145.169 84.8594 144.966 84.2806 144.583 83.834C144.2 83.3874 143.699 83.1641 143.079 83.1641ZM153.545 86.377C153.545 87.5299 153.29 88.446 152.779 89.125C152.269 89.7995 151.585 90.1367 150.729 90.1367C149.717 90.1367 148.942 89.7812 148.404 89.0703V92.8438H147.591V82.6035H148.35L148.391 83.6494C148.924 82.861 149.696 82.4668 150.708 82.4668C151.592 82.4668 152.285 82.8018 152.786 83.4717C153.292 84.1416 153.545 85.0713 153.545 86.2607V86.377ZM152.725 86.2334C152.725 85.29 152.531 84.5449 152.144 83.998C151.756 83.4512 151.216 83.1777 150.523 83.1777C150.022 83.1777 149.591 83.2985 149.231 83.54C148.871 83.7816 148.596 84.1325 148.404 84.5928V88.1406C148.6 88.5645 148.881 88.888 149.245 89.1113C149.61 89.3346 150.04 89.4463 150.537 89.4463C151.225 89.4463 151.761 89.1729 152.144 88.626C152.531 88.0745 152.725 87.277 152.725 86.2334ZM156.635 80.71V82.6035H158.166V83.2734H156.635V88.2021C156.635 88.6123 156.708 88.9176 156.854 89.1182C157.004 89.3187 157.252 89.4189 157.599 89.4189C157.735 89.4189 157.956 89.3962 158.262 89.3506L158.296 90.0205C158.082 90.098 157.79 90.1367 157.421 90.1367C156.86 90.1367 156.452 89.9749 156.197 89.6514C155.942 89.3232 155.814 88.8424 155.814 88.209V83.2734H154.454V82.6035H155.814V80.71H156.635ZM162.726 90.1367C162.097 90.1367 161.527 89.9818 161.017 89.6719C160.511 89.362 160.117 88.9313 159.834 88.3799C159.551 87.8239 159.41 87.2018 159.41 86.5137V86.2197C159.41 85.5088 159.547 84.8685 159.82 84.2988C160.098 83.7292 160.483 83.2826 160.976 82.959C161.468 82.6309 162.001 82.4668 162.575 82.4668C163.473 82.4668 164.184 82.7744 164.708 83.3896C165.237 84.0003 165.501 84.8366 165.501 85.8984V86.3564H160.224V86.5137C160.224 87.3522 160.463 88.0518 160.941 88.6123C161.424 89.1683 162.031 89.4463 162.76 89.4463C163.197 89.4463 163.582 89.3665 163.915 89.207C164.252 89.0475 164.558 88.7923 164.831 88.4414L165.344 88.8311C164.742 89.7015 163.869 90.1367 162.726 90.1367ZM162.575 83.1641C161.96 83.1641 161.44 83.3896 161.017 83.8408C160.597 84.292 160.342 84.8981 160.251 85.6592H164.688V85.5703C164.665 84.8594 164.462 84.2806 164.079 83.834C163.696 83.3874 163.195 83.1641 162.575 83.1641ZM167.839 82.6035L167.866 83.8066C168.14 83.36 168.481 83.0251 168.892 82.8018C169.302 82.5785 169.757 82.4668 170.259 82.4668C171.425 82.4668 172.166 82.9453 172.48 83.9023C172.745 83.4421 173.098 83.0889 173.54 82.8428C173.982 82.5921 174.47 82.4668 175.003 82.4668C176.589 82.4668 177.398 83.3327 177.43 85.0645V90H176.609V85.126C176.605 84.4652 176.461 83.9753 176.179 83.6562C175.901 83.3372 175.445 83.1777 174.812 83.1777C174.224 83.1868 173.727 83.3783 173.321 83.752C172.916 84.1211 172.69 84.5723 172.645 85.1055V90H171.824V85.0645C171.82 84.431 171.669 83.9593 171.373 83.6494C171.081 83.335 170.63 83.1777 170.02 83.1777C169.505 83.1777 169.062 83.3258 168.693 83.6221C168.324 83.9137 168.051 84.349 167.873 84.9277V90H167.053V82.6035H167.839ZM185.462 86.377C185.462 87.5299 185.207 88.446 184.696 89.125C184.186 89.7995 183.5 90.1367 182.639 90.1367C181.609 90.1367 180.829 89.7539 180.301 88.9883L180.267 90H179.501V79.5H180.314V83.6768C180.834 82.8701 181.604 82.4668 182.625 82.4668C183.5 82.4668 184.19 82.8018 184.696 83.4717C185.207 84.137 185.462 85.0645 185.462 86.2539V86.377ZM184.642 86.2334C184.642 85.2581 184.452 84.5062 184.074 83.9775C183.696 83.4443 183.163 83.1777 182.475 83.1777C181.951 83.1777 181.506 83.3076 181.142 83.5674C180.777 83.8226 180.501 84.1986 180.314 84.6953V88.0312C180.725 88.9609 181.449 89.4258 182.488 89.4258C183.163 89.4258 183.689 89.1592 184.067 88.626C184.45 88.0928 184.642 87.2952 184.642 86.2334ZM190.138 90.1367C189.509 90.1367 188.939 89.9818 188.429 89.6719C187.923 89.362 187.529 88.9313 187.246 88.3799C186.964 87.8239 186.822 87.2018 186.822 86.5137V86.2197C186.822 85.5088 186.959 84.8685 187.232 84.2988C187.51 83.7292 187.896 83.2826 188.388 82.959C188.88 82.6309 189.413 82.4668 189.987 82.4668C190.885 82.4668 191.596 82.7744 192.12 83.3896C192.649 84.0003 192.913 84.8366 192.913 85.8984V86.3564H187.636V86.5137C187.636 87.3522 187.875 88.0518 188.354 88.6123C188.837 89.1683 189.443 89.4463 190.172 89.4463C190.609 89.4463 190.994 89.3665 191.327 89.207C191.664 89.0475 191.97 88.7923 192.243 88.4414L192.756 88.8311C192.154 89.7015 191.282 90.1367 190.138 90.1367ZM189.987 83.1641C189.372 83.1641 188.853 83.3896 188.429 83.8408C188.009 84.292 187.754 84.8981 187.663 85.6592H192.1V85.5703C192.077 84.8594 191.874 84.2806 191.491 83.834C191.108 83.3874 190.607 83.1641 189.987 83.1641ZM197.924 83.3008C197.751 83.2689 197.566 83.2529 197.37 83.2529C196.86 83.2529 196.427 83.3965 196.071 83.6836C195.72 83.9661 195.47 84.3786 195.319 84.9209V90H194.506V82.6035H195.306L195.319 83.7793C195.752 82.9043 196.447 82.4668 197.404 82.4668C197.632 82.4668 197.812 82.4964 197.944 82.5557L197.924 83.3008ZM198.204 91.8594L197.719 91.5039C198.133 90.9479 198.348 90.3714 198.361 89.7744V88.7148H199.161V89.5693C199.161 90.5173 198.842 91.2806 198.204 91.8594ZM210.563 90H204.329V89.3711L207.74 85.502C208.305 84.8503 208.697 84.3125 208.916 83.8887C209.135 83.4648 209.244 83.0524 209.244 82.6514C209.244 82.0225 209.06 81.5257 208.69 81.1611C208.321 80.792 207.813 80.6074 207.166 80.6074C206.496 80.6074 205.954 80.8216 205.539 81.25C205.129 81.6784 204.924 82.2344 204.924 82.918H204.11C204.11 82.3574 204.236 81.847 204.486 81.3867C204.742 80.9264 205.102 80.5664 205.566 80.3066C206.036 80.0423 206.569 79.9102 207.166 79.9102C208.077 79.9102 208.788 80.1494 209.299 80.6279C209.814 81.1064 210.071 81.7581 210.071 82.583C210.071 83.0479 209.925 83.556 209.634 84.1074C209.347 84.6589 208.839 85.347 208.109 86.1719L205.334 89.3096H210.563V90ZM218.097 85.8506C218.097 87.2542 217.839 88.3206 217.324 89.0498C216.809 89.7744 216.05 90.1367 215.048 90.1367C214.063 90.1367 213.309 89.7812 212.785 89.0703C212.261 88.3548 211.992 87.3158 211.979 85.9531V84.1689C211.979 82.7699 212.238 81.7103 212.758 80.9902C213.277 80.2702 214.036 79.9102 215.034 79.9102C216.019 79.9102 216.771 80.2588 217.29 80.9561C217.81 81.6488 218.078 82.6719 218.097 84.0254V85.8506ZM217.276 84.0664C217.276 82.9271 217.09 82.0658 216.716 81.4824C216.347 80.8991 215.786 80.6074 215.034 80.6074C214.296 80.6074 213.74 80.8923 213.366 81.4619C212.993 82.0316 212.801 82.8724 212.792 83.9844V85.9395C212.792 87.0742 212.983 87.9424 213.366 88.5439C213.754 89.1455 214.314 89.4463 215.048 89.4463C215.777 89.4463 216.328 89.1523 216.702 88.5645C217.08 87.9766 217.272 87.1152 217.276 85.9805V84.0664ZM226.095 90H219.86V89.3711L223.271 85.502C223.837 84.8503 224.229 84.3125 224.447 83.8887C224.666 83.4648 224.775 83.0524 224.775 82.6514C224.775 82.0225 224.591 81.5257 224.222 81.1611C223.853 80.792 223.344 80.6074 222.697 80.6074C222.027 80.6074 221.485 80.8216 221.07 81.25C220.66 81.6784 220.455 82.2344 220.455 82.918H219.642C219.642 82.3574 219.767 81.847 220.018 81.3867C220.273 80.9264 220.633 80.5664 221.098 80.3066C221.567 80.0423 222.1 79.9102 222.697 79.9102C223.609 79.9102 224.32 80.1494 224.83 80.6279C225.345 81.1064 225.603 81.7581 225.603 82.583C225.603 83.0479 225.457 83.556 225.165 84.1074C224.878 84.6589 224.37 85.347 223.641 86.1719L220.865 89.3096H226.095V90ZM231.434 90H230.613V81.0312L227.906 82.0361V81.2705L231.297 80.0127H231.434V90Z" fill="black"/>
</svg>
