<svg width="347" height="171" viewBox="0 0 347 171" fill="none" xmlns="http://www.w3.org/2000/svg">
<rect x="0.5" y="0.5" width="346" height="170" fill="white" stroke="black"/>
<path d="M67.1632 24.7333V40.1141H55.0396V24.7333H44.3955V64.8713H55.0396V49.3194H67.1632V64.8713H77.8072V24.7333H67.1632ZM95.6224 65.5576C104.9 65.5576 110.478 60.8119 110.478 52.9216C110.478 47.375 107.974 44.0019 101.884 41.4287L96.476 39.1416C93.858 37.9981 93.0612 37.1977 93.0612 35.7115C93.0612 33.9387 94.8256 32.7381 97.5576 32.7381C101.827 32.7381 105.299 34.8536 106.38 34.8536C107.006 34.8536 107.348 34.5679 107.576 33.9962L109.966 27.1349C105.754 25.0195 101.713 24.0475 97.33 24.0475C88.4504 24.0475 82.6448 28.7928 82.6448 35.8256C82.6448 41.3146 85.0924 44.9168 90.6136 47.375L96.9884 50.2339C99.0944 51.1488 99.9485 52.1208 99.9485 53.5504C99.9485 55.723 98.3544 56.8095 95.224 56.8095C90.3288 56.8095 86.1168 54.5794 85.206 54.5794C84.58 54.5794 84.0676 54.9796 83.8968 55.5514L81.9615 62.6987C87.1411 64.6997 91.2396 65.5576 95.6224 65.5576ZM115.772 64.8713H141.385V57.1526C141.385 56.1232 140.93 55.6659 139.905 55.6659H126.415V24.7333H115.772V64.8713ZM160.168 65.5576C171.267 65.5576 176.789 59.7253 176.789 48.0043V24.7333H166.145V47.0323C166.145 53.6075 164.494 56.1232 160.168 56.1232C155.842 56.1232 154.192 53.6075 154.192 47.0323V24.7333H143.548V48.0043C143.548 59.7253 149.069 65.5576 160.168 65.5576Z" fill="black"/>
<path d="M187.643 64.8713H196.973C197.363 64.8713 197.623 64.7145 197.623 64.2448V62.6523C197.623 62.2605 197.415 62.0254 196.973 62.0254H190.32V47.4835C190.32 46.9614 190.138 46.7787 189.644 46.7787H187.539C187.123 46.7787 186.915 47.0138 186.915 47.4576V64.1405C186.915 64.7145 187.174 64.8713 187.643 64.8713ZM203.86 65.1847C205.316 65.1847 206.771 64.6102 208.045 63.5659L208.071 64.3491C208.097 64.7145 208.279 64.8712 208.694 64.8712H210.436C210.904 64.8712 211.086 64.6626 211.086 64.1924V52.6267C211.086 52.2093 210.878 52.0266 210.41 52.0266H208.539C208.097 52.0266 207.889 52.2093 207.889 52.6267V61.1119C206.979 61.8951 205.732 62.4432 204.822 62.4432C203.47 62.4432 202.873 61.6864 202.873 59.8849V52.6267C202.873 52.2093 202.691 52.0266 202.223 52.0266H200.377C199.91 52.0266 199.676 52.2353 199.676 52.6267V60.433C199.676 63.5399 201.105 65.1847 203.86 65.1847ZM222.807 62.5216H217.193L222.911 54.1931C223.119 53.9061 223.171 53.645 223.171 53.332V52.5747C223.171 52.2877 223.067 52.0266 222.573 52.0266H214.23C213.892 52.0266 213.736 52.2353 213.736 52.5747V53.6974C213.736 54.2456 213.84 54.3763 214.334 54.3763H219.143L213.529 62.6783C213.295 63.0178 213.269 63.2005 213.269 63.5659V64.2448C213.269 64.6102 213.425 64.8713 213.892 64.8713H222.833C223.145 64.8713 223.327 64.6886 223.327 64.3751V62.9654C223.327 62.6259 223.119 62.5216 222.807 62.5216ZM230.942 65.1847C232.527 65.1847 234.243 64.8713 235.386 64.3491C235.75 64.1664 235.854 63.9577 235.75 63.5659L235.386 62.2086C235.308 61.8951 235.101 61.8167 234.711 61.9735C233.619 62.4172 232.605 62.6259 231.488 62.6259C229.434 62.6259 227.927 61.2686 227.719 59.18H235.439C236.114 59.18 236.296 59.0233 236.296 58.3968V58.0049C236.296 54.1152 234.243 51.7132 230.89 51.7132C226.991 51.7132 224.367 54.4023 224.367 58.3968C224.367 62.5999 226.862 65.1847 230.942 65.1847ZM227.771 57.0914C228.005 55.3158 229.175 54.1672 230.708 54.1672C232.138 54.1672 233.099 55.2115 233.151 56.8039V57.0914H227.771ZM239.389 64.8713H241.312C241.728 64.8713 241.936 64.6626 241.936 64.2188V55.812C242.56 55.0547 243.547 54.559 244.457 54.559C244.665 54.559 244.899 54.585 245.185 54.611C245.497 54.6634 245.653 54.559 245.705 54.2196L245.939 52.3396C245.964 52.131 245.939 52.0002 245.835 51.8959C245.731 51.7915 245.367 51.7132 244.977 51.7132C243.729 51.7132 242.768 52.2613 241.78 53.5407L241.754 52.6007C241.754 52.1829 241.546 52.0266 241.104 52.0266H239.415C238.947 52.0266 238.739 52.2093 238.739 52.7051V64.2188C238.739 64.6626 238.947 64.8713 239.389 64.8713ZM248.381 64.8713H250.305C250.772 64.8713 250.954 64.6626 250.954 64.2188V55.7596C251.838 55.0028 253.112 54.4542 254.047 54.4542C255.425 54.4542 256.049 55.2374 256.049 56.9871V64.1924C256.049 64.6626 256.256 64.8713 256.698 64.8713H258.622C259.063 64.8713 259.245 64.6626 259.245 64.1924V56.4385C259.245 53.332 257.816 51.7132 255.061 51.7132C253.579 51.7132 252.046 52.2877 250.798 53.332L250.772 52.5748C250.747 52.1829 250.538 52.0266 250.122 52.0266H248.407C247.966 52.0266 247.757 52.2353 247.757 52.6791V64.2448C247.757 64.6362 247.991 64.8713 248.381 64.8713Z" fill="black"/>
<path d="M187.643 42.8259H189.67C190.111 42.8259 190.32 42.6432 190.32 42.1735V34.8633H197.701V42.1735C197.701 42.6432 197.909 42.8259 198.403 42.8259H200.482C200.924 42.8259 201.105 42.6432 201.105 42.1735V25.3863C201.105 24.8901 200.898 24.7333 200.482 24.7333H198.403C197.961 24.7333 197.701 24.9161 197.701 25.3863V32.0435H190.32V25.3863C190.32 24.8901 190.086 24.7333 189.67 24.7333H187.643C187.227 24.7333 186.915 24.9161 186.915 25.3863V42.1735C186.915 42.6432 187.149 42.8259 187.643 42.8259ZM209.838 43.1394C213.711 43.1394 216.258 40.4503 216.258 36.3774C216.258 32.1478 213.945 29.6678 209.994 29.6678C206.096 29.6678 203.549 32.3045 203.549 36.3515C203.549 40.607 205.888 43.1394 209.838 43.1394ZM209.865 40.633C207.915 40.633 206.85 39.0925 206.85 36.299C206.85 33.6883 207.993 32.1742 209.968 32.1742C211.892 32.1742 212.957 33.6623 212.957 36.3774C212.957 39.0665 211.814 40.633 209.865 40.633ZM224.497 43.1394C225.978 43.1394 227.122 42.9043 228.317 42.3562C228.707 42.1735 228.759 42.0167 228.629 41.5729L228.265 40.2676C228.187 40.0325 228.005 39.9541 227.693 40.0584C226.628 40.5022 225.926 40.6589 224.939 40.6589C222.781 40.6589 221.508 39.0665 221.508 36.3514C221.508 33.7143 222.833 32.1742 225.068 32.1742C226.004 32.1742 226.862 32.3829 227.589 32.7483C227.901 32.931 228.109 32.8531 228.187 32.5137L228.525 31.1035C228.603 30.6862 228.551 30.5294 228.265 30.3987C227.225 29.9289 225.978 29.6678 224.73 29.6678C220.728 29.6678 218.207 32.331 218.207 36.5082C218.207 40.6854 220.52 43.1394 224.497 43.1394ZM231.54 42.8259H233.567C233.931 42.8259 234.139 42.6173 234.139 42.1735V33.7142C234.97 33.0094 236.27 32.4089 237.31 32.4089C238.895 32.4089 239.285 33.5056 239.285 34.9417V42.1735C239.285 42.6432 239.493 42.8259 239.961 42.8259H241.806C242.274 42.8259 242.482 42.6432 242.482 42.1735V34.3931C242.482 31.5213 241.26 29.6678 238.297 29.6678C236.92 29.6678 235.257 30.2424 234.139 31.1819V25.3339C234.139 24.8641 233.905 24.7333 233.489 24.7333H231.644C231.228 24.7333 230.942 24.8901 230.942 25.3339V42.1994C230.942 42.6432 231.176 42.8259 231.54 42.8259ZM249.109 43.1394C252.228 43.1394 254.281 41.5205 254.281 39.0406C254.281 37.526 253.371 36.2731 251.786 35.6466L249.395 34.6806C248.485 34.3148 248.147 33.9493 248.147 33.3229C248.147 32.592 248.797 32.0959 249.759 32.0959C250.85 32.0959 251.968 32.331 252.618 32.7223C252.904 32.8791 253.138 32.8007 253.242 32.4872L253.709 31.0775C253.814 30.7121 253.762 30.5813 253.424 30.4251C252.202 29.9029 250.928 29.6419 249.603 29.6419C246.822 29.6419 244.873 31.1819 244.873 33.3753C244.873 35.0196 245.861 36.325 247.55 36.952L249.629 37.7352C250.799 38.179 251.215 38.5968 251.215 39.3017C251.215 40.1632 250.435 40.7114 249.187 40.7114C248.226 40.7114 247.316 40.4763 245.912 39.8757C245.601 39.7454 245.392 39.8238 245.289 40.1368L244.821 41.5989C244.717 41.886 244.821 42.0951 245.107 42.2254C246.328 42.8259 247.758 43.1394 249.109 43.1394ZM262.208 43.1394C263.69 43.1394 264.833 42.9043 266.029 42.3562C266.419 42.1735 266.471 42.0167 266.341 41.5729L265.977 40.2676C265.899 40.0325 265.717 39.9541 265.405 40.0584C264.34 40.5022 263.638 40.6589 262.65 40.6589C260.493 40.6589 259.22 39.0665 259.22 36.3514C259.22 33.7143 260.545 32.1742 262.78 32.1742C263.716 32.1742 264.573 32.3829 265.301 32.7483C265.613 32.931 265.821 32.8531 265.899 32.5137L266.237 31.1035C266.315 30.6862 266.263 30.5294 265.977 30.3987C264.937 29.9289 263.69 29.6678 262.442 29.6678C258.44 29.6678 255.919 32.331 255.919 36.5082C255.919 40.6854 258.232 43.1394 262.208 43.1394ZM269.251 42.8259H271.279C271.643 42.8259 271.85 42.6173 271.85 42.1735V33.7142C272.682 33.0094 273.982 32.4089 275.021 32.4089C276.607 32.4089 276.997 33.5056 276.997 34.9417V42.1735C276.997 42.6432 277.205 42.8259 277.672 42.8259H279.518C279.985 42.8259 280.194 42.6432 280.194 42.1735V34.3931C280.194 31.5213 278.972 29.6678 276.009 29.6678C274.631 29.6678 272.968 30.2424 271.85 31.1819V25.3339C271.85 24.8641 271.617 24.7333 271.201 24.7333H269.356C268.94 24.7333 268.654 24.8901 268.654 25.3339V42.1994C268.654 42.6432 268.888 42.8259 269.251 42.8259ZM287.237 43.1394C288.693 43.1394 290.148 42.5648 291.421 41.5205L291.447 42.3038C291.473 42.6692 291.655 42.8259 292.071 42.8259H293.813C294.28 42.8259 294.462 42.6172 294.462 42.147V30.5813C294.462 30.164 294.254 29.9813 293.786 29.9813H291.915C291.473 29.9813 291.265 30.164 291.265 30.5813V39.0665C290.356 39.8497 289.108 40.3979 288.199 40.3979C286.847 40.3979 286.249 39.6411 286.249 37.8395V30.5813C286.249 30.164 286.067 29.9813 285.6 29.9813H283.754C283.286 29.9813 283.052 30.19 283.052 30.5813V38.3876C283.052 41.4946 284.482 43.1394 287.237 43.1394ZM298.179 42.8259H300.206C300.57 42.8259 300.778 42.6173 300.778 42.1735V25.3339C300.778 24.8641 300.544 24.7333 300.128 24.7333H298.283C297.867 24.7333 297.581 24.8901 297.581 25.3339V42.1994C297.581 42.6432 297.815 42.8259 298.179 42.8259ZM309.822 43.1394C311.408 43.1394 313.123 42.8259 314.267 42.3038C314.63 42.1211 314.735 41.9124 314.63 41.5206L314.267 40.1632C314.188 39.8498 313.981 39.7714 313.591 39.9281C312.499 40.3719 311.486 40.5806 310.368 40.5806C308.315 40.5806 306.807 39.2233 306.6 37.1347H314.319C314.994 37.1347 315.176 36.9779 315.176 36.3515V35.9596C315.176 32.0699 313.123 29.6678 309.77 29.6678C305.872 29.6678 303.247 32.3569 303.247 36.3515C303.247 40.5546 305.742 43.1394 309.822 43.1394ZM306.651 35.0461C306.885 33.2705 308.055 32.1218 309.588 32.1218C311.018 32.1218 311.98 33.1661 312.031 34.7585V35.0461H306.651Z" fill="black"/>
<path d="M125.592 122H116.821V120.26L120.961 115.848C121.529 115.227 121.948 114.685 122.217 114.222C122.493 113.759 122.63 113.319 122.63 112.903C122.63 112.335 122.487 111.89 122.2 111.567C121.913 111.239 121.503 111.075 120.969 111.075C120.395 111.075 119.941 111.274 119.607 111.673C119.279 112.065 119.115 112.584 119.115 113.229H116.566C116.566 112.449 116.751 111.737 117.12 111.093C117.495 110.448 118.022 109.944 118.702 109.581C119.381 109.212 120.152 109.027 121.013 109.027C122.332 109.027 123.354 109.344 124.081 109.977C124.813 110.609 125.179 111.503 125.179 112.657C125.179 113.29 125.015 113.935 124.687 114.591C124.359 115.247 123.796 116.012 123 116.885L120.09 119.952H125.592V122ZM129.049 122V109.203H132.987C134.112 109.203 135.117 109.458 136.001 109.968C136.892 110.472 137.586 111.192 138.084 112.13C138.583 113.062 138.832 114.122 138.832 115.312V115.9C138.832 117.09 138.585 118.147 138.093 119.073C137.607 119.999 136.918 120.717 136.028 121.227C135.137 121.736 134.132 121.994 133.013 122H129.049ZM131.686 111.339V119.882H132.96C133.992 119.882 134.78 119.545 135.325 118.871C135.87 118.197 136.148 117.233 136.16 115.979V115.303C136.16 114.002 135.89 113.018 135.351 112.35C134.812 111.676 134.024 111.339 132.987 111.339H131.686ZM155.703 119.363H151.08L150.201 122H147.398L152.161 109.203H154.605L159.395 122H156.591L155.703 119.363ZM151.792 117.228H154.991L153.383 112.438L151.792 117.228ZM163.959 112.49L164.038 113.589C164.718 112.739 165.629 112.314 166.772 112.314C167.779 112.314 168.529 112.61 169.022 113.202C169.514 113.794 169.766 114.679 169.777 115.856V122H167.237V115.918C167.237 115.379 167.12 114.989 166.886 114.749C166.651 114.503 166.262 114.38 165.717 114.38C165.002 114.38 164.466 114.685 164.109 115.294V122H161.568V112.49H163.959ZM176.012 122H173.463V112.49H176.012V122ZM173.313 110.029C173.313 109.648 173.439 109.335 173.691 109.089C173.949 108.843 174.298 108.72 174.737 108.72C175.171 108.72 175.517 108.843 175.774 109.089C176.032 109.335 176.161 109.648 176.161 110.029C176.161 110.416 176.029 110.732 175.766 110.979C175.508 111.225 175.165 111.348 174.737 111.348C174.31 111.348 173.964 111.225 173.7 110.979C173.442 110.732 173.313 110.416 173.313 110.029ZM182.114 112.49L182.193 113.554C182.867 112.728 183.778 112.314 184.927 112.314C186.151 112.314 186.992 112.798 187.449 113.765C188.117 112.798 189.069 112.314 190.306 112.314C191.337 112.314 192.104 112.616 192.608 113.22C193.112 113.817 193.364 114.72 193.364 115.927V122H190.815V115.936C190.815 115.396 190.71 115.004 190.499 114.758C190.288 114.506 189.916 114.38 189.383 114.38C188.621 114.38 188.094 114.743 187.801 115.47L187.809 122H185.269V115.944C185.269 115.394 185.161 114.995 184.944 114.749C184.727 114.503 184.358 114.38 183.837 114.38C183.116 114.38 182.595 114.679 182.272 115.276V122H179.732V112.49H182.114ZM202.455 122C202.338 121.771 202.253 121.487 202.2 121.147C201.585 121.833 200.785 122.176 199.801 122.176C198.869 122.176 198.095 121.906 197.48 121.367C196.871 120.828 196.566 120.148 196.566 119.328C196.566 118.32 196.938 117.547 197.682 117.008C198.432 116.469 199.513 116.196 200.926 116.19H202.094V115.646C202.094 115.206 201.98 114.854 201.752 114.591C201.529 114.327 201.175 114.195 200.688 114.195C200.26 114.195 199.924 114.298 199.677 114.503C199.437 114.708 199.317 114.989 199.317 115.347H196.777C196.777 114.796 196.947 114.286 197.287 113.817C197.627 113.349 198.107 112.982 198.728 112.719C199.349 112.449 200.047 112.314 200.82 112.314C201.992 112.314 202.921 112.61 203.606 113.202C204.298 113.788 204.643 114.614 204.643 115.681V119.803C204.649 120.705 204.775 121.388 205.021 121.851V122H202.455ZM200.354 120.233C200.729 120.233 201.075 120.151 201.391 119.987C201.708 119.817 201.942 119.592 202.094 119.311V117.676H201.145C199.874 117.676 199.197 118.115 199.115 118.994L199.106 119.144C199.106 119.46 199.218 119.721 199.44 119.926C199.663 120.131 199.968 120.233 200.354 120.233ZM211.256 110.152V112.49H212.881V114.354H211.256V119.1C211.256 119.451 211.323 119.703 211.458 119.855C211.592 120.008 211.85 120.084 212.231 120.084C212.512 120.084 212.761 120.063 212.978 120.022V121.947C212.48 122.1 211.967 122.176 211.44 122.176C209.659 122.176 208.751 121.276 208.715 119.478V114.354H207.327V112.49H208.715V110.152H211.256ZM215.257 117.157C215.257 116.214 215.439 115.373 215.802 114.635C216.166 113.896 216.687 113.325 217.367 112.921C218.052 112.517 218.846 112.314 219.749 112.314C221.032 112.314 222.078 112.707 222.886 113.492C223.701 114.277 224.155 115.344 224.249 116.691L224.266 117.342C224.266 118.801 223.859 119.973 223.044 120.857C222.23 121.736 221.137 122.176 219.766 122.176C218.395 122.176 217.299 121.736 216.479 120.857C215.665 119.979 215.257 118.783 215.257 117.271V117.157ZM217.797 117.342C217.797 118.244 217.967 118.936 218.307 119.416C218.647 119.891 219.133 120.128 219.766 120.128C220.381 120.128 220.862 119.894 221.208 119.425C221.553 118.95 221.726 118.194 221.726 117.157C221.726 116.272 221.553 115.587 221.208 115.101C220.862 114.614 220.376 114.371 219.749 114.371C219.127 114.371 218.647 114.614 218.307 115.101C217.967 115.581 217.797 116.328 217.797 117.342ZM232.794 114.872C232.449 114.825 232.144 114.802 231.88 114.802C230.919 114.802 230.289 115.127 229.991 115.777V122H227.451V112.49H229.85L229.92 113.624C230.43 112.751 231.136 112.314 232.038 112.314C232.32 112.314 232.583 112.353 232.829 112.429L232.794 114.872Z" fill="black"/>
<path d="M37.3376 146.414H31.528L30.2097 150H29.0759L33.9186 137.203H34.947L39.7897 150H38.6647L37.3376 146.414ZM31.862 145.491H36.9948L34.4284 138.521L31.862 145.491ZM49.065 148.796C48.4322 149.716 47.4215 150.176 46.0328 150.176C45.0191 150.176 44.2486 149.883 43.7213 149.297C43.1939 148.705 42.9244 147.832 42.9127 146.678V140.49H43.9586V146.546C43.9586 148.356 44.691 149.262 46.1558 149.262C47.6793 149.262 48.6431 148.632 49.0474 147.372V140.49H50.1021V150H49.0826L49.065 148.796ZM54.0424 145.157C54.0424 143.669 54.3706 142.491 55.0268 141.624C55.6889 140.751 56.5854 140.314 57.7163 140.314C59.0112 140.314 59.9956 140.83 60.6694 141.861L60.7221 140.49H61.7065V149.807C61.7065 151.031 61.3637 152.001 60.6782 152.716C59.9926 153.431 59.0639 153.788 57.892 153.788C57.2299 153.788 56.5971 153.639 55.9936 153.34C55.3959 153.047 54.9243 152.654 54.5786 152.162L55.1674 151.529C55.9116 152.443 56.7963 152.9 57.8217 152.9C58.7006 152.9 59.3862 152.64 59.8784 152.118C60.3706 151.603 60.6254 150.885 60.643 149.965V148.77C59.9692 149.707 58.9877 150.176 57.6987 150.176C56.5971 150.176 55.7124 149.736 55.0444 148.857C54.3764 147.979 54.0424 146.792 54.0424 145.298V145.157ZM55.1059 145.342C55.1059 146.555 55.3491 147.513 55.8354 148.216C56.3217 148.913 57.0073 149.262 57.892 149.262C59.187 149.262 60.104 148.682 60.643 147.521V143.101C60.3969 142.491 60.0424 142.028 59.5795 141.712C59.1166 141.39 58.56 141.229 57.9096 141.229C57.0249 141.229 56.3364 141.577 55.8442 142.274C55.352 142.966 55.1059 143.988 55.1059 145.342ZM72.1859 148.796C71.5531 149.716 70.5423 150.176 69.1536 150.176C68.14 150.176 67.3695 149.883 66.8421 149.297C66.3148 148.705 66.0452 147.832 66.0335 146.678V140.49H67.0794V146.546C67.0794 148.356 67.8118 149.262 69.2767 149.262C70.8001 149.262 71.764 148.632 72.1683 147.372V140.49H73.223V150H72.2034L72.1859 148.796ZM83.2805 147.583C83.2805 147.062 83.0695 146.643 82.6477 146.326C82.2316 146.01 81.6018 145.764 80.758 145.588C79.9143 145.406 79.258 145.201 78.7893 144.973C78.3264 144.738 77.9807 144.454 77.7522 144.12C77.5295 143.786 77.4182 143.382 77.4182 142.907C77.4182 142.157 77.7316 141.539 78.3586 141.053C78.9856 140.561 79.7883 140.314 80.7668 140.314C81.8274 140.314 82.677 140.578 83.3156 141.105C83.9602 141.627 84.2824 142.31 84.2824 143.153H83.2277C83.2277 142.597 82.9934 142.134 82.5246 141.765C82.0617 141.396 81.4758 141.211 80.7668 141.211C80.0754 141.211 79.5188 141.366 79.0969 141.677C78.6809 141.981 78.4729 142.38 78.4729 142.872C78.4729 143.347 78.6457 143.716 78.9914 143.979C79.343 144.237 79.9787 144.475 80.8986 144.691C81.8244 144.908 82.5158 145.14 82.9729 145.386C83.4357 145.632 83.7785 145.928 84.0012 146.273C84.2238 146.619 84.3352 147.038 84.3352 147.53C84.3352 148.333 84.01 148.975 83.3596 149.455C82.715 149.936 81.8713 150.176 80.8283 150.176C79.7209 150.176 78.8215 149.909 78.1301 149.376C77.4445 148.837 77.1018 148.157 77.1018 147.337H78.1565C78.1975 147.952 78.4553 148.433 78.9299 148.778C79.4104 149.118 80.0432 149.288 80.8283 149.288C81.5607 149.288 82.1525 149.127 82.6037 148.805C83.0549 148.482 83.2805 148.075 83.2805 147.583ZM89.963 138.056V140.49H91.9317V141.352H89.963V147.688C89.963 148.216 90.0567 148.608 90.2442 148.866C90.4376 149.124 90.7569 149.253 91.2022 149.253C91.378 149.253 91.6622 149.224 92.0548 149.165L92.0987 150.026C91.8233 150.126 91.4483 150.176 90.9737 150.176C90.253 150.176 89.7286 149.968 89.4005 149.552C89.0723 149.13 88.9083 148.512 88.9083 147.697V141.352H87.1593V140.49H88.9083V138.056H89.963ZM95.6347 149.367C95.6347 149.162 95.6992 148.989 95.8281 148.849C95.9629 148.702 96.1474 148.629 96.3818 148.629C96.6162 148.629 96.8008 148.702 96.9355 148.849C97.0703 148.989 97.1377 149.162 97.1377 149.367C97.1377 149.572 97.0703 149.742 96.9355 149.877C96.8008 150.006 96.6162 150.07 96.3818 150.07C96.1474 150.07 95.9629 150.006 95.8281 149.877C95.6992 149.742 95.6347 149.572 95.6347 149.367ZM115.504 150H107.488V149.191L111.874 144.217C112.6 143.379 113.104 142.688 113.385 142.143C113.667 141.598 113.807 141.067 113.807 140.552C113.807 139.743 113.57 139.104 113.095 138.636C112.621 138.161 111.968 137.924 111.135 137.924C110.274 137.924 109.577 138.199 109.044 138.75C108.516 139.301 108.253 140.016 108.253 140.895H107.207C107.207 140.174 107.368 139.518 107.69 138.926C108.018 138.334 108.481 137.871 109.079 137.537C109.682 137.197 110.368 137.027 111.135 137.027C112.307 137.027 113.221 137.335 113.878 137.95C114.54 138.565 114.871 139.403 114.871 140.464C114.871 141.062 114.683 141.715 114.308 142.424C113.939 143.133 113.286 144.018 112.348 145.078L108.78 149.112H115.504V150ZM126.809 144.665C126.809 146.47 126.478 147.841 125.816 148.778C125.154 149.71 124.178 150.176 122.889 150.176C121.624 150.176 120.654 149.719 119.98 148.805C119.306 147.885 118.961 146.549 118.943 144.797V142.503C118.943 140.704 119.277 139.342 119.945 138.416C120.613 137.49 121.588 137.027 122.872 137.027C124.137 137.027 125.104 137.476 125.772 138.372C126.44 139.263 126.786 140.578 126.809 142.318V144.665ZM125.755 142.371C125.755 140.906 125.514 139.799 125.034 139.049C124.559 138.299 123.838 137.924 122.872 137.924C121.922 137.924 121.208 138.29 120.727 139.022C120.247 139.755 120.001 140.836 119.989 142.266V144.779C119.989 146.238 120.235 147.354 120.727 148.128C121.225 148.901 121.946 149.288 122.889 149.288C123.827 149.288 124.536 148.91 125.016 148.154C125.503 147.398 125.749 146.291 125.755 144.832V142.371ZM138.712 150H130.697V149.191L135.083 144.217C135.809 143.379 136.313 142.688 136.594 142.143C136.875 141.598 137.016 141.067 137.016 140.552C137.016 139.743 136.779 139.104 136.304 138.636C135.83 138.161 135.176 137.924 134.344 137.924C133.483 137.924 132.786 138.199 132.252 138.75C131.725 139.301 131.461 140.016 131.461 140.895H130.416C130.416 140.174 130.577 139.518 130.899 138.926C131.227 138.334 131.69 137.871 132.288 137.537C132.891 137.197 133.577 137.027 134.344 137.027C135.516 137.027 136.43 137.335 137.086 137.95C137.749 138.565 138.08 139.403 138.08 140.464C138.08 141.062 137.892 141.715 137.517 142.424C137.148 143.133 136.495 144.018 135.557 145.078L131.989 149.112H138.712V150ZM147.197 150H146.142V138.469L142.661 139.761V138.776L147.021 137.159H147.197V150ZM159.92 151.099H158.962L164.306 137.203H165.255L159.92 151.099ZM182.329 146.854C182.329 146.145 182.08 145.585 181.582 145.175C181.084 144.759 180.173 144.366 178.849 143.997C177.524 143.622 176.558 143.215 175.948 142.775C175.081 142.154 174.647 141.34 174.647 140.332C174.647 139.354 175.049 138.56 175.851 137.95C176.66 137.335 177.691 137.027 178.945 137.027C179.795 137.027 180.554 137.191 181.222 137.52C181.895 137.848 182.417 138.305 182.786 138.891C183.155 139.477 183.34 140.13 183.34 140.851H182.25C182.25 139.978 181.951 139.277 181.353 138.75C180.756 138.217 179.953 137.95 178.945 137.95C177.967 137.95 177.187 138.17 176.607 138.609C176.027 139.043 175.737 139.611 175.737 140.314C175.737 140.965 175.998 141.495 176.519 141.905C177.041 142.315 177.876 142.679 179.024 142.995C180.173 143.306 181.043 143.631 181.635 143.971C182.226 144.305 182.672 144.706 182.971 145.175C183.269 145.644 183.419 146.197 183.419 146.836C183.419 147.844 183.015 148.652 182.206 149.262C181.403 149.871 180.343 150.176 179.024 150.176C178.122 150.176 177.293 150.015 176.537 149.692C175.787 149.37 175.216 148.919 174.823 148.339C174.436 147.759 174.243 147.094 174.243 146.344H175.324C175.324 147.246 175.661 147.958 176.335 148.479C177.009 149.001 177.905 149.262 179.024 149.262C180.02 149.262 180.82 149.042 181.424 148.603C182.027 148.163 182.329 147.58 182.329 146.854ZM190.813 150.176C190.005 150.176 189.272 149.977 188.616 149.578C187.966 149.18 187.459 148.626 187.095 147.917C186.732 147.202 186.551 146.402 186.551 145.518V145.14C186.551 144.226 186.726 143.402 187.078 142.67C187.435 141.938 187.93 141.363 188.563 140.947C189.196 140.525 189.882 140.314 190.62 140.314C191.774 140.314 192.688 140.71 193.362 141.501C194.042 142.286 194.382 143.361 194.382 144.727V145.315H187.596V145.518C187.596 146.596 187.904 147.495 188.519 148.216C189.14 148.931 189.92 149.288 190.857 149.288C191.42 149.288 191.915 149.186 192.343 148.98C192.776 148.775 193.169 148.447 193.52 147.996L194.179 148.497C193.406 149.616 192.284 150.176 190.813 150.176ZM190.62 141.211C189.829 141.211 189.161 141.501 188.616 142.081C188.077 142.661 187.749 143.44 187.632 144.419H193.336V144.305C193.306 143.391 193.046 142.646 192.553 142.072C192.061 141.498 191.417 141.211 190.62 141.211ZM205.696 145.342C205.696 146.824 205.368 148.002 204.712 148.875C204.055 149.742 203.176 150.176 202.075 150.176C200.774 150.176 199.778 149.719 199.087 148.805V153.656H198.041V140.49H199.016L199.069 141.835C199.755 140.821 200.748 140.314 202.048 140.314C203.185 140.314 204.076 140.745 204.72 141.606C205.371 142.468 205.696 143.663 205.696 145.192V145.342ZM204.641 145.157C204.641 143.944 204.392 142.986 203.894 142.283C203.396 141.58 202.702 141.229 201.811 141.229C201.167 141.229 200.613 141.384 200.15 141.694C199.687 142.005 199.333 142.456 199.087 143.048V147.609C199.339 148.154 199.699 148.57 200.168 148.857C200.636 149.145 201.19 149.288 201.829 149.288C202.714 149.288 203.402 148.937 203.894 148.233C204.392 147.524 204.641 146.499 204.641 145.157ZM211.289 138.056V140.49H213.257V141.352H211.289V147.688C211.289 148.216 211.382 148.608 211.57 148.866C211.763 149.124 212.083 149.253 212.528 149.253C212.704 149.253 212.988 149.224 213.38 149.165L213.424 150.026C213.149 150.126 212.774 150.176 212.299 150.176C211.579 150.176 211.054 149.968 210.726 149.552C210.398 149.13 210.234 148.512 210.234 147.697V141.352H208.485V140.49H210.234V138.056H211.289ZM220.74 150.176C219.931 150.176 219.199 149.977 218.542 149.578C217.892 149.18 217.385 148.626 217.022 147.917C216.659 147.202 216.477 146.402 216.477 145.518V145.14C216.477 144.226 216.653 143.402 217.004 142.67C217.362 141.938 217.857 141.363 218.49 140.947C219.122 140.525 219.808 140.314 220.546 140.314C221.701 140.314 222.615 140.71 223.288 141.501C223.968 142.286 224.308 143.361 224.308 144.727V145.315H217.523V145.518C217.523 146.596 217.83 147.495 218.446 148.216C219.067 148.931 219.846 149.288 220.784 149.288C221.346 149.288 221.841 149.186 222.269 148.98C222.703 148.775 223.095 148.447 223.447 147.996L224.106 148.497C223.332 149.616 222.21 150.176 220.74 150.176ZM220.546 141.211C219.755 141.211 219.087 141.501 218.542 142.081C218.003 142.661 217.675 143.44 217.558 144.419H223.262V144.305C223.233 143.391 222.972 142.646 222.48 142.072C221.988 141.498 221.343 141.211 220.546 141.211ZM228.934 140.49L228.969 142.037C229.321 141.463 229.76 141.032 230.287 140.745C230.815 140.458 231.401 140.314 232.045 140.314C233.545 140.314 234.497 140.93 234.902 142.16C235.241 141.568 235.696 141.114 236.264 140.798C236.832 140.476 237.459 140.314 238.145 140.314C240.184 140.314 241.224 141.428 241.265 143.654V150H240.21V143.733C240.204 142.884 240.02 142.254 239.657 141.844C239.299 141.434 238.713 141.229 237.899 141.229C237.143 141.24 236.504 141.486 235.983 141.967C235.461 142.441 235.171 143.021 235.113 143.707V150H234.058V143.654C234.052 142.84 233.859 142.233 233.478 141.835C233.103 141.431 232.523 141.229 231.738 141.229C231.075 141.229 230.507 141.419 230.033 141.8C229.558 142.175 229.206 142.734 228.978 143.479V150H227.923V140.49H228.934ZM253.212 145.342C253.212 146.824 252.884 148.002 252.228 148.875C251.571 149.742 250.69 150.176 249.582 150.176C248.258 150.176 247.256 149.684 246.576 148.699L246.532 150H245.548V136.5H246.594V141.87C247.262 140.833 248.252 140.314 249.565 140.314C250.69 140.314 251.577 140.745 252.228 141.606C252.884 142.462 253.212 143.654 253.212 145.184V145.342ZM252.157 145.157C252.157 143.903 251.914 142.937 251.428 142.257C250.942 141.571 250.256 141.229 249.371 141.229C248.697 141.229 248.126 141.396 247.657 141.729C247.189 142.058 246.834 142.541 246.594 143.18V147.469C247.121 148.664 248.053 149.262 249.389 149.262C250.256 149.262 250.933 148.919 251.419 148.233C251.911 147.548 252.157 146.522 252.157 145.157ZM260.844 150.176C260.035 150.176 259.303 149.977 258.647 149.578C257.996 149.18 257.489 148.626 257.126 147.917C256.763 147.202 256.581 146.402 256.581 145.518V145.14C256.581 144.226 256.757 143.402 257.108 142.67C257.466 141.938 257.961 141.363 258.594 140.947C259.227 140.525 259.912 140.314 260.65 140.314C261.805 140.314 262.719 140.71 263.393 141.501C264.072 142.286 264.412 143.361 264.412 144.727V145.315H257.627V145.518C257.627 146.596 257.935 147.495 258.55 148.216C259.171 148.931 259.95 149.288 260.888 149.288C261.45 149.288 261.945 149.186 262.373 148.98C262.807 148.775 263.199 148.447 263.551 147.996L264.21 148.497C263.437 149.616 262.314 150.176 260.844 150.176ZM260.65 141.211C259.859 141.211 259.191 141.501 258.647 142.081C258.107 142.661 257.779 143.44 257.662 144.419H263.366V144.305C263.337 143.391 263.076 142.646 262.584 142.072C262.092 141.498 261.447 141.211 260.65 141.211ZM272.475 141.387C272.252 141.346 272.015 141.325 271.763 141.325C271.106 141.325 270.55 141.51 270.093 141.879C269.642 142.242 269.319 142.772 269.126 143.47V150H268.08V140.49H269.108L269.126 142.002C269.683 140.877 270.576 140.314 271.807 140.314C272.1 140.314 272.331 140.353 272.501 140.429L272.475 141.387ZM289.61 150H281.594V149.191L285.98 144.217C286.707 143.379 287.211 142.688 287.492 142.143C287.773 141.598 287.914 141.067 287.914 140.552C287.914 139.743 287.676 139.104 287.202 138.636C286.727 138.161 286.074 137.924 285.242 137.924C284.381 137.924 283.683 138.199 283.15 138.75C282.623 139.301 282.359 140.016 282.359 140.895H281.313C281.313 140.174 281.474 139.518 281.797 138.926C282.125 138.334 282.588 137.871 283.185 137.537C283.789 137.197 284.474 137.027 285.242 137.027C286.414 137.027 287.328 137.335 287.984 137.95C288.646 138.565 288.977 139.403 288.977 140.464C288.977 141.062 288.79 141.715 288.415 142.424C288.046 143.133 287.392 144.018 286.455 145.078L282.886 149.112H289.61V150ZM300.916 144.665C300.916 146.47 300.585 147.841 299.922 148.778C299.26 149.71 298.285 150.176 296.996 150.176C295.73 150.176 294.76 149.719 294.086 148.805C293.413 147.885 293.067 146.549 293.049 144.797V142.503C293.049 140.704 293.383 139.342 294.051 138.416C294.719 137.49 295.695 137.027 296.978 137.027C298.244 137.027 299.211 137.476 299.878 138.372C300.546 139.263 300.892 140.578 300.916 142.318V144.665ZM299.861 142.371C299.861 140.906 299.621 139.799 299.14 139.049C298.666 138.299 297.945 137.924 296.978 137.924C296.029 137.924 295.314 138.29 294.834 139.022C294.353 139.755 294.107 140.836 294.095 142.266V144.779C294.095 146.238 294.341 147.354 294.834 148.128C295.332 148.901 296.052 149.288 296.996 149.288C297.933 149.288 298.642 148.91 299.123 148.154C299.609 147.398 299.855 146.291 299.861 144.832V142.371ZM312.819 150H304.803V149.191L309.189 144.217C309.915 143.379 310.419 142.688 310.701 142.143C310.982 141.598 311.122 141.067 311.122 140.552C311.122 139.743 310.885 139.104 310.411 138.636C309.936 138.161 309.283 137.924 308.451 137.924C307.589 137.924 306.892 138.199 306.359 138.75C305.831 139.301 305.568 140.016 305.568 140.895H304.522C304.522 140.174 304.683 139.518 305.005 138.926C305.333 138.334 305.796 137.871 306.394 137.537C306.997 137.197 307.683 137.027 308.451 137.027C309.622 137.027 310.537 137.335 311.193 137.95C311.855 138.565 312.186 139.403 312.186 140.464C312.186 141.062 311.998 141.715 311.623 142.424C311.254 143.133 310.601 144.018 309.664 145.078L306.095 149.112H312.819V150ZM321.303 150H320.248V138.469L316.768 139.761V138.776L321.127 137.159H321.303V150Z" fill="black"/>
</svg>
