<svg width="347" height="171" viewBox="0 0 347 171" fill="none" xmlns="http://www.w3.org/2000/svg">
<rect x="0.5" y="0.5" width="346" height="170" fill="white" stroke="black"/>
<path d="M67.1632 24.7333V40.1141H55.0396V24.7333H44.3955V64.8713H55.0396V49.3194H67.1632V64.8713H77.8072V24.7333H67.1632ZM95.6224 65.5576C104.9 65.5576 110.478 60.8119 110.478 52.9216C110.478 47.375 107.974 44.0019 101.884 41.4287L96.476 39.1416C93.858 37.9981 93.0612 37.1977 93.0612 35.7115C93.0612 33.9387 94.8256 32.7381 97.5576 32.7381C101.827 32.7381 105.299 34.8536 106.38 34.8536C107.006 34.8536 107.348 34.5679 107.576 33.9962L109.966 27.1349C105.754 25.0195 101.713 24.0475 97.33 24.0475C88.4504 24.0475 82.6448 28.7928 82.6448 35.8256C82.6448 41.3146 85.0924 44.9168 90.6136 47.375L96.9884 50.2339C99.0944 51.1488 99.9485 52.1208 99.9485 53.5504C99.9485 55.723 98.3544 56.8095 95.224 56.8095C90.3288 56.8095 86.1168 54.5794 85.206 54.5794C84.58 54.5794 84.0676 54.9796 83.8968 55.5514L81.9615 62.6987C87.1411 64.6997 91.2396 65.5576 95.6224 65.5576ZM115.772 64.8713H141.385V57.1526C141.385 56.1232 140.93 55.6659 139.905 55.6659H126.415V24.7333H115.772V64.8713ZM160.168 65.5576C171.267 65.5576 176.789 59.7253 176.789 48.0043V24.7333H166.145V47.0323C166.145 53.6075 164.494 56.1232 160.168 56.1232C155.842 56.1232 154.192 53.6075 154.192 47.0323V24.7333H143.548V48.0043C143.548 59.7253 149.069 65.5576 160.168 65.5576Z" fill="black"/>
<path d="M187.643 64.8713H196.973C197.363 64.8713 197.623 64.7145 197.623 64.2448V62.6523C197.623 62.2605 197.415 62.0254 196.973 62.0254H190.32V47.4835C190.32 46.9614 190.138 46.7787 189.644 46.7787H187.539C187.123 46.7787 186.915 47.0138 186.915 47.4576V64.1405C186.915 64.7145 187.174 64.8713 187.643 64.8713ZM203.86 65.1847C205.316 65.1847 206.771 64.6102 208.045 63.5659L208.071 64.3491C208.097 64.7145 208.279 64.8712 208.694 64.8712H210.436C210.904 64.8712 211.086 64.6626 211.086 64.1924V52.6267C211.086 52.2093 210.878 52.0266 210.41 52.0266H208.539C208.097 52.0266 207.889 52.2093 207.889 52.6267V61.1119C206.979 61.8951 205.732 62.4432 204.822 62.4432C203.47 62.4432 202.873 61.6864 202.873 59.8849V52.6267C202.873 52.2093 202.691 52.0266 202.223 52.0266H200.377C199.91 52.0266 199.676 52.2353 199.676 52.6267V60.433C199.676 63.5399 201.105 65.1847 203.86 65.1847ZM222.807 62.5216H217.193L222.911 54.1931C223.119 53.9061 223.171 53.645 223.171 53.332V52.5747C223.171 52.2877 223.067 52.0266 222.573 52.0266H214.23C213.892 52.0266 213.736 52.2353 213.736 52.5747V53.6974C213.736 54.2456 213.84 54.3763 214.334 54.3763H219.143L213.529 62.6783C213.295 63.0178 213.269 63.2005 213.269 63.5659V64.2448C213.269 64.6102 213.425 64.8713 213.892 64.8713H222.833C223.145 64.8713 223.327 64.6886 223.327 64.3751V62.9654C223.327 62.6259 223.119 62.5216 222.807 62.5216ZM230.942 65.1847C232.527 65.1847 234.243 64.8713 235.386 64.3491C235.75 64.1664 235.854 63.9577 235.75 63.5659L235.386 62.2086C235.308 61.8951 235.101 61.8167 234.711 61.9735C233.619 62.4172 232.605 62.6259 231.488 62.6259C229.434 62.6259 227.927 61.2686 227.719 59.18H235.439C236.114 59.18 236.296 59.0233 236.296 58.3968V58.0049C236.296 54.1152 234.243 51.7132 230.89 51.7132C226.991 51.7132 224.367 54.4023 224.367 58.3968C224.367 62.5999 226.862 65.1847 230.942 65.1847ZM227.771 57.0914C228.005 55.3158 229.175 54.1672 230.708 54.1672C232.138 54.1672 233.099 55.2115 233.151 56.8039V57.0914H227.771ZM239.389 64.8713H241.312C241.728 64.8713 241.936 64.6626 241.936 64.2188V55.812C242.56 55.0547 243.547 54.559 244.457 54.559C244.665 54.559 244.899 54.585 245.185 54.611C245.497 54.6634 245.653 54.559 245.705 54.2196L245.939 52.3396C245.964 52.131 245.939 52.0002 245.835 51.8959C245.731 51.7915 245.367 51.7132 244.977 51.7132C243.729 51.7132 242.768 52.2613 241.78 53.5407L241.754 52.6007C241.754 52.1829 241.546 52.0266 241.104 52.0266H239.415C238.947 52.0266 238.739 52.2093 238.739 52.7051V64.2188C238.739 64.6626 238.947 64.8713 239.389 64.8713ZM248.381 64.8713H250.305C250.772 64.8713 250.954 64.6626 250.954 64.2188V55.7596C251.838 55.0028 253.112 54.4542 254.047 54.4542C255.425 54.4542 256.049 55.2374 256.049 56.9871V64.1924C256.049 64.6626 256.256 64.8713 256.698 64.8713H258.622C259.063 64.8713 259.245 64.6626 259.245 64.1924V56.4385C259.245 53.332 257.816 51.7132 255.061 51.7132C253.579 51.7132 252.046 52.2877 250.798 53.332L250.772 52.5748C250.747 52.1829 250.538 52.0266 250.122 52.0266H248.407C247.966 52.0266 247.757 52.2353 247.757 52.6791V64.2448C247.757 64.6362 247.991 64.8713 248.381 64.8713Z" fill="black"/>
<path d="M187.643 42.8259H189.67C190.111 42.8259 190.32 42.6432 190.32 42.1735V34.8633H197.701V42.1735C197.701 42.6432 197.909 42.8259 198.403 42.8259H200.482C200.924 42.8259 201.105 42.6432 201.105 42.1735V25.3863C201.105 24.8901 200.898 24.7333 200.482 24.7333H198.403C197.961 24.7333 197.701 24.9161 197.701 25.3863V32.0435H190.32V25.3863C190.32 24.8901 190.086 24.7333 189.67 24.7333H187.643C187.227 24.7333 186.915 24.9161 186.915 25.3863V42.1735C186.915 42.6432 187.149 42.8259 187.643 42.8259ZM209.838 43.1394C213.711 43.1394 216.258 40.4503 216.258 36.3774C216.258 32.1478 213.945 29.6678 209.994 29.6678C206.096 29.6678 203.549 32.3045 203.549 36.3515C203.549 40.607 205.888 43.1394 209.838 43.1394ZM209.865 40.633C207.915 40.633 206.85 39.0925 206.85 36.299C206.85 33.6883 207.993 32.1742 209.968 32.1742C211.892 32.1742 212.957 33.6623 212.957 36.3774C212.957 39.0665 211.814 40.633 209.865 40.633ZM224.497 43.1394C225.978 43.1394 227.122 42.9043 228.317 42.3562C228.707 42.1735 228.759 42.0167 228.629 41.5729L228.265 40.2676C228.187 40.0325 228.005 39.9541 227.693 40.0584C226.628 40.5022 225.926 40.6589 224.939 40.6589C222.781 40.6589 221.508 39.0665 221.508 36.3514C221.508 33.7143 222.833 32.1742 225.068 32.1742C226.004 32.1742 226.862 32.3829 227.589 32.7483C227.901 32.931 228.109 32.8531 228.187 32.5137L228.525 31.1035C228.603 30.6862 228.551 30.5294 228.265 30.3987C227.225 29.9289 225.978 29.6678 224.73 29.6678C220.728 29.6678 218.207 32.331 218.207 36.5082C218.207 40.6854 220.52 43.1394 224.497 43.1394ZM231.54 42.8259H233.567C233.931 42.8259 234.139 42.6173 234.139 42.1735V33.7142C234.97 33.0094 236.27 32.4089 237.31 32.4089C238.895 32.4089 239.285 33.5056 239.285 34.9417V42.1735C239.285 42.6432 239.493 42.8259 239.961 42.8259H241.806C242.274 42.8259 242.482 42.6432 242.482 42.1735V34.3931C242.482 31.5213 241.26 29.6678 238.297 29.6678C236.92 29.6678 235.257 30.2424 234.139 31.1819V25.3339C234.139 24.8641 233.905 24.7333 233.489 24.7333H231.644C231.228 24.7333 230.942 24.8901 230.942 25.3339V42.1994C230.942 42.6432 231.176 42.8259 231.54 42.8259ZM249.109 43.1394C252.228 43.1394 254.281 41.5205 254.281 39.0406C254.281 37.526 253.371 36.2731 251.786 35.6466L249.395 34.6806C248.485 34.3148 248.147 33.9493 248.147 33.3229C248.147 32.592 248.797 32.0959 249.759 32.0959C250.85 32.0959 251.968 32.331 252.618 32.7223C252.904 32.8791 253.138 32.8007 253.242 32.4872L253.709 31.0775C253.814 30.7121 253.762 30.5813 253.424 30.4251C252.202 29.9029 250.928 29.6419 249.603 29.6419C246.822 29.6419 244.873 31.1819 244.873 33.3753C244.873 35.0196 245.861 36.325 247.55 36.952L249.629 37.7352C250.799 38.179 251.215 38.5968 251.215 39.3017C251.215 40.1632 250.435 40.7114 249.187 40.7114C248.226 40.7114 247.316 40.4763 245.912 39.8757C245.601 39.7454 245.392 39.8238 245.289 40.1368L244.821 41.5989C244.717 41.886 244.821 42.0951 245.107 42.2254C246.328 42.8259 247.758 43.1394 249.109 43.1394ZM262.208 43.1394C263.69 43.1394 264.833 42.9043 266.029 42.3562C266.419 42.1735 266.471 42.0167 266.341 41.5729L265.977 40.2676C265.899 40.0325 265.717 39.9541 265.405 40.0584C264.34 40.5022 263.638 40.6589 262.65 40.6589C260.493 40.6589 259.22 39.0665 259.22 36.3514C259.22 33.7143 260.545 32.1742 262.78 32.1742C263.716 32.1742 264.573 32.3829 265.301 32.7483C265.613 32.931 265.821 32.8531 265.899 32.5137L266.237 31.1035C266.315 30.6862 266.263 30.5294 265.977 30.3987C264.937 29.9289 263.69 29.6678 262.442 29.6678C258.44 29.6678 255.919 32.331 255.919 36.5082C255.919 40.6854 258.232 43.1394 262.208 43.1394ZM269.251 42.8259H271.279C271.643 42.8259 271.85 42.6173 271.85 42.1735V33.7142C272.682 33.0094 273.982 32.4089 275.021 32.4089C276.607 32.4089 276.997 33.5056 276.997 34.9417V42.1735C276.997 42.6432 277.205 42.8259 277.672 42.8259H279.518C279.985 42.8259 280.194 42.6432 280.194 42.1735V34.3931C280.194 31.5213 278.972 29.6678 276.009 29.6678C274.631 29.6678 272.968 30.2424 271.85 31.1819V25.3339C271.85 24.8641 271.617 24.7333 271.201 24.7333H269.356C268.94 24.7333 268.654 24.8901 268.654 25.3339V42.1994C268.654 42.6432 268.888 42.8259 269.251 42.8259ZM287.237 43.1394C288.693 43.1394 290.148 42.5648 291.421 41.5205L291.447 42.3038C291.473 42.6692 291.655 42.8259 292.071 42.8259H293.813C294.28 42.8259 294.462 42.6172 294.462 42.147V30.5813C294.462 30.164 294.254 29.9813 293.786 29.9813H291.915C291.473 29.9813 291.265 30.164 291.265 30.5813V39.0665C290.356 39.8497 289.108 40.3979 288.199 40.3979C286.847 40.3979 286.249 39.6411 286.249 37.8395V30.5813C286.249 30.164 286.067 29.9813 285.6 29.9813H283.754C283.286 29.9813 283.052 30.19 283.052 30.5813V38.3876C283.052 41.4946 284.482 43.1394 287.237 43.1394ZM298.179 42.8259H300.206C300.57 42.8259 300.778 42.6173 300.778 42.1735V25.3339C300.778 24.8641 300.544 24.7333 300.128 24.7333H298.283C297.867 24.7333 297.581 24.8901 297.581 25.3339V42.1994C297.581 42.6432 297.815 42.8259 298.179 42.8259ZM309.822 43.1394C311.408 43.1394 313.123 42.8259 314.267 42.3038C314.63 42.1211 314.735 41.9124 314.63 41.5206L314.267 40.1632C314.188 39.8498 313.981 39.7714 313.591 39.9281C312.499 40.3719 311.486 40.5806 310.368 40.5806C308.315 40.5806 306.807 39.2233 306.6 37.1347H314.319C314.994 37.1347 315.176 36.9779 315.176 36.3515V35.9596C315.176 32.0699 313.123 29.6678 309.77 29.6678C305.872 29.6678 303.247 32.3569 303.247 36.3515C303.247 40.5546 305.742 43.1394 309.822 43.1394ZM306.651 35.0461C306.885 33.2705 308.055 32.1218 309.588 32.1218C311.018 32.1218 311.98 33.1661 312.031 34.7585V35.0461H306.651Z" fill="black"/>
<path d="M66.6361 109.203V117.632C66.6361 119.032 66.1966 120.14 65.3177 120.954C64.4446 121.769 63.2493 122.176 61.7318 122.176C60.2376 122.176 59.0511 121.78 58.1722 120.989C57.2933 120.198 56.845 119.111 56.8275 117.729V109.203H59.4642V117.649C59.4642 118.487 59.6634 119.1 60.0618 119.486C60.4661 119.867 61.0228 120.058 61.7318 120.058C63.2142 120.058 63.9671 119.278 63.9905 117.72V109.203H66.6361ZM74.9973 113.615L77.3967 109.203H80.4289L76.7023 115.549L80.5256 122H77.4582L74.9973 117.518L72.5363 122H69.4689L73.2922 115.549L69.5656 109.203H72.5979L74.9973 113.615ZM94.3213 117.315H92.2207V122H89.5839V109.203H94.3388C95.8505 109.203 97.0166 109.54 97.8369 110.214C98.6572 110.888 99.0673 111.84 99.0673 113.07C99.0673 113.943 98.8769 114.673 98.4961 115.259C98.1211 115.839 97.5498 116.302 96.7822 116.647L99.5507 121.877V122H96.7207L94.3213 117.315ZM92.2207 115.18H94.3476C95.0097 115.18 95.5224 115.013 95.8857 114.679C96.249 114.339 96.4306 113.873 96.4306 113.281C96.4306 112.678 96.2578 112.203 95.9121 111.857C95.5722 111.512 95.0478 111.339 94.3388 111.339H92.2207V115.18ZM106.91 122.176C105.515 122.176 104.379 121.748 103.5 120.893C102.627 120.037 102.19 118.897 102.19 117.474V117.228C102.19 116.272 102.375 115.42 102.744 114.67C103.113 113.914 103.635 113.334 104.308 112.93C104.988 112.52 105.762 112.314 106.629 112.314C107.93 112.314 108.952 112.725 109.696 113.545C110.446 114.365 110.821 115.528 110.821 117.034V118.071H104.765C104.847 118.692 105.094 119.19 105.504 119.565C105.92 119.94 106.444 120.128 107.077 120.128C108.056 120.128 108.82 119.773 109.371 119.064L110.619 120.462C110.238 121.001 109.722 121.423 109.072 121.728C108.422 122.026 107.701 122.176 106.91 122.176ZM106.62 114.371C106.116 114.371 105.706 114.541 105.389 114.881C105.079 115.221 104.88 115.707 104.792 116.34H108.325V116.138C108.313 115.575 108.161 115.142 107.868 114.837C107.575 114.526 107.159 114.371 106.62 114.371ZM119.042 119.372C119.042 119.062 118.886 118.818 118.576 118.643C118.271 118.461 117.779 118.3 117.099 118.159C114.838 117.685 113.707 116.724 113.707 115.276C113.707 114.433 114.055 113.729 114.753 113.167C115.456 112.599 116.373 112.314 117.504 112.314C118.711 112.314 119.675 112.599 120.395 113.167C121.122 113.735 121.485 114.474 121.485 115.382H118.945C118.945 115.019 118.828 114.72 118.593 114.485C118.359 114.245 117.993 114.125 117.495 114.125C117.067 114.125 116.736 114.222 116.502 114.415C116.267 114.608 116.15 114.854 116.15 115.153C116.15 115.435 116.282 115.663 116.546 115.839C116.815 116.009 117.266 116.158 117.899 116.287C118.532 116.41 119.065 116.551 119.499 116.709C120.841 117.201 121.511 118.054 121.511 119.267C121.511 120.134 121.139 120.837 120.395 121.376C119.651 121.909 118.69 122.176 117.512 122.176C116.716 122.176 116.007 122.035 115.385 121.754C114.77 121.467 114.287 121.077 113.935 120.585C113.584 120.087 113.408 119.551 113.408 118.977H115.816C115.84 119.428 116.007 119.773 116.317 120.014C116.628 120.254 117.044 120.374 117.565 120.374C118.051 120.374 118.418 120.283 118.664 120.102C118.916 119.914 119.042 119.671 119.042 119.372ZM129.152 122.176C127.757 122.176 126.621 121.748 125.742 120.893C124.869 120.037 124.432 118.897 124.432 117.474V117.228C124.432 116.272 124.617 115.42 124.986 114.67C125.355 113.914 125.877 113.334 126.55 112.93C127.23 112.52 128.004 112.314 128.871 112.314C130.171 112.314 131.194 112.725 131.938 113.545C132.688 114.365 133.063 115.528 133.063 117.034V118.071H127.007C127.089 118.692 127.336 119.19 127.746 119.565C128.162 119.94 128.686 120.128 129.319 120.128C130.297 120.128 131.062 119.773 131.613 119.064L132.861 120.462C132.48 121.001 131.964 121.423 131.314 121.728C130.664 122.026 129.943 122.176 129.152 122.176ZM128.862 114.371C128.358 114.371 127.948 114.541 127.631 114.881C127.321 115.221 127.122 115.707 127.034 116.34H130.567V116.138C130.555 115.575 130.403 115.142 130.11 114.837C129.817 114.526 129.401 114.371 128.862 114.371ZM141.644 122C141.527 121.771 141.442 121.487 141.389 121.147C140.774 121.833 139.974 122.176 138.99 122.176C138.058 122.176 137.285 121.906 136.669 121.367C136.06 120.828 135.755 120.148 135.755 119.328C135.755 118.32 136.127 117.547 136.872 117.008C137.622 116.469 138.703 116.196 140.115 116.19H141.284V115.646C141.284 115.206 141.169 114.854 140.941 114.591C140.718 114.327 140.364 114.195 139.877 114.195C139.45 114.195 139.113 114.298 138.867 114.503C138.626 114.708 138.506 114.989 138.506 115.347H135.966C135.966 114.796 136.136 114.286 136.476 113.817C136.816 113.349 137.296 112.982 137.917 112.719C138.539 112.449 139.236 112.314 140.009 112.314C141.181 112.314 142.11 112.61 142.795 113.202C143.487 113.788 143.832 114.614 143.832 115.681V119.803C143.838 120.705 143.964 121.388 144.21 121.851V122H141.644ZM139.543 120.233C139.918 120.233 140.264 120.151 140.581 119.987C140.897 119.817 141.131 119.592 141.284 119.311V117.676H140.334C139.063 117.676 138.386 118.115 138.304 118.994L138.295 119.144C138.295 119.46 138.407 119.721 138.629 119.926C138.852 120.131 139.157 120.233 139.543 120.233ZM152.747 114.872C152.402 114.825 152.097 114.802 151.833 114.802C150.872 114.802 150.243 115.127 149.944 115.777V122H147.404V112.49H149.803L149.873 113.624C150.383 112.751 151.089 112.314 151.992 112.314C152.273 112.314 152.536 112.353 152.783 112.429L152.747 114.872ZM159.377 120.128C159.846 120.128 160.227 119.999 160.52 119.741C160.813 119.483 160.965 119.141 160.977 118.713H163.359C163.353 119.357 163.177 119.949 162.831 120.488C162.486 121.021 162.011 121.438 161.407 121.736C160.81 122.029 160.148 122.176 159.421 122.176C158.062 122.176 156.989 121.745 156.204 120.884C155.419 120.017 155.027 118.821 155.027 117.298V117.131C155.027 115.666 155.416 114.497 156.196 113.624C156.975 112.751 158.044 112.314 159.404 112.314C160.593 112.314 161.545 112.654 162.26 113.334C162.981 114.008 163.347 114.907 163.359 116.032H160.977C160.965 115.54 160.813 115.142 160.52 114.837C160.227 114.526 159.84 114.371 159.36 114.371C158.768 114.371 158.32 114.588 158.015 115.021C157.716 115.449 157.567 116.146 157.567 117.113V117.377C157.567 118.355 157.716 119.059 158.015 119.486C158.314 119.914 158.768 120.128 159.377 120.128ZM168.907 113.527C169.581 112.719 170.428 112.314 171.447 112.314C173.51 112.314 174.556 113.513 174.585 115.909V122H172.045V115.979C172.045 115.435 171.928 115.033 171.693 114.775C171.459 114.512 171.069 114.38 170.525 114.38C169.78 114.38 169.241 114.667 168.907 115.241V122H166.367V108.5H168.907V113.527ZM183.872 118.555C183.872 117.963 184.036 117.415 184.364 116.911C184.698 116.407 185.307 115.848 186.192 115.232C185.811 114.723 185.513 114.245 185.296 113.8C185.079 113.349 184.971 112.88 184.971 112.394C184.971 111.397 185.284 110.589 185.911 109.968C186.544 109.341 187.393 109.027 188.46 109.027C189.415 109.027 190.197 109.312 190.807 109.88C191.422 110.448 191.729 111.157 191.729 112.007C191.729 113.026 191.214 113.926 190.182 114.705L189.198 115.417L191.404 117.983C191.75 117.304 191.923 116.554 191.923 115.733H194.085C194.085 117.397 193.701 118.745 192.933 119.776L194.849 122H191.967L191.307 121.244C190.364 121.865 189.28 122.176 188.056 122.176C186.79 122.176 185.776 121.845 185.015 121.183C184.253 120.515 183.872 119.639 183.872 118.555ZM188.179 120.137C188.788 120.137 189.365 119.967 189.91 119.627L187.388 116.709L187.203 116.841C186.682 117.286 186.421 117.811 186.421 118.414C186.421 118.924 186.582 119.34 186.904 119.662C187.232 119.979 187.657 120.137 188.179 120.137ZM187.247 112.358C187.247 112.798 187.505 113.352 188.02 114.02L188.697 113.571C189.043 113.349 189.28 113.132 189.409 112.921C189.544 112.71 189.611 112.458 189.611 112.165C189.611 111.872 189.503 111.617 189.286 111.4C189.069 111.184 188.791 111.075 188.451 111.075C188.088 111.075 187.795 111.192 187.572 111.427C187.355 111.661 187.247 111.972 187.247 112.358ZM213.611 109.203V117.632C213.611 119.032 213.172 120.14 212.293 120.954C211.42 121.769 210.224 122.176 208.707 122.176C207.213 122.176 206.026 121.78 205.147 120.989C204.268 120.198 203.82 119.111 203.802 117.729V109.203H206.439V117.649C206.439 118.487 206.638 119.1 207.037 119.486C207.441 119.867 207.998 120.058 208.707 120.058C210.189 120.058 210.942 119.278 210.965 117.72V109.203H213.611ZM220.197 122H217.56V109.203H220.197V122ZM230.371 122V109.203H234.309C235.434 109.203 236.439 109.458 237.324 109.968C238.214 110.472 238.908 111.192 239.407 112.13C239.905 113.062 240.154 114.122 240.154 115.312V115.9C240.154 117.09 239.908 118.147 239.415 119.073C238.929 119.999 238.241 120.717 237.35 121.227C236.459 121.736 235.454 121.994 234.335 122H230.371ZM233.008 111.339V119.882H234.283C235.314 119.882 236.102 119.545 236.647 118.871C237.192 118.197 237.47 117.233 237.482 115.979V115.303C237.482 114.002 237.212 113.018 236.673 112.35C236.134 111.676 235.346 111.339 234.309 111.339H233.008ZM247.908 122.176C246.514 122.176 245.377 121.748 244.498 120.893C243.625 120.037 243.189 118.897 243.189 117.474V117.228C243.189 116.272 243.373 115.42 243.742 114.67C244.111 113.914 244.633 113.334 245.307 112.93C245.986 112.52 246.76 112.314 247.627 112.314C248.928 112.314 249.95 112.725 250.694 113.545C251.444 114.365 251.819 115.528 251.819 117.034V118.071H245.764C245.846 118.692 246.092 119.19 246.502 119.565C246.918 119.94 247.443 120.128 248.075 120.128C249.054 120.128 249.819 119.773 250.369 119.064L251.617 120.462C251.236 121.001 250.721 121.423 250.07 121.728C249.42 122.026 248.699 122.176 247.908 122.176ZM247.618 114.371C247.114 114.371 246.704 114.541 246.388 114.881C246.077 115.221 245.878 115.707 245.79 116.34H249.323V116.138C249.312 115.575 249.159 115.142 248.866 114.837C248.573 114.526 248.157 114.371 247.618 114.371ZM260.04 119.372C260.04 119.062 259.885 118.818 259.574 118.643C259.27 118.461 258.777 118.3 258.098 118.159C255.836 117.685 254.705 116.724 254.705 115.276C254.705 114.433 255.054 113.729 255.751 113.167C256.454 112.599 257.371 112.314 258.502 112.314C259.709 112.314 260.673 112.599 261.394 113.167C262.12 113.735 262.483 114.474 262.483 115.382H259.943C259.943 115.019 259.826 114.72 259.592 114.485C259.357 114.245 258.991 114.125 258.493 114.125C258.065 114.125 257.734 114.222 257.5 114.415C257.266 114.608 257.148 114.854 257.148 115.153C257.148 115.435 257.28 115.663 257.544 115.839C257.814 116.009 258.265 116.158 258.897 116.287C259.53 116.41 260.064 116.551 260.497 116.709C261.839 117.201 262.51 118.054 262.51 119.267C262.51 120.134 262.138 120.837 261.394 121.376C260.649 121.909 259.689 122.176 258.511 122.176C257.714 122.176 257.005 122.035 256.384 121.754C255.769 121.467 255.285 121.077 254.934 120.585C254.582 120.087 254.406 119.551 254.406 118.977H256.814C256.838 119.428 257.005 119.773 257.315 120.014C257.626 120.254 258.042 120.374 258.564 120.374C259.05 120.374 259.416 120.283 259.662 120.102C259.914 119.914 260.04 119.671 260.04 119.372ZM268.454 122H265.905V112.49H268.454V122ZM265.756 110.029C265.756 109.648 265.882 109.335 266.134 109.089C266.392 108.843 266.74 108.72 267.18 108.72C267.613 108.72 267.959 108.843 268.217 109.089C268.475 109.335 268.603 109.648 268.603 110.029C268.603 110.416 268.472 110.732 268.208 110.979C267.95 111.225 267.607 111.348 267.18 111.348C266.752 111.348 266.406 111.225 266.142 110.979C265.885 110.732 265.756 110.416 265.756 110.029ZM271.805 117.175C271.805 115.716 272.151 114.541 272.843 113.65C273.54 112.76 274.477 112.314 275.655 112.314C276.698 112.314 277.51 112.672 278.09 113.387L278.195 112.49H280.498V121.684C280.498 122.516 280.307 123.239 279.927 123.854C279.552 124.47 279.021 124.938 278.336 125.261C277.65 125.583 276.847 125.744 275.928 125.744C275.23 125.744 274.551 125.604 273.888 125.322C273.226 125.047 272.725 124.689 272.386 124.25L273.511 122.703C274.143 123.412 274.911 123.767 275.813 123.767C276.487 123.767 277.012 123.585 277.387 123.222C277.762 122.864 277.949 122.354 277.949 121.692V121.183C277.363 121.845 276.593 122.176 275.638 122.176C274.495 122.176 273.569 121.73 272.86 120.84C272.157 119.943 271.805 118.757 271.805 117.28V117.175ZM274.346 117.359C274.346 118.221 274.518 118.897 274.864 119.39C275.21 119.876 275.684 120.119 276.288 120.119C277.061 120.119 277.615 119.829 277.949 119.249V115.25C277.609 114.67 277.061 114.38 276.305 114.38C275.696 114.38 275.216 114.629 274.864 115.127C274.518 115.625 274.346 116.369 274.346 117.359ZM286.416 112.49L286.495 113.589C287.174 112.739 288.086 112.314 289.228 112.314C290.236 112.314 290.986 112.61 291.478 113.202C291.97 113.794 292.222 114.679 292.234 115.856V122H289.694V115.918C289.694 115.379 289.577 114.989 289.342 114.749C289.108 114.503 288.718 114.38 288.174 114.38C287.459 114.38 286.923 114.685 286.565 115.294V122H284.025V112.49H286.416Z" fill="black"/>
<path d="M90.003 137.203H91.0928V146.194C91.0928 147.407 90.7413 148.374 90.0382 149.095C89.3409 149.815 88.4034 150.176 87.2257 150.176C85.9835 150.176 85.0284 149.851 84.3604 149.2C83.6925 148.55 83.3585 147.642 83.3585 146.476H84.4395C84.4395 147.401 84.6827 148.099 85.169 148.567C85.6553 149.03 86.3409 149.262 87.2257 149.262C88.0401 149.262 88.7022 148.992 89.212 148.453C89.7276 147.914 89.9913 147.182 90.003 146.256V137.203ZM101.643 150C101.537 149.701 101.47 149.259 101.44 148.673C101.071 149.153 100.6 149.525 100.025 149.789C99.457 150.047 98.8535 150.176 98.2148 150.176C97.3007 150.176 96.5595 149.921 95.9912 149.411C95.4287 148.901 95.1474 148.257 95.1474 147.478C95.1474 146.552 95.5312 145.819 96.2988 145.28C97.0722 144.741 98.1474 144.472 99.5244 144.472H101.432V143.391C101.432 142.711 101.221 142.178 100.799 141.791C100.383 141.398 99.7734 141.202 98.9707 141.202C98.2382 141.202 97.6318 141.39 97.1513 141.765C96.6709 142.14 96.4306 142.591 96.4306 143.118L95.3759 143.109C95.3759 142.354 95.7275 141.7 96.4306 141.149C97.1337 140.593 97.998 140.314 99.0234 140.314C100.084 140.314 100.919 140.581 101.528 141.114C102.144 141.642 102.46 142.38 102.477 143.329V147.829C102.477 148.749 102.574 149.438 102.768 149.895V150H101.643ZM98.3378 149.244C99.041 149.244 99.6679 149.074 100.219 148.734C100.775 148.395 101.18 147.94 101.432 147.372V145.28H99.5507C98.5019 145.292 97.6816 145.485 97.0898 145.86C96.498 146.229 96.2021 146.739 96.2021 147.39C96.2021 147.923 96.3984 148.365 96.791 148.717C97.1894 149.068 97.705 149.244 98.3378 149.244ZM107.912 140.49L107.947 142.116C108.305 141.53 108.75 141.085 109.283 140.78C109.816 140.47 110.405 140.314 111.05 140.314C112.069 140.314 112.828 140.602 113.326 141.176C113.824 141.75 114.076 142.611 114.082 143.76V150H113.036V143.751C113.03 142.901 112.848 142.269 112.491 141.853C112.139 141.437 111.574 141.229 110.795 141.229C110.144 141.229 109.567 141.434 109.063 141.844C108.565 142.248 108.196 142.796 107.956 143.487V150H106.91V140.49H107.912ZM118.33 149.367C118.33 149.162 118.394 148.989 118.523 148.849C118.658 148.702 118.842 148.629 119.077 148.629C119.311 148.629 119.496 148.702 119.631 148.849C119.765 148.989 119.833 149.162 119.833 149.367C119.833 149.572 119.765 149.742 119.631 149.877C119.496 150.006 119.311 150.07 119.077 150.07C118.842 150.07 118.658 150.006 118.523 149.877C118.394 149.742 118.33 149.572 118.33 149.367ZM138.199 150H130.183V149.191L134.569 144.217C135.295 143.379 135.799 142.688 136.081 142.143C136.362 141.598 136.502 141.067 136.502 140.552C136.502 139.743 136.265 139.104 135.791 138.636C135.316 138.161 134.663 137.924 133.831 137.924C132.969 137.924 132.272 138.199 131.739 138.75C131.211 139.301 130.948 140.016 130.948 140.895H129.902C129.902 140.174 130.063 139.518 130.385 138.926C130.713 138.334 131.176 137.871 131.774 137.537C132.377 137.197 133.063 137.027 133.831 137.027C135.002 137.027 135.916 137.335 136.573 137.95C137.235 138.565 137.566 139.403 137.566 140.464C137.566 141.062 137.378 141.715 137.003 142.424C136.634 143.133 135.981 144.018 135.043 145.078L131.475 149.112H138.199V150ZM149.504 144.665C149.504 146.47 149.173 147.841 148.511 148.778C147.849 149.71 146.873 150.176 145.584 150.176C144.319 150.176 143.349 149.719 142.675 148.805C142.001 147.885 141.656 146.549 141.638 144.797V142.503C141.638 140.704 141.972 139.342 142.64 138.416C143.308 137.49 144.284 137.027 145.567 137.027C146.832 137.027 147.799 137.476 148.467 138.372C149.135 139.263 149.481 140.578 149.504 142.318V144.665ZM148.45 142.371C148.45 140.906 148.209 139.799 147.729 139.049C147.254 138.299 146.534 137.924 145.567 137.924C144.618 137.924 143.903 138.29 143.422 139.022C142.942 139.755 142.696 140.836 142.684 142.266V144.779C142.684 146.238 142.93 147.354 143.422 148.128C143.92 148.901 144.641 149.288 145.584 149.288C146.522 149.288 147.231 148.91 147.711 148.154C148.198 147.398 148.444 146.291 148.45 144.832V142.371ZM161.407 150H153.392V149.191L157.778 144.217C158.504 143.379 159.008 142.688 159.289 142.143C159.571 141.598 159.711 141.067 159.711 140.552C159.711 139.743 159.474 139.104 158.999 138.636C158.525 138.161 157.871 137.924 157.039 137.924C156.178 137.924 155.481 138.199 154.947 138.75C154.42 139.301 154.156 140.016 154.156 140.895H153.111C153.111 140.174 153.272 139.518 153.594 138.926C153.922 138.334 154.385 137.871 154.983 137.537C155.586 137.197 156.272 137.027 157.039 137.027C158.211 137.027 159.125 137.335 159.781 137.95C160.444 138.565 160.775 139.403 160.775 140.464C160.775 141.062 160.587 141.715 160.212 142.424C159.843 143.133 159.19 144.018 158.252 145.078L154.684 149.112H161.407V150ZM169.892 150H168.837V138.469L165.357 139.761V138.776L169.716 137.159H169.892V150ZM182.615 151.099H181.657L187.001 137.203H187.95L182.615 151.099ZM198.863 144.788V150H197.782V137.203H202.141C203.471 137.203 204.52 137.543 205.288 138.223C206.061 138.902 206.448 139.837 206.448 141.026C206.448 142.228 206.076 143.156 205.332 143.812C204.593 144.463 203.521 144.788 202.115 144.788H198.863ZM198.863 143.874H202.141C203.19 143.874 203.99 143.625 204.541 143.127C205.091 142.629 205.367 141.935 205.367 141.044C205.367 140.159 205.091 139.456 204.541 138.935C203.996 138.407 203.219 138.138 202.212 138.126H198.863V143.874ZM214.642 141.387C214.419 141.346 214.182 141.325 213.93 141.325C213.274 141.325 212.717 141.51 212.26 141.879C211.809 142.242 211.487 142.772 211.293 143.47V150H210.248V140.49H211.276L211.293 142.002C211.85 140.877 212.744 140.314 213.974 140.314C214.267 140.314 214.499 140.353 214.668 140.429L214.642 141.387ZM221.439 150.176C220.63 150.176 219.898 149.977 219.242 149.578C218.591 149.18 218.084 148.626 217.721 147.917C217.358 147.202 217.176 146.402 217.176 145.518V145.14C217.176 144.226 217.352 143.402 217.704 142.67C218.061 141.938 218.556 141.363 219.189 140.947C219.822 140.525 220.507 140.314 221.245 140.314C222.4 140.314 223.314 140.71 223.988 141.501C224.667 142.286 225.007 143.361 225.007 144.727V145.315H218.222V145.518C218.222 146.596 218.53 147.495 219.145 148.216C219.766 148.931 220.545 149.288 221.483 149.288C222.045 149.288 222.54 149.186 222.968 148.98C223.402 148.775 223.794 148.447 224.146 147.996L224.805 148.497C224.032 149.616 222.91 150.176 221.439 150.176ZM221.245 141.211C220.454 141.211 219.787 141.501 219.242 142.081C218.703 142.661 218.374 143.44 218.257 144.419H223.961V144.305C223.932 143.391 223.671 142.646 223.179 142.072C222.687 141.498 222.042 141.211 221.245 141.211ZM234.37 147.583C234.37 147.062 234.159 146.643 233.738 146.326C233.322 146.01 232.692 145.764 231.848 145.588C231.004 145.406 230.348 145.201 229.879 144.973C229.416 144.738 229.071 144.454 228.842 144.12C228.619 143.786 228.508 143.382 228.508 142.907C228.508 142.157 228.822 141.539 229.449 141.053C230.075 140.561 230.878 140.314 231.857 140.314C232.917 140.314 233.767 140.578 234.406 141.105C235.05 141.627 235.372 142.31 235.372 143.153H234.318C234.318 142.597 234.083 142.134 233.615 141.765C233.152 141.396 232.566 141.211 231.857 141.211C231.165 141.211 230.609 141.366 230.187 141.677C229.771 141.981 229.563 142.38 229.563 142.872C229.563 143.347 229.736 143.716 230.081 143.979C230.433 144.237 231.069 144.475 231.989 144.691C232.914 144.908 233.606 145.14 234.063 145.386C234.526 145.632 234.868 145.928 235.091 146.273C235.314 146.619 235.425 147.038 235.425 147.53C235.425 148.333 235.1 148.975 234.449 149.455C233.805 149.936 232.961 150.176 231.918 150.176C230.811 150.176 229.911 149.909 229.22 149.376C228.534 148.837 228.192 148.157 228.192 147.337H229.246C229.287 147.952 229.545 148.433 230.02 148.778C230.5 149.118 231.133 149.288 231.918 149.288C232.651 149.288 233.242 149.127 233.694 148.805C234.145 148.482 234.37 148.075 234.37 147.583ZM243.101 150.176C242.292 150.176 241.56 149.977 240.903 149.578C240.253 149.18 239.746 148.626 239.383 147.917C239.02 147.202 238.838 146.402 238.838 145.518V145.14C238.838 144.226 239.014 143.402 239.365 142.67C239.723 141.938 240.218 141.363 240.851 140.947C241.484 140.525 242.169 140.314 242.907 140.314C244.062 140.314 244.976 140.71 245.65 141.501C246.329 142.286 246.669 143.361 246.669 144.727V145.315H239.884V145.518C239.884 146.596 240.192 147.495 240.807 148.216C241.428 148.931 242.207 149.288 243.145 149.288C243.707 149.288 244.202 149.186 244.63 148.98C245.064 148.775 245.456 148.447 245.808 147.996L246.467 148.497C245.694 149.616 244.571 150.176 243.101 150.176ZM242.907 141.211C242.116 141.211 241.448 141.501 240.903 142.081C240.364 142.661 240.036 143.44 239.919 144.419H245.623V144.305C245.594 143.391 245.333 142.646 244.841 142.072C244.349 141.498 243.704 141.211 242.907 141.211ZM251.339 140.49L251.374 142.116C251.731 141.53 252.177 141.085 252.71 140.78C253.243 140.47 253.832 140.314 254.477 140.314C255.496 140.314 256.255 140.602 256.753 141.176C257.251 141.75 257.503 142.611 257.509 143.76V150H256.463V143.751C256.457 142.901 256.275 142.269 255.918 141.853C255.566 141.437 255.001 141.229 254.222 141.229C253.571 141.229 252.994 141.434 252.49 141.844C251.992 142.248 251.623 142.796 251.383 143.487V150H250.337V140.49H251.339ZM263.488 138.056V140.49H265.457V141.352H263.488V147.688C263.488 148.216 263.582 148.608 263.769 148.866C263.963 149.124 264.282 149.253 264.727 149.253C264.903 149.253 265.187 149.224 265.58 149.165L265.624 150.026C265.349 150.126 264.974 150.176 264.499 150.176C263.778 150.176 263.254 149.968 262.926 149.552C262.598 149.13 262.434 148.512 262.434 147.697V141.352H260.684V140.49H262.434V138.056H263.488Z" fill="black"/>
</svg>
