<svg width="347" height="194" viewBox="0 0 347 194" fill="none" xmlns="http://www.w3.org/2000/svg">
<rect x="0.5" y="0.5" width="346" height="193" fill="white" stroke="black"/>
<path d="M67.1632 24.7333V40.1141H55.0396V24.7333H44.3955V64.8713H55.0396V49.3194H67.1632V64.8713H77.8072V24.7333H67.1632ZM95.6224 65.5576C104.9 65.5576 110.478 60.8119 110.478 52.9216C110.478 47.375 107.974 44.0019 101.884 41.4287L96.476 39.1416C93.858 37.9981 93.0612 37.1977 93.0612 35.7115C93.0612 33.9387 94.8256 32.7381 97.5576 32.7381C101.827 32.7381 105.299 34.8536 106.38 34.8536C107.006 34.8536 107.348 34.5679 107.576 33.9962L109.966 27.1349C105.754 25.0195 101.713 24.0475 97.33 24.0475C88.4504 24.0475 82.6448 28.7928 82.6448 35.8256C82.6448 41.3146 85.0924 44.9168 90.6136 47.375L96.9884 50.2339C99.0944 51.1488 99.9485 52.1208 99.9485 53.5504C99.9485 55.723 98.3544 56.8095 95.224 56.8095C90.3288 56.8095 86.1168 54.5794 85.206 54.5794C84.58 54.5794 84.0676 54.9796 83.8968 55.5514L81.9615 62.6987C87.1411 64.6997 91.2396 65.5576 95.6224 65.5576ZM115.772 64.8713H141.385V57.1526C141.385 56.1232 140.93 55.6659 139.905 55.6659H126.415V24.7333H115.772V64.8713ZM160.168 65.5576C171.267 65.5576 176.789 59.7253 176.789 48.0043V24.7333H166.145V47.0323C166.145 53.6075 164.494 56.1232 160.168 56.1232C155.842 56.1232 154.192 53.6075 154.192 47.0323V24.7333H143.548V48.0043C143.548 59.7253 149.069 65.5576 160.168 65.5576Z" fill="black"/>
<path d="M187.643 64.8713H196.973C197.363 64.8713 197.623 64.7145 197.623 64.2448V62.6523C197.623 62.2605 197.415 62.0254 196.973 62.0254H190.32V47.4835C190.32 46.9614 190.138 46.7787 189.644 46.7787H187.539C187.123 46.7787 186.915 47.0138 186.915 47.4576V64.1405C186.915 64.7145 187.174 64.8713 187.643 64.8713ZM203.86 65.1847C205.316 65.1847 206.771 64.6102 208.045 63.5659L208.071 64.3491C208.097 64.7145 208.279 64.8712 208.694 64.8712H210.436C210.904 64.8712 211.086 64.6626 211.086 64.1924V52.6267C211.086 52.2093 210.878 52.0266 210.41 52.0266H208.539C208.097 52.0266 207.889 52.2093 207.889 52.6267V61.1119C206.979 61.8951 205.732 62.4432 204.822 62.4432C203.47 62.4432 202.873 61.6864 202.873 59.8849V52.6267C202.873 52.2093 202.691 52.0266 202.223 52.0266H200.377C199.91 52.0266 199.676 52.2353 199.676 52.6267V60.433C199.676 63.5399 201.105 65.1847 203.86 65.1847ZM222.807 62.5216H217.193L222.911 54.1931C223.119 53.9061 223.171 53.645 223.171 53.332V52.5747C223.171 52.2877 223.067 52.0266 222.573 52.0266H214.23C213.892 52.0266 213.736 52.2353 213.736 52.5747V53.6974C213.736 54.2456 213.84 54.3763 214.334 54.3763H219.143L213.529 62.6783C213.295 63.0178 213.269 63.2005 213.269 63.5659V64.2448C213.269 64.6102 213.425 64.8713 213.892 64.8713H222.833C223.145 64.8713 223.327 64.6886 223.327 64.3751V62.9654C223.327 62.6259 223.119 62.5216 222.807 62.5216ZM230.942 65.1847C232.527 65.1847 234.243 64.8713 235.386 64.3491C235.75 64.1664 235.854 63.9577 235.75 63.5659L235.386 62.2086C235.308 61.8951 235.101 61.8167 234.711 61.9735C233.619 62.4172 232.605 62.6259 231.488 62.6259C229.434 62.6259 227.927 61.2686 227.719 59.18H235.439C236.114 59.18 236.296 59.0233 236.296 58.3968V58.0049C236.296 54.1152 234.243 51.7132 230.89 51.7132C226.991 51.7132 224.367 54.4023 224.367 58.3968C224.367 62.5999 226.862 65.1847 230.942 65.1847ZM227.771 57.0914C228.005 55.3158 229.175 54.1672 230.708 54.1672C232.138 54.1672 233.099 55.2115 233.151 56.8039V57.0914H227.771ZM239.389 64.8713H241.312C241.728 64.8713 241.936 64.6626 241.936 64.2188V55.812C242.56 55.0547 243.547 54.559 244.457 54.559C244.665 54.559 244.899 54.585 245.185 54.611C245.497 54.6634 245.653 54.559 245.705 54.2196L245.939 52.3396C245.964 52.131 245.939 52.0002 245.835 51.8959C245.731 51.7915 245.367 51.7132 244.977 51.7132C243.729 51.7132 242.768 52.2613 241.78 53.5407L241.754 52.6007C241.754 52.1829 241.546 52.0266 241.104 52.0266H239.415C238.947 52.0266 238.739 52.2093 238.739 52.7051V64.2188C238.739 64.6626 238.947 64.8713 239.389 64.8713ZM248.381 64.8713H250.305C250.772 64.8713 250.954 64.6626 250.954 64.2188V55.7596C251.838 55.0028 253.112 54.4542 254.047 54.4542C255.425 54.4542 256.049 55.2374 256.049 56.9871V64.1924C256.049 64.6626 256.256 64.8713 256.698 64.8713H258.622C259.063 64.8713 259.245 64.6626 259.245 64.1924V56.4385C259.245 53.332 257.816 51.7132 255.061 51.7132C253.579 51.7132 252.046 52.2877 250.798 53.332L250.772 52.5748C250.747 52.1829 250.538 52.0266 250.122 52.0266H248.407C247.966 52.0266 247.757 52.2353 247.757 52.6791V64.2448C247.757 64.6362 247.991 64.8713 248.381 64.8713Z" fill="black"/>
<path d="M187.643 42.8259H189.67C190.111 42.8259 190.32 42.6432 190.32 42.1735V34.8633H197.701V42.1735C197.701 42.6432 197.909 42.8259 198.403 42.8259H200.482C200.924 42.8259 201.105 42.6432 201.105 42.1735V25.3863C201.105 24.8901 200.898 24.7333 200.482 24.7333H198.403C197.961 24.7333 197.701 24.9161 197.701 25.3863V32.0435H190.32V25.3863C190.32 24.8901 190.086 24.7333 189.67 24.7333H187.643C187.227 24.7333 186.915 24.9161 186.915 25.3863V42.1735C186.915 42.6432 187.149 42.8259 187.643 42.8259ZM209.838 43.1394C213.711 43.1394 216.258 40.4503 216.258 36.3774C216.258 32.1478 213.945 29.6678 209.994 29.6678C206.096 29.6678 203.549 32.3045 203.549 36.3515C203.549 40.607 205.888 43.1394 209.838 43.1394ZM209.865 40.633C207.915 40.633 206.85 39.0925 206.85 36.299C206.85 33.6883 207.993 32.1742 209.968 32.1742C211.892 32.1742 212.957 33.6623 212.957 36.3774C212.957 39.0665 211.814 40.633 209.865 40.633ZM224.497 43.1394C225.978 43.1394 227.122 42.9043 228.317 42.3562C228.707 42.1735 228.759 42.0167 228.629 41.5729L228.265 40.2676C228.187 40.0325 228.005 39.9541 227.693 40.0584C226.628 40.5022 225.926 40.6589 224.939 40.6589C222.781 40.6589 221.508 39.0665 221.508 36.3514C221.508 33.7143 222.833 32.1742 225.068 32.1742C226.004 32.1742 226.862 32.3829 227.589 32.7483C227.901 32.931 228.109 32.8531 228.187 32.5137L228.525 31.1035C228.603 30.6862 228.551 30.5294 228.265 30.3987C227.225 29.9289 225.978 29.6678 224.73 29.6678C220.728 29.6678 218.207 32.331 218.207 36.5082C218.207 40.6854 220.52 43.1394 224.497 43.1394ZM231.54 42.8259H233.567C233.931 42.8259 234.139 42.6173 234.139 42.1735V33.7142C234.97 33.0094 236.27 32.4089 237.31 32.4089C238.895 32.4089 239.285 33.5056 239.285 34.9417V42.1735C239.285 42.6432 239.493 42.8259 239.961 42.8259H241.806C242.274 42.8259 242.482 42.6432 242.482 42.1735V34.3931C242.482 31.5213 241.26 29.6678 238.297 29.6678C236.92 29.6678 235.257 30.2424 234.139 31.1819V25.3339C234.139 24.8641 233.905 24.7333 233.489 24.7333H231.644C231.228 24.7333 230.942 24.8901 230.942 25.3339V42.1994C230.942 42.6432 231.176 42.8259 231.54 42.8259ZM249.109 43.1394C252.228 43.1394 254.281 41.5205 254.281 39.0406C254.281 37.526 253.371 36.2731 251.786 35.6466L249.395 34.6806C248.485 34.3148 248.147 33.9493 248.147 33.3229C248.147 32.592 248.797 32.0959 249.759 32.0959C250.85 32.0959 251.968 32.331 252.618 32.7223C252.904 32.8791 253.138 32.8007 253.242 32.4872L253.709 31.0775C253.814 30.7121 253.762 30.5813 253.424 30.4251C252.202 29.9029 250.928 29.6419 249.603 29.6419C246.822 29.6419 244.873 31.1819 244.873 33.3753C244.873 35.0196 245.861 36.325 247.55 36.952L249.629 37.7352C250.799 38.179 251.215 38.5968 251.215 39.3017C251.215 40.1632 250.435 40.7114 249.187 40.7114C248.226 40.7114 247.316 40.4763 245.912 39.8757C245.601 39.7454 245.392 39.8238 245.289 40.1368L244.821 41.5989C244.717 41.886 244.821 42.0951 245.107 42.2254C246.328 42.8259 247.758 43.1394 249.109 43.1394ZM262.208 43.1394C263.69 43.1394 264.833 42.9043 266.029 42.3562C266.419 42.1735 266.471 42.0167 266.341 41.5729L265.977 40.2676C265.899 40.0325 265.717 39.9541 265.405 40.0584C264.34 40.5022 263.638 40.6589 262.65 40.6589C260.493 40.6589 259.22 39.0665 259.22 36.3514C259.22 33.7143 260.545 32.1742 262.78 32.1742C263.716 32.1742 264.573 32.3829 265.301 32.7483C265.613 32.931 265.821 32.8531 265.899 32.5137L266.237 31.1035C266.315 30.6862 266.263 30.5294 265.977 30.3987C264.937 29.9289 263.69 29.6678 262.442 29.6678C258.44 29.6678 255.919 32.331 255.919 36.5082C255.919 40.6854 258.232 43.1394 262.208 43.1394ZM269.251 42.8259H271.279C271.643 42.8259 271.85 42.6173 271.85 42.1735V33.7142C272.682 33.0094 273.982 32.4089 275.021 32.4089C276.607 32.4089 276.997 33.5056 276.997 34.9417V42.1735C276.997 42.6432 277.205 42.8259 277.672 42.8259H279.518C279.985 42.8259 280.194 42.6432 280.194 42.1735V34.3931C280.194 31.5213 278.972 29.6678 276.009 29.6678C274.631 29.6678 272.968 30.2424 271.85 31.1819V25.3339C271.85 24.8641 271.617 24.7333 271.201 24.7333H269.356C268.94 24.7333 268.654 24.8901 268.654 25.3339V42.1994C268.654 42.6432 268.888 42.8259 269.251 42.8259ZM287.237 43.1394C288.693 43.1394 290.148 42.5648 291.421 41.5205L291.447 42.3038C291.473 42.6692 291.655 42.8259 292.071 42.8259H293.813C294.28 42.8259 294.462 42.6172 294.462 42.147V30.5813C294.462 30.164 294.254 29.9813 293.786 29.9813H291.915C291.473 29.9813 291.265 30.164 291.265 30.5813V39.0665C290.356 39.8497 289.108 40.3979 288.199 40.3979C286.847 40.3979 286.249 39.6411 286.249 37.8395V30.5813C286.249 30.164 286.067 29.9813 285.6 29.9813H283.754C283.286 29.9813 283.052 30.19 283.052 30.5813V38.3876C283.052 41.4946 284.482 43.1394 287.237 43.1394ZM298.179 42.8259H300.206C300.57 42.8259 300.778 42.6173 300.778 42.1735V25.3339C300.778 24.8641 300.544 24.7333 300.128 24.7333H298.283C297.867 24.7333 297.581 24.8901 297.581 25.3339V42.1994C297.581 42.6432 297.815 42.8259 298.179 42.8259ZM309.822 43.1394C311.408 43.1394 313.123 42.8259 314.267 42.3038C314.63 42.1211 314.735 41.9124 314.63 41.5206L314.267 40.1632C314.188 39.8498 313.981 39.7714 313.591 39.9281C312.499 40.3719 311.486 40.5806 310.368 40.5806C308.315 40.5806 306.807 39.2233 306.6 37.1347H314.319C314.994 37.1347 315.176 36.9779 315.176 36.3515V35.9596C315.176 32.0699 313.123 29.6678 309.77 29.6678C305.872 29.6678 303.247 32.3569 303.247 36.3515C303.247 40.5546 305.742 43.1394 309.822 43.1394ZM306.651 35.0461C306.885 33.2705 308.055 32.1218 309.588 32.1218C311.018 32.1218 311.98 33.1661 312.031 34.7585V35.0461H306.651Z" fill="black"/>
<path d="M76.285 117V107.758H79.5223C80.6437 107.758 81.4943 107.974 82.0741 108.405C82.6538 108.833 82.9437 109.461 82.9437 110.291C82.9437 110.743 82.8273 111.143 82.5946 111.49C82.3618 111.833 82.0381 112.085 81.6234 112.246C82.0973 112.364 82.4697 112.603 82.7406 112.963C83.0156 113.323 83.1532 113.763 83.1532 114.283C83.1532 115.172 82.8696 115.845 82.3026 116.302C81.7355 116.759 80.9273 116.992 79.8778 117H76.285ZM78.1893 112.976V115.47H79.8206C80.2692 115.47 80.6183 115.364 80.868 115.153C81.1219 114.937 81.2489 114.641 81.2489 114.264C81.2489 113.418 80.8109 112.988 79.9349 112.976H78.1893ZM78.1893 111.63H79.5985C80.5591 111.613 81.0394 111.23 81.0394 110.481C81.0394 110.062 80.9167 109.762 80.6712 109.58C80.43 109.393 80.047 109.3 79.5223 109.3H78.1893V111.63ZM89.6171 117C89.5325 116.835 89.4711 116.63 89.433 116.384C88.9887 116.879 88.4111 117.127 87.7001 117.127C87.0273 117.127 86.4687 116.932 86.0243 116.543C85.5842 116.154 85.3642 115.663 85.3642 115.07C85.3642 114.342 85.6329 113.784 86.1703 113.395C86.712 113.005 87.4928 112.808 88.5126 112.804H89.3569V112.411C89.3569 112.093 89.2743 111.839 89.1093 111.649C88.9485 111.458 88.6925 111.363 88.3412 111.363C88.0323 111.363 87.789 111.437 87.6113 111.585C87.4377 111.734 87.351 111.937 87.351 112.195H85.5165C85.5165 111.797 85.6392 111.429 85.8847 111.09C86.1301 110.752 86.4771 110.487 86.9257 110.297C87.3743 110.102 87.8779 110.005 88.4364 110.005C89.2828 110.005 89.9535 110.219 90.4487 110.646C90.948 111.069 91.1977 111.666 91.1977 112.436V115.413C91.2019 116.065 91.2929 116.558 91.4706 116.892V117H89.6171ZM88.1 115.724C88.3709 115.724 88.6205 115.665 88.849 115.546C89.0776 115.424 89.2468 115.261 89.3569 115.058V113.877H88.6713C87.753 113.877 87.2642 114.194 87.205 114.829L87.1987 114.937C87.1987 115.166 87.2791 115.354 87.4399 115.502C87.6007 115.65 87.8207 115.724 88.1 115.724ZM96.6333 115.648C96.9718 115.648 97.2469 115.555 97.4585 115.369C97.6701 115.182 97.7801 114.935 97.7886 114.626H99.5088C99.5046 115.091 99.3776 115.519 99.1279 115.908C98.8783 116.293 98.5355 116.594 98.0996 116.81C97.668 117.021 97.1898 117.127 96.665 117.127C95.6833 117.127 94.9089 116.816 94.3418 116.194C93.7747 115.568 93.4912 114.704 93.4912 113.604V113.483C93.4912 112.425 93.7726 111.581 94.3355 110.951C94.8983 110.32 95.6706 110.005 96.6523 110.005C97.5114 110.005 98.1991 110.25 98.7153 110.741C99.2358 111.228 99.5003 111.877 99.5088 112.69H97.7886C97.7801 112.334 97.6701 112.047 97.4585 111.827C97.2469 111.602 96.9676 111.49 96.6206 111.49C96.1932 111.49 95.8695 111.647 95.6494 111.96C95.4336 112.269 95.3257 112.772 95.3257 113.471V113.661C95.3257 114.368 95.4336 114.876 95.6494 115.185C95.8652 115.493 96.1932 115.648 96.6333 115.648ZM103.516 110.881C104.003 110.297 104.614 110.005 105.351 110.005C106.84 110.005 107.596 110.87 107.617 112.601V117H105.782V112.652C105.782 112.258 105.698 111.968 105.528 111.782C105.359 111.592 105.078 111.497 104.684 111.497C104.147 111.497 103.757 111.704 103.516 112.119V117H101.682V107.25H103.516V110.881ZM113.332 117.127C112.325 117.127 111.504 116.818 110.869 116.2C110.238 115.582 109.923 114.759 109.923 113.731V113.553C109.923 112.863 110.056 112.248 110.323 111.706C110.59 111.16 110.966 110.741 111.453 110.449C111.944 110.153 112.502 110.005 113.129 110.005C114.068 110.005 114.806 110.301 115.344 110.894C115.886 111.486 116.156 112.326 116.156 113.414V114.163H111.783C111.842 114.611 112.02 114.971 112.316 115.242C112.617 115.513 112.995 115.648 113.452 115.648C114.159 115.648 114.711 115.392 115.109 114.88L116.01 115.889C115.735 116.278 115.363 116.583 114.893 116.803C114.424 117.019 113.903 117.127 113.332 117.127ZM113.122 111.49C112.758 111.49 112.462 111.613 112.234 111.858C112.009 112.104 111.865 112.455 111.802 112.912H114.354V112.766C114.345 112.36 114.235 112.047 114.024 111.827C113.812 111.602 113.512 111.49 113.122 111.49ZM120.31 117H118.469V107.25H120.31V117ZM122.711 113.502C122.711 112.821 122.842 112.214 123.105 111.681C123.367 111.147 123.744 110.735 124.235 110.443C124.73 110.151 125.303 110.005 125.955 110.005C126.882 110.005 127.637 110.288 128.221 110.855C128.809 111.423 129.137 112.193 129.205 113.166L129.218 113.636C129.218 114.689 128.923 115.536 128.335 116.175C127.747 116.81 126.958 117.127 125.968 117.127C124.977 117.127 124.186 116.81 123.594 116.175C123.005 115.54 122.711 114.677 122.711 113.585V113.502ZM124.546 113.636C124.546 114.287 124.668 114.787 124.914 115.134C125.159 115.477 125.511 115.648 125.968 115.648C126.412 115.648 126.759 115.479 127.009 115.14C127.258 114.797 127.383 114.251 127.383 113.502C127.383 112.863 127.258 112.368 127.009 112.017C126.759 111.666 126.408 111.49 125.955 111.49C125.506 111.49 125.159 111.666 124.914 112.017C124.668 112.364 124.546 112.904 124.546 113.636ZM135.377 111.852C135.127 111.818 134.907 111.801 134.717 111.801C134.023 111.801 133.568 112.036 133.352 112.506V117H131.517V110.132H133.25L133.301 110.951C133.669 110.32 134.179 110.005 134.831 110.005C135.034 110.005 135.225 110.032 135.402 110.087L135.377 111.852ZM141.557 113.502C141.557 112.821 141.688 112.214 141.951 111.681C142.213 111.147 142.59 110.735 143.081 110.443C143.576 110.151 144.149 110.005 144.801 110.005C145.728 110.005 146.483 110.288 147.067 110.855C147.655 111.423 147.983 112.193 148.051 113.166L148.064 113.636C148.064 114.689 147.769 115.536 147.181 116.175C146.593 116.81 145.804 117.127 144.814 117.127C143.823 117.127 143.032 116.81 142.44 116.175C141.851 115.54 141.557 114.677 141.557 113.585V113.502ZM143.392 113.636C143.392 114.287 143.514 114.787 143.76 115.134C144.005 115.477 144.357 115.648 144.814 115.648C145.258 115.648 145.605 115.479 145.855 115.14C146.104 114.797 146.229 114.251 146.229 113.502C146.229 112.863 146.104 112.368 145.855 112.017C145.605 111.666 145.254 111.49 144.801 111.49C144.352 111.49 144.005 111.666 143.76 112.017C143.514 112.364 143.392 112.904 143.392 113.636ZM150.865 117V111.478H149.843V110.132H150.865V109.548C150.865 108.778 151.085 108.181 151.525 107.758C151.969 107.33 152.589 107.117 153.385 107.117C153.639 107.117 153.95 107.159 154.318 107.244L154.299 108.666C154.147 108.627 153.96 108.608 153.74 108.608C153.051 108.608 152.706 108.932 152.706 109.58V110.132H154.07V111.478H152.706V117H150.865ZM165.938 115.096H162.599L161.965 117H159.94L163.38 107.758H165.145L168.604 117H166.579L165.938 115.096ZM163.114 113.553H165.424L164.263 110.094L163.114 113.553ZM174.376 111.852C174.127 111.818 173.907 111.801 173.716 111.801C173.022 111.801 172.567 112.036 172.351 112.506V117H170.517V110.132H172.25L172.301 110.951C172.669 110.32 173.179 110.005 173.83 110.005C174.034 110.005 174.224 110.032 174.402 110.087L174.376 111.852ZM178.949 108.443V110.132H180.123V111.478H178.949V114.905C178.949 115.159 178.997 115.341 179.095 115.451C179.192 115.561 179.378 115.616 179.653 115.616C179.856 115.616 180.036 115.601 180.193 115.572V116.962C179.833 117.072 179.463 117.127 179.082 117.127C177.796 117.127 177.14 116.477 177.114 115.178V111.478H176.111V110.132H177.114V108.443H178.949ZM186.035 115.102C186.035 114.878 185.923 114.702 185.698 114.575C185.478 114.444 185.123 114.328 184.632 114.226C182.998 113.883 182.182 113.189 182.182 112.144C182.182 111.535 182.433 111.027 182.937 110.621C183.445 110.21 184.107 110.005 184.924 110.005C185.796 110.005 186.492 110.21 187.012 110.621C187.537 111.031 187.799 111.564 187.799 112.22H185.965C185.965 111.958 185.88 111.742 185.711 111.573C185.542 111.399 185.277 111.312 184.918 111.312C184.609 111.312 184.37 111.382 184.2 111.522C184.031 111.662 183.946 111.839 183.946 112.055C183.946 112.258 184.042 112.423 184.232 112.55C184.427 112.673 184.752 112.781 185.21 112.874C185.667 112.963 186.052 113.064 186.365 113.179C187.334 113.534 187.818 114.15 187.818 115.026C187.818 115.652 187.55 116.16 187.012 116.549C186.475 116.934 185.781 117.127 184.93 117.127C184.355 117.127 183.843 117.025 183.394 116.822C182.95 116.615 182.601 116.333 182.347 115.978C182.093 115.618 181.966 115.231 181.966 114.816H183.705C183.722 115.142 183.843 115.392 184.067 115.565C184.291 115.739 184.592 115.826 184.968 115.826C185.32 115.826 185.584 115.76 185.762 115.629C185.944 115.493 186.035 115.318 186.035 115.102ZM196.519 117H194.678V110.132H196.519V117ZM194.57 108.354C194.57 108.079 194.661 107.853 194.843 107.675C195.029 107.498 195.281 107.409 195.598 107.409C195.911 107.409 196.161 107.498 196.347 107.675C196.534 107.853 196.627 108.079 196.627 108.354C196.627 108.634 196.531 108.862 196.341 109.04C196.155 109.218 195.907 109.307 195.598 109.307C195.289 109.307 195.04 109.218 194.849 109.04C194.663 108.862 194.57 108.634 194.57 108.354ZM200.894 110.132L200.951 110.925C201.442 110.312 202.1 110.005 202.926 110.005C203.653 110.005 204.195 110.219 204.551 110.646C204.906 111.073 205.088 111.712 205.096 112.563V117H203.262V112.607C203.262 112.218 203.177 111.937 203.008 111.763C202.839 111.585 202.557 111.497 202.164 111.497C201.648 111.497 201.26 111.717 201.002 112.157V117H199.168V110.132H200.894ZM215.606 114.708L217.701 107.758H219.821L216.602 117H214.616L211.41 107.758H213.524L215.606 114.708ZM223.682 117H221.841V110.132H223.682V117ZM221.733 108.354C221.733 108.079 221.824 107.853 222.006 107.675C222.193 107.498 222.444 107.409 222.762 107.409C223.075 107.409 223.325 107.498 223.511 107.675C223.697 107.853 223.79 108.079 223.79 108.354C223.79 108.634 223.695 108.862 223.504 109.04C223.318 109.218 223.071 109.307 222.762 109.307C222.453 109.307 222.203 109.218 222.013 109.04C221.827 108.862 221.733 108.634 221.733 108.354ZM230.089 115.102C230.089 114.878 229.977 114.702 229.753 114.575C229.532 114.444 229.177 114.328 228.686 114.226C227.053 113.883 226.236 113.189 226.236 112.144C226.236 111.535 226.488 111.027 226.991 110.621C227.499 110.21 228.161 110.005 228.978 110.005C229.85 110.005 230.546 110.21 231.067 110.621C231.591 111.031 231.854 111.564 231.854 112.22H230.019C230.019 111.958 229.935 111.742 229.765 111.573C229.596 111.399 229.331 111.312 228.972 111.312C228.663 111.312 228.424 111.382 228.255 111.522C228.085 111.662 228.001 111.839 228.001 112.055C228.001 112.258 228.096 112.423 228.286 112.55C228.481 112.673 228.807 112.781 229.264 112.874C229.721 112.963 230.106 113.064 230.419 113.179C231.388 113.534 231.873 114.15 231.873 115.026C231.873 115.652 231.604 116.16 231.067 116.549C230.529 116.934 229.835 117.127 228.984 117.127C228.409 117.127 227.897 117.025 227.448 116.822C227.004 116.615 226.655 116.333 226.401 115.978C226.147 115.618 226.02 115.231 226.02 114.816H227.759C227.776 115.142 227.897 115.392 228.121 115.565C228.345 115.739 228.646 115.826 229.023 115.826C229.374 115.826 229.638 115.76 229.816 115.629C229.998 115.493 230.089 115.318 230.089 115.102ZM238.343 116.302C237.89 116.852 237.264 117.127 236.464 117.127C235.728 117.127 235.165 116.915 234.776 116.492C234.39 116.069 234.194 115.449 234.185 114.632V110.132H236.02V114.569C236.02 115.284 236.346 115.642 236.997 115.642C237.619 115.642 238.047 115.426 238.279 114.994V110.132H240.12V117H238.394L238.343 116.302ZM245.835 117.127C244.828 117.127 244.007 116.818 243.372 116.2C242.742 115.582 242.427 114.759 242.427 113.731V113.553C242.427 112.863 242.56 112.248 242.826 111.706C243.093 111.16 243.47 110.741 243.956 110.449C244.447 110.153 245.006 110.005 245.632 110.005C246.572 110.005 247.31 110.301 247.847 110.894C248.389 111.486 248.66 112.326 248.66 113.414V114.163H244.286C244.346 114.611 244.523 114.971 244.82 115.242C245.12 115.513 245.499 115.648 245.956 115.648C246.663 115.648 247.215 115.392 247.613 114.88L248.514 115.889C248.239 116.278 247.866 116.583 247.397 116.803C246.927 117.019 246.407 117.127 245.835 117.127ZM245.626 111.49C245.262 111.49 244.966 111.613 244.737 111.858C244.513 112.104 244.369 112.455 244.305 112.912H246.857V112.766C246.849 112.36 246.739 112.047 246.527 111.827C246.316 111.602 246.015 111.49 245.626 111.49ZM252.813 117H250.973V107.25H252.813V117ZM257.436 117H255.596V107.25H257.436V117ZM263.285 117.127C262.278 117.127 261.457 116.818 260.822 116.2C260.191 115.582 259.876 114.759 259.876 113.731V113.553C259.876 112.863 260.009 112.248 260.276 111.706C260.542 111.16 260.919 110.741 261.406 110.449C261.897 110.153 262.455 110.005 263.082 110.005C264.021 110.005 264.759 110.301 265.297 110.894C265.839 111.486 266.109 112.326 266.109 113.414V114.163H261.736C261.795 114.611 261.973 114.971 262.269 115.242C262.569 115.513 262.948 115.648 263.405 115.648C264.112 115.648 264.664 115.392 265.062 114.88L265.963 115.889C265.688 116.278 265.316 116.583 264.846 116.803C264.376 117.019 263.856 117.127 263.285 117.127ZM263.075 111.49C262.711 111.49 262.415 111.613 262.187 111.858C261.962 112.104 261.818 112.455 261.755 112.912H264.307V112.766C264.298 112.36 264.188 112.047 263.977 111.827C263.765 111.602 263.465 111.49 263.075 111.49ZM272.186 111.852C271.936 111.818 271.716 111.801 271.526 111.801C270.832 111.801 270.377 112.036 270.161 112.506V117H268.327V110.132H270.06L270.11 110.951C270.479 110.32 270.989 110.005 271.64 110.005C271.843 110.005 272.034 110.032 272.212 110.087L272.186 111.852ZM67.0608 128.293L66.0706 129.359V132H64.1663V122.758H66.0706V126.947L66.9085 125.798L69.2635 122.758H71.6058L68.324 126.865L71.701 132H69.4349L67.0608 128.293ZM73.0043 128.502C73.0043 127.821 73.1355 127.214 73.3978 126.681C73.6602 126.147 74.0368 125.735 74.5277 125.443C75.0228 125.151 75.5962 125.005 76.2479 125.005C77.1747 125.005 77.9301 125.288 78.514 125.855C79.1023 126.423 79.4302 127.193 79.4979 128.166L79.5106 128.636C79.5106 129.689 79.2165 130.536 78.6283 131.175C78.0401 131.81 77.2509 132.127 76.2606 132.127C75.2704 132.127 74.479 131.81 73.8866 131.175C73.2984 130.54 73.0043 129.677 73.0043 128.585V128.502ZM74.8387 128.636C74.8387 129.287 74.9615 129.787 75.2069 130.134C75.4524 130.477 75.8036 130.648 76.2606 130.648C76.705 130.648 77.052 130.479 77.3016 130.14C77.5513 129.797 77.6761 129.251 77.6761 128.502C77.6761 127.863 77.5513 127.368 77.3016 127.017C77.052 126.666 76.7007 126.49 76.2479 126.49C75.7994 126.49 75.4524 126.666 75.2069 127.017C74.9615 127.364 74.8387 127.904 74.8387 128.636ZM83.5307 125.132L83.5878 125.9C84.0745 125.303 84.7325 125.005 85.562 125.005C86.4464 125.005 87.0537 125.354 87.3837 126.052C87.8662 125.354 88.5538 125.005 89.4467 125.005C90.1915 125.005 90.7459 125.223 91.1098 125.659C91.4738 126.09 91.6557 126.742 91.6557 127.614V132H89.8149V127.62C89.8149 127.231 89.7387 126.947 89.5864 126.77C89.434 126.588 89.1653 126.497 88.7802 126.497C88.2301 126.497 87.8492 126.759 87.6377 127.284L87.644 132H85.8095V127.626C85.8095 127.229 85.7312 126.941 85.5747 126.763C85.4181 126.585 85.1515 126.497 84.7749 126.497C84.2544 126.497 83.8777 126.712 83.645 127.144V132H81.8105V125.132H83.5307ZM95.9615 125.132L96.0186 125.9C96.5052 125.303 97.1633 125.005 97.9927 125.005C98.8772 125.005 99.4844 125.354 99.8145 126.052C100.297 125.354 100.985 125.005 101.877 125.005C102.622 125.005 103.177 125.223 103.541 125.659C103.904 126.09 104.086 126.742 104.086 127.614V132H102.246V127.62C102.246 127.231 102.169 126.947 102.017 126.77C101.865 126.588 101.596 126.497 101.211 126.497C100.661 126.497 100.28 126.759 100.068 127.284L100.075 132H98.2403V127.626C98.2403 127.229 98.162 126.941 98.0054 126.763C97.8488 126.585 97.5822 126.497 97.2056 126.497C96.6851 126.497 96.3085 126.712 96.0757 127.144V132H94.2412V125.132H95.9615ZM110.785 131.302C110.332 131.852 109.706 132.127 108.906 132.127C108.17 132.127 107.607 131.915 107.218 131.492C106.833 131.069 106.636 130.449 106.628 129.632V125.132H108.462V129.569C108.462 130.284 108.788 130.642 109.44 130.642C110.062 130.642 110.489 130.426 110.722 129.994V125.132H112.563V132H110.836L110.785 131.302ZM116.805 125.132L116.862 125.925C117.353 125.312 118.011 125.005 118.836 125.005C119.564 125.005 120.106 125.219 120.461 125.646C120.817 126.073 120.999 126.712 121.007 127.563V132H119.173V127.607C119.173 127.218 119.088 126.937 118.919 126.763C118.749 126.585 118.468 126.497 118.074 126.497C117.558 126.497 117.171 126.717 116.913 127.157V132H115.078V125.132H116.805ZM125.51 132H123.669V125.132H125.51V132ZM123.561 123.354C123.561 123.079 123.652 122.853 123.834 122.675C124.02 122.498 124.272 122.409 124.589 122.409C124.902 122.409 125.152 122.498 125.338 122.675C125.524 122.853 125.617 123.079 125.617 123.354C125.617 123.634 125.522 123.862 125.332 124.04C125.146 124.218 124.898 124.307 124.589 124.307C124.28 124.307 124.031 124.218 123.84 124.04C123.654 123.862 123.561 123.634 123.561 123.354ZM130.691 129.245L130.031 129.905V132H128.197V122.25H130.031V127.652L130.387 127.195L132.145 125.132H134.348L131.866 127.995L134.563 132H132.456L130.691 129.245ZM140.291 132C140.206 131.835 140.145 131.63 140.107 131.384C139.663 131.879 139.085 132.127 138.374 132.127C137.701 132.127 137.143 131.932 136.698 131.543C136.258 131.154 136.038 130.663 136.038 130.07C136.038 129.342 136.307 128.784 136.844 128.395C137.386 128.005 138.167 127.808 139.186 127.804H140.031V127.411C140.031 127.093 139.948 126.839 139.783 126.649C139.622 126.458 139.366 126.363 139.015 126.363C138.706 126.363 138.463 126.437 138.285 126.585C138.112 126.734 138.025 126.937 138.025 127.195H136.19C136.19 126.797 136.313 126.429 136.559 126.09C136.804 125.752 137.151 125.487 137.6 125.297C138.048 125.102 138.552 125.005 139.11 125.005C139.957 125.005 140.627 125.219 141.122 125.646C141.622 126.069 141.872 126.666 141.872 127.436V130.413C141.876 131.065 141.967 131.558 142.144 131.892V132H140.291ZM138.774 130.724C139.045 130.724 139.294 130.665 139.523 130.546C139.751 130.424 139.921 130.261 140.031 130.058V128.877H139.345C138.427 128.877 137.938 129.194 137.879 129.829L137.872 129.937C137.872 130.166 137.953 130.354 138.114 130.502C138.275 130.65 138.495 130.724 138.774 130.724ZM146.647 123.443V125.132H147.821V126.478H146.647V129.905C146.647 130.159 146.696 130.341 146.793 130.451C146.89 130.561 147.077 130.616 147.352 130.616C147.555 130.616 147.735 130.601 147.891 130.572V131.962C147.531 132.072 147.161 132.127 146.78 132.127C145.494 132.127 144.838 131.477 144.813 130.178V126.478H143.81V125.132H144.813V123.443H146.647ZM151.949 132H150.108V125.132H151.949V132ZM150.001 123.354C150.001 123.079 150.092 122.853 150.274 122.675C150.46 122.498 150.712 122.409 151.029 122.409C151.342 122.409 151.592 122.498 151.778 122.675C151.964 122.853 152.057 123.079 152.057 123.354C152.057 123.634 151.962 123.862 151.772 124.04C151.585 124.218 151.338 124.307 151.029 124.307C150.72 124.307 150.47 124.218 150.28 124.04C150.094 123.862 150.001 123.634 150.001 123.354ZM154.351 128.502C154.351 127.821 154.482 127.214 154.744 126.681C155.007 126.147 155.383 125.735 155.874 125.443C156.369 125.151 156.943 125.005 157.594 125.005C158.521 125.005 159.277 125.288 159.861 125.855C160.449 126.423 160.777 127.193 160.844 128.166L160.857 128.636C160.857 129.689 160.563 130.536 159.975 131.175C159.387 131.81 158.597 132.127 157.607 132.127C156.617 132.127 155.826 131.81 155.233 131.175C154.645 130.54 154.351 129.677 154.351 128.585V128.502ZM156.185 128.636C156.185 129.287 156.308 129.787 156.553 130.134C156.799 130.477 157.15 130.648 157.607 130.648C158.051 130.648 158.398 130.479 158.648 130.14C158.898 129.797 159.023 129.251 159.023 128.502C159.023 127.863 158.898 127.368 158.648 127.017C158.398 126.666 158.047 126.49 157.594 126.49C157.146 126.49 156.799 126.666 156.553 127.017C156.308 127.364 156.185 127.904 156.185 128.636ZM164.845 125.132L164.903 125.925C165.393 125.312 166.052 125.005 166.877 125.005C167.605 125.005 168.146 125.219 168.502 125.646C168.857 126.073 169.039 126.712 169.048 127.563V132H167.213V127.607C167.213 127.218 167.129 126.937 166.959 126.763C166.79 126.585 166.509 126.497 166.115 126.497C165.599 126.497 165.212 126.717 164.953 127.157V132H163.119V125.132H164.845ZM172.09 134.317L171.132 133.815L171.36 133.403C171.644 132.887 171.79 132.372 171.798 131.86V130.438H173.347L173.341 131.708C173.336 132.178 173.218 132.652 172.985 133.13C172.752 133.608 172.454 134.004 172.09 134.317ZM180.486 132V122.758H183.33C184.142 122.758 184.868 122.942 185.507 123.31C186.15 123.674 186.652 124.194 187.011 124.872C187.371 125.544 187.551 126.31 187.551 127.169V127.595C187.551 128.454 187.373 129.218 187.018 129.886C186.666 130.555 186.169 131.073 185.526 131.441C184.883 131.81 184.157 131.996 183.349 132H180.486ZM182.39 124.3V130.47H183.311C184.055 130.47 184.625 130.227 185.018 129.74C185.412 129.254 185.613 128.557 185.621 127.652V127.163C185.621 126.224 185.426 125.513 185.037 125.03C184.648 124.544 184.079 124.3 183.33 124.3H182.39ZM191.926 132H190.086V125.132H191.926V132ZM189.978 123.354C189.978 123.079 190.069 122.853 190.251 122.675C190.437 122.498 190.689 122.409 191.006 122.409C191.319 122.409 191.569 122.498 191.755 122.675C191.941 122.853 192.034 123.079 192.034 123.354C192.034 123.634 191.939 123.862 191.749 124.04C191.562 124.218 191.315 124.307 191.006 124.307C190.697 124.307 190.447 124.218 190.257 124.04C190.071 123.862 189.978 123.634 189.978 123.354ZM194.347 128.515C194.347 127.461 194.597 126.613 195.096 125.97C195.599 125.326 196.277 125.005 197.127 125.005C197.88 125.005 198.466 125.263 198.885 125.779L198.962 125.132H200.625V131.771C200.625 132.372 200.487 132.895 200.212 133.339C199.941 133.784 199.558 134.122 199.063 134.355C198.568 134.588 197.988 134.704 197.324 134.704C196.82 134.704 196.329 134.603 195.851 134.399C195.373 134.201 195.011 133.942 194.766 133.625L195.578 132.508C196.035 133.02 196.59 133.276 197.241 133.276C197.728 133.276 198.107 133.145 198.378 132.882C198.648 132.624 198.784 132.256 198.784 131.778V131.41C198.361 131.888 197.804 132.127 197.114 132.127C196.289 132.127 195.621 131.805 195.109 131.162C194.601 130.515 194.347 129.658 194.347 128.591V128.515ZM196.181 128.648C196.181 129.271 196.306 129.759 196.556 130.115C196.805 130.466 197.148 130.642 197.584 130.642C198.143 130.642 198.543 130.432 198.784 130.013V127.125C198.538 126.706 198.143 126.497 197.597 126.497C197.157 126.497 196.81 126.676 196.556 127.036C196.306 127.396 196.181 127.933 196.181 128.648ZM205.146 132H203.305V125.132H205.146V132ZM203.197 123.354C203.197 123.079 203.288 122.853 203.47 122.675C203.657 122.498 203.908 122.409 204.226 122.409C204.539 122.409 204.789 122.498 204.975 122.675C205.161 122.853 205.254 123.079 205.254 123.354C205.254 123.634 205.159 123.862 204.968 124.04C204.782 124.218 204.535 124.307 204.226 124.307C203.917 124.307 203.667 124.218 203.477 124.04C203.291 123.862 203.197 123.634 203.197 123.354ZM210.03 123.443V125.132H211.204V126.478H210.03V129.905C210.03 130.159 210.078 130.341 210.176 130.451C210.273 130.561 210.459 130.616 210.734 130.616C210.937 130.616 211.117 130.601 211.274 130.572V131.962C210.914 132.072 210.544 132.127 210.163 132.127C208.876 132.127 208.221 131.477 208.195 130.178V126.478H207.192V125.132H208.195V123.443H210.03ZM217.376 132C217.291 131.835 217.23 131.63 217.192 131.384C216.747 131.879 216.17 132.127 215.459 132.127C214.786 132.127 214.227 131.932 213.783 131.543C213.343 131.154 213.123 130.663 213.123 130.07C213.123 129.342 213.392 128.784 213.929 128.395C214.471 128.005 215.252 127.808 216.271 127.804H217.116V127.411C217.116 127.093 217.033 126.839 216.868 126.649C216.707 126.458 216.451 126.363 216.1 126.363C215.791 126.363 215.548 126.437 215.37 126.585C215.197 126.734 215.11 126.937 215.11 127.195H213.275C213.275 126.797 213.398 126.429 213.643 126.09C213.889 125.752 214.236 125.487 214.684 125.297C215.133 125.102 215.637 125.005 216.195 125.005C217.042 125.005 217.712 125.219 218.207 125.646C218.707 126.069 218.956 126.666 218.956 127.436V130.413C218.961 131.065 219.052 131.558 219.229 131.892V132H217.376ZM215.859 130.724C216.13 130.724 216.379 130.665 216.608 130.546C216.836 130.424 217.006 130.261 217.116 130.058V128.877H216.43C215.512 128.877 215.023 129.194 214.964 129.829L214.957 129.937C214.957 130.166 215.038 130.354 215.199 130.502C215.359 130.65 215.579 130.724 215.859 130.724ZM223.472 132H221.631V122.25H223.472V132ZM232.712 132H230.807V122.758H232.712V132ZM235.246 128.515C235.246 127.444 235.485 126.592 235.964 125.957C236.446 125.322 237.104 125.005 237.938 125.005C238.606 125.005 239.159 125.255 239.594 125.754V122.25H241.435V132H239.779L239.69 131.27C239.233 131.841 238.644 132.127 237.925 132.127C237.117 132.127 236.467 131.81 235.976 131.175C235.49 130.536 235.246 129.649 235.246 128.515ZM237.081 128.648C237.081 129.292 237.193 129.785 237.417 130.127C237.641 130.47 237.967 130.642 238.395 130.642C238.962 130.642 239.362 130.403 239.594 129.924V127.214C239.366 126.736 238.97 126.497 238.407 126.497C237.523 126.497 237.081 127.214 237.081 128.648ZM247.188 132.127C246.181 132.127 245.36 131.818 244.725 131.2C244.095 130.582 243.78 129.759 243.78 128.731V128.553C243.78 127.863 243.913 127.248 244.179 126.706C244.446 126.16 244.823 125.741 245.309 125.449C245.8 125.153 246.359 125.005 246.985 125.005C247.925 125.005 248.663 125.301 249.2 125.894C249.742 126.486 250.013 127.326 250.013 128.414V129.163H245.639C245.699 129.611 245.876 129.971 246.173 130.242C246.473 130.513 246.852 130.648 247.309 130.648C248.016 130.648 248.568 130.392 248.966 129.88L249.867 130.889C249.592 131.278 249.22 131.583 248.75 131.803C248.28 132.019 247.76 132.127 247.188 132.127ZM246.979 126.49C246.615 126.49 246.319 126.613 246.09 126.858C245.866 127.104 245.722 127.455 245.658 127.912H248.21V127.766C248.202 127.36 248.092 127.047 247.88 126.827C247.669 126.602 247.368 126.49 246.979 126.49ZM256.21 132C256.126 131.835 256.064 131.63 256.026 131.384C255.582 131.879 255.004 132.127 254.293 132.127C253.62 132.127 253.062 131.932 252.618 131.543C252.177 131.154 251.957 130.663 251.957 130.07C251.957 129.342 252.226 128.784 252.764 128.395C253.305 128.005 254.086 127.808 255.106 127.804H255.95V127.411C255.95 127.093 255.868 126.839 255.703 126.649C255.542 126.458 255.286 126.363 254.934 126.363C254.626 126.363 254.382 126.437 254.204 126.585C254.031 126.734 253.944 126.937 253.944 127.195H252.11C252.11 126.797 252.232 126.429 252.478 126.09C252.723 125.752 253.07 125.487 253.519 125.297C253.967 125.102 254.471 125.005 255.03 125.005C255.876 125.005 256.547 125.219 257.042 125.646C257.541 126.069 257.791 126.666 257.791 127.436V130.413C257.795 131.065 257.886 131.558 258.064 131.892V132H256.21ZM254.693 130.724C254.964 130.724 255.214 130.665 255.442 130.546C255.671 130.424 255.84 130.261 255.95 130.058V128.877H255.265C254.346 128.877 253.857 129.194 253.798 129.829L253.792 129.937C253.792 130.166 253.872 130.354 254.033 130.502C254.194 130.65 254.414 130.724 254.693 130.724ZM262.566 123.443V125.132H263.741V126.478H262.566V129.905C262.566 130.159 262.615 130.341 262.712 130.451C262.81 130.561 262.996 130.616 263.271 130.616C263.474 130.616 263.654 130.601 263.811 130.572V131.962C263.451 132.072 263.081 132.127 262.7 132.127C261.413 132.127 260.757 131.477 260.732 130.178V126.478H259.729V125.132H260.732V123.443H262.566ZM267.869 132H266.028V125.132H267.869V132ZM265.92 123.354C265.92 123.079 266.011 122.853 266.193 122.675C266.379 122.498 266.631 122.409 266.948 122.409C267.261 122.409 267.511 122.498 267.697 122.675C267.883 122.853 267.977 123.079 267.977 123.354C267.977 123.634 267.881 123.862 267.691 124.04C267.505 124.218 267.257 124.307 266.948 124.307C266.639 124.307 266.39 124.218 266.199 124.04C266.013 123.862 265.92 123.634 265.92 123.354ZM270.27 128.502C270.27 127.821 270.401 127.214 270.664 126.681C270.926 126.147 271.303 125.735 271.794 125.443C272.289 125.151 272.862 125.005 273.514 125.005C274.441 125.005 275.196 125.288 275.78 125.855C276.368 126.423 276.696 127.193 276.764 128.166L276.776 128.636C276.776 129.689 276.482 130.536 275.894 131.175C275.306 131.81 274.517 132.127 273.526 132.127C272.536 132.127 271.745 131.81 271.152 131.175C270.564 130.54 270.27 129.677 270.27 128.585V128.502ZM272.105 128.636C272.105 129.287 272.227 129.787 272.473 130.134C272.718 130.477 273.069 130.648 273.526 130.648C273.971 130.648 274.318 130.479 274.567 130.14C274.817 129.797 274.942 129.251 274.942 128.502C274.942 127.863 274.817 127.368 274.567 127.017C274.318 126.666 273.967 126.49 273.514 126.49C273.065 126.49 272.718 126.666 272.473 127.017C272.227 127.364 272.105 127.904 272.105 128.636ZM280.765 125.132L280.822 125.925C281.313 125.312 281.971 125.005 282.796 125.005C283.524 125.005 284.066 125.219 284.421 125.646C284.777 126.073 284.959 126.712 284.967 127.563V132H283.133V127.607C283.133 127.218 283.048 126.937 282.879 126.763C282.709 126.585 282.428 126.497 282.034 126.497C281.518 126.497 281.131 126.717 280.873 127.157V132H279.038V125.132H280.765Z" fill="black"/>
<path d="M91.3477 162.854C91.3477 162.145 91.0987 161.585 90.6007 161.175C90.1026 160.759 89.1915 160.366 87.8673 159.997C86.543 159.622 85.5762 159.215 84.9669 158.775C84.0997 158.154 83.6661 157.34 83.6661 156.332C83.6661 155.354 84.0675 154.56 84.8702 153.95C85.6788 153.335 86.71 153.027 87.9639 153.027C88.8136 153.027 89.5723 153.191 90.2403 153.52C90.9141 153.848 91.4356 154.305 91.8048 154.891C92.1739 155.477 92.3585 156.13 92.3585 156.851H91.2686C91.2686 155.978 90.9698 155.277 90.3721 154.75C89.7745 154.217 88.9718 153.95 87.9639 153.95C86.9854 153.95 86.2061 154.17 85.6261 154.609C85.046 155.043 84.7559 155.611 84.7559 156.314C84.7559 156.965 85.0167 157.495 85.5382 157.905C86.0596 158.315 86.8946 158.679 88.043 158.995C89.1915 159.306 90.0616 159.631 90.6534 159.971C91.2452 160.305 91.6905 160.706 91.9893 161.175C92.2882 161.644 92.4376 162.197 92.4376 162.836C92.4376 163.844 92.0333 164.652 91.2247 165.262C90.422 165.871 89.3614 166.176 88.043 166.176C87.1407 166.176 86.3116 166.015 85.5557 165.692C84.8057 165.37 84.2345 164.919 83.8419 164.339C83.4552 163.759 83.2618 163.094 83.2618 162.344H84.3428C84.3428 163.246 84.6798 163.958 85.3536 164.479C86.0274 165.001 86.9239 165.262 88.043 165.262C89.0391 165.262 89.8389 165.042 90.4425 164.603C91.046 164.163 91.3477 163.58 91.3477 162.854ZM99.832 166.176C99.0234 166.176 98.291 165.977 97.6347 165.578C96.9843 165.18 96.4775 164.626 96.1142 163.917C95.7509 163.202 95.5693 162.402 95.5693 161.518V161.14C95.5693 160.226 95.7451 159.402 96.0966 158.67C96.4541 157.938 96.9492 157.363 97.582 156.947C98.2148 156.525 98.9003 156.314 99.6386 156.314C100.793 156.314 101.707 156.71 102.381 157.501C103.061 158.286 103.4 159.361 103.4 160.727V161.315H96.6152V161.518C96.6152 162.596 96.9228 163.495 97.538 164.216C98.1591 164.931 98.9384 165.288 99.8759 165.288C100.438 165.288 100.934 165.186 101.361 164.98C101.795 164.775 102.187 164.447 102.539 163.996L103.198 164.497C102.425 165.616 101.303 166.176 99.832 166.176ZM99.6386 157.211C98.8476 157.211 98.1796 157.501 97.6347 158.081C97.0957 158.661 96.7675 159.44 96.6503 160.419H102.354V160.305C102.325 159.391 102.064 158.646 101.572 158.072C101.08 157.498 100.436 157.211 99.6386 157.211ZM114.715 161.342C114.715 162.824 114.387 164.002 113.73 164.875C113.074 165.742 112.195 166.176 111.094 166.176C109.793 166.176 108.797 165.719 108.105 164.805V169.656H107.059V156.49H108.035L108.088 157.835C108.773 156.821 109.766 156.314 111.067 156.314C112.204 156.314 113.095 156.745 113.739 157.606C114.389 158.468 114.715 159.663 114.715 161.192V161.342ZM113.66 161.157C113.66 159.944 113.411 158.986 112.913 158.283C112.415 157.58 111.721 157.229 110.83 157.229C110.185 157.229 109.632 157.384 109.169 157.694C108.706 158.005 108.351 158.456 108.105 159.048V163.609C108.357 164.154 108.718 164.57 109.186 164.857C109.655 165.145 110.209 165.288 110.847 165.288C111.732 165.288 112.421 164.937 112.913 164.233C113.411 163.524 113.66 162.499 113.66 161.157ZM118.576 165.367C118.576 165.162 118.64 164.989 118.769 164.849C118.904 164.702 119.089 164.629 119.323 164.629C119.557 164.629 119.742 164.702 119.877 164.849C120.011 164.989 120.079 165.162 120.079 165.367C120.079 165.572 120.011 165.742 119.877 165.877C119.742 166.006 119.557 166.07 119.323 166.07C119.089 166.07 118.904 166.006 118.769 165.877C118.64 165.742 118.576 165.572 118.576 165.367ZM138.445 166H130.429V165.191L134.815 160.217C135.541 159.379 136.045 158.688 136.327 158.143C136.608 157.598 136.749 157.067 136.749 156.552C136.749 155.743 136.511 155.104 136.037 154.636C135.562 154.161 134.909 153.924 134.077 153.924C133.215 153.924 132.518 154.199 131.985 154.75C131.457 155.301 131.194 156.016 131.194 156.895H130.148C130.148 156.174 130.309 155.518 130.631 154.926C130.959 154.334 131.422 153.871 132.02 153.537C132.624 153.197 133.309 153.027 134.077 153.027C135.249 153.027 136.163 153.335 136.819 153.95C137.481 154.565 137.812 155.403 137.812 156.464C137.812 157.062 137.624 157.715 137.249 158.424C136.88 159.133 136.227 160.018 135.29 161.078L131.721 165.112H138.445V166ZM149.75 160.665C149.75 162.47 149.419 163.841 148.757 164.778C148.095 165.71 147.119 166.176 145.83 166.176C144.565 166.176 143.595 165.719 142.921 164.805C142.247 163.885 141.902 162.549 141.884 160.797V158.503C141.884 156.704 142.218 155.342 142.886 154.416C143.554 153.49 144.53 153.027 145.813 153.027C147.078 153.027 148.045 153.476 148.713 154.372C149.381 155.263 149.727 156.578 149.75 158.318V160.665ZM148.696 158.371C148.696 156.906 148.455 155.799 147.975 155.049C147.5 154.299 146.78 153.924 145.813 153.924C144.864 153.924 144.149 154.29 143.668 155.022C143.188 155.755 142.942 156.836 142.93 158.266V160.779C142.93 162.238 143.176 163.354 143.668 164.128C144.166 164.901 144.887 165.288 145.83 165.288C146.768 165.288 147.477 164.91 147.957 164.154C148.444 163.398 148.69 162.291 148.696 160.832V158.371ZM161.654 166H153.638V165.191L158.024 160.217C158.75 159.379 159.254 158.688 159.535 158.143C159.817 157.598 159.957 157.067 159.957 156.552C159.957 155.743 159.72 155.104 159.245 154.636C158.771 154.161 158.117 153.924 157.285 153.924C156.424 153.924 155.727 154.199 155.194 154.75C154.666 155.301 154.403 156.016 154.403 156.895H153.357C153.357 156.174 153.518 155.518 153.84 154.926C154.168 154.334 154.631 153.871 155.229 153.537C155.832 153.197 156.518 153.027 157.285 153.027C158.457 153.027 159.371 153.335 160.028 153.95C160.69 154.565 161.021 155.403 161.021 156.464C161.021 157.062 160.833 157.715 160.458 158.424C160.089 159.133 159.436 160.018 158.498 161.078L154.93 165.112H161.654V166ZM172.959 160.665C172.959 162.47 172.628 163.841 171.966 164.778C171.304 165.71 170.328 166.176 169.039 166.176C167.774 166.176 166.804 165.719 166.13 164.805C165.456 163.885 165.11 162.549 165.093 160.797V158.503C165.093 156.704 165.427 155.342 166.095 154.416C166.763 153.49 167.738 153.027 169.022 153.027C170.287 153.027 171.254 153.476 171.922 154.372C172.59 155.263 172.936 156.578 172.959 158.318V160.665ZM171.904 158.371C171.904 156.906 171.664 155.799 171.184 155.049C170.709 154.299 169.988 153.924 169.022 153.924C168.072 153.924 167.358 154.29 166.877 155.022C166.397 155.755 166.151 156.836 166.139 158.266V160.779C166.139 162.238 166.385 163.354 166.877 164.128C167.375 164.901 168.096 165.288 169.039 165.288C169.977 165.288 170.686 164.91 171.166 164.154C171.652 163.398 171.899 162.291 171.904 160.832V158.371ZM182.861 167.099H181.903L187.247 153.203H188.196L182.861 167.099ZM199.109 160.788V166H198.028V153.203H202.387C203.717 153.203 204.766 153.543 205.534 154.223C206.307 154.902 206.694 155.837 206.694 157.026C206.694 158.228 206.322 159.156 205.578 159.812C204.839 160.463 203.767 160.788 202.361 160.788H199.109ZM199.109 159.874H202.387C203.436 159.874 204.236 159.625 204.787 159.127C205.338 158.629 205.613 157.935 205.613 157.044C205.613 156.159 205.338 155.456 204.787 154.935C204.242 154.407 203.465 154.138 202.458 154.126H199.109V159.874ZM214.888 157.387C214.666 157.346 214.428 157.325 214.176 157.325C213.52 157.325 212.963 157.51 212.506 157.879C212.055 158.242 211.733 158.772 211.54 159.47V166H210.494V156.49H211.522L211.54 158.002C212.096 156.877 212.99 156.314 214.22 156.314C214.513 156.314 214.745 156.353 214.915 156.429L214.888 157.387ZM221.685 166.176C220.876 166.176 220.144 165.977 219.488 165.578C218.837 165.18 218.33 164.626 217.967 163.917C217.604 163.202 217.422 162.402 217.422 161.518V161.14C217.422 160.226 217.598 159.402 217.95 158.67C218.307 157.938 218.802 157.363 219.435 156.947C220.068 156.525 220.753 156.314 221.492 156.314C222.646 156.314 223.56 156.71 224.234 157.501C224.913 158.286 225.253 159.361 225.253 160.727V161.315H218.468V161.518C218.468 162.596 218.776 163.495 219.391 164.216C220.012 164.931 220.791 165.288 221.729 165.288C222.291 165.288 222.787 165.186 223.214 164.98C223.648 164.775 224.04 164.447 224.392 163.996L225.051 164.497C224.278 165.616 223.156 166.176 221.685 166.176ZM221.492 157.211C220.701 157.211 220.033 157.501 219.488 158.081C218.949 158.661 218.62 159.44 218.503 160.419H224.207V160.305C224.178 159.391 223.917 158.646 223.425 158.072C222.933 157.498 222.288 157.211 221.492 157.211ZM234.616 163.583C234.616 163.062 234.406 162.643 233.984 162.326C233.568 162.01 232.938 161.764 232.094 161.588C231.25 161.406 230.594 161.201 230.125 160.973C229.662 160.738 229.317 160.454 229.088 160.12C228.866 159.786 228.754 159.382 228.754 158.907C228.754 158.157 229.068 157.539 229.695 157.053C230.322 156.561 231.124 156.314 232.103 156.314C233.163 156.314 234.013 156.578 234.652 157.105C235.296 157.627 235.618 158.31 235.618 159.153H234.564C234.564 158.597 234.329 158.134 233.861 157.765C233.398 157.396 232.812 157.211 232.103 157.211C231.411 157.211 230.855 157.366 230.433 157.677C230.017 157.981 229.809 158.38 229.809 158.872C229.809 159.347 229.982 159.716 230.327 159.979C230.679 160.237 231.315 160.475 232.235 160.691C233.16 160.908 233.852 161.14 234.309 161.386C234.772 161.632 235.115 161.928 235.337 162.273C235.56 162.619 235.671 163.038 235.671 163.53C235.671 164.333 235.346 164.975 234.696 165.455C234.051 165.936 233.207 166.176 232.164 166.176C231.057 166.176 230.158 165.909 229.466 165.376C228.781 164.837 228.438 164.157 228.438 163.337H229.492C229.533 163.952 229.791 164.433 230.266 164.778C230.746 165.118 231.379 165.288 232.164 165.288C232.897 165.288 233.489 165.127 233.94 164.805C234.391 164.482 234.616 164.075 234.616 163.583ZM243.347 166.176C242.538 166.176 241.806 165.977 241.15 165.578C240.499 165.18 239.992 164.626 239.629 163.917C239.266 163.202 239.084 162.402 239.084 161.518V161.14C239.084 160.226 239.26 159.402 239.611 158.67C239.969 157.938 240.464 157.363 241.097 156.947C241.73 156.525 242.415 156.314 243.153 156.314C244.308 156.314 245.222 156.71 245.896 157.501C246.575 158.286 246.915 159.361 246.915 160.727V161.315H240.13V161.518C240.13 162.596 240.438 163.495 241.053 164.216C241.674 164.931 242.453 165.288 243.391 165.288C243.953 165.288 244.448 165.186 244.876 164.98C245.31 164.775 245.702 164.447 246.054 163.996L246.713 164.497C245.94 165.616 244.818 166.176 243.347 166.176ZM243.153 157.211C242.362 157.211 241.694 157.501 241.15 158.081C240.611 158.661 240.282 159.44 240.165 160.419H245.869V160.305C245.84 159.391 245.579 158.646 245.087 158.072C244.595 157.498 243.95 157.211 243.153 157.211ZM251.585 156.49L251.62 158.116C251.978 157.53 252.423 157.085 252.956 156.78C253.489 156.47 254.078 156.314 254.723 156.314C255.742 156.314 256.501 156.602 256.999 157.176C257.497 157.75 257.749 158.611 257.755 159.76V166H256.709V159.751C256.703 158.901 256.522 158.269 256.164 157.853C255.813 157.437 255.247 157.229 254.468 157.229C253.817 157.229 253.24 157.434 252.736 157.844C252.238 158.248 251.869 158.796 251.629 159.487V166H250.583V156.49H251.585ZM263.734 154.056V156.49H265.703V157.352H263.734V163.688C263.734 164.216 263.828 164.608 264.016 164.866C264.209 165.124 264.528 165.253 264.974 165.253C265.149 165.253 265.434 165.224 265.826 165.165L265.87 166.026C265.595 166.126 265.22 166.176 264.745 166.176C264.024 166.176 263.5 165.968 263.172 165.552C262.844 165.13 262.68 164.512 262.68 163.697V157.352H260.931V156.49H262.68V154.056H263.734Z" fill="black"/>
</svg>
