<svg width="347" height="194" viewBox="0 0 347 194" fill="none" xmlns="http://www.w3.org/2000/svg">
<rect x="0.5" y="0.5" width="346" height="193" fill="white" stroke="black"/>
<g clip-path="url(#clip0_386_17)">
<path d="M310 29.2458V33.0989H253.824V29.2458H310ZM279.319 49.0367H310V45.2712H279.319V49.0367ZM222 65.0622H310V61.209H222V65.0622ZM263.758 81H310V77.1469H263.758V81ZM288.989 36.1639V34.9379H283.363V43.5198H284.769V39.8418H288.462V38.6158H284.769V36.1639H288.989ZM304.901 39.6667L306.923 43.5198H305.341L303.495 39.8418H301.648V43.5198H300.242V34.9379H304.022C305.341 34.9379 306.484 35.9887 306.484 37.3898C306.484 38.4407 305.868 39.3164 304.901 39.6667ZM305.077 37.3898C305.077 36.6893 304.549 36.1639 303.846 36.1639H301.648V38.6158H303.846C304.549 38.6158 305.077 38.0904 305.077 37.3898ZM292.33 41.243V35.0254H290.923V41.243C290.923 42.5565 292.066 43.6949 293.385 43.6949H295.143C296.462 43.6949 297.604 42.5565 297.604 41.243V35.0254H296.198V41.243C296.198 41.9435 295.67 42.4689 294.967 42.4689H293.56C292.945 42.4689 292.33 41.9435 292.33 41.243ZM293.912 34.0622H292.945V36.0763H293.912V34.0622ZM295.582 34.0622H294.615V36.0763H295.582V34.0622ZM276.505 23.7288H280.374V27.5819H281.78V19H280.374V22.5028H276.505V19H275.099V27.5819H276.505V23.7288ZM299.538 26.3559H295.319V19H293.912V27.5819H299.538V26.3559ZM306.835 26.3559H302.352V23.8164H306.308V22.5904H302.352V20.226H306.835V19H300.945V27.5819H306.835V26.3559ZM261.648 26.4435H260.33C259.626 26.4435 259.099 25.9181 259.099 25.2175H257.692C257.692 26.5311 258.835 27.6695 260.154 27.6695H261.824C263.231 27.6695 264.374 26.5311 264.374 25.13C264.374 23.8164 263.407 22.7656 262.088 22.5904L260.154 22.4153C259.626 22.3277 259.187 21.8898 259.187 21.2769C259.187 20.6639 259.714 20.1384 260.33 20.1384H261.56C262.264 20.1384 262.791 20.6639 262.791 21.3644H264.198C264.198 20.0509 263.055 18.9124 261.736 18.9124H260.154C258.835 18.9124 257.78 19.9633 257.78 21.2769C257.78 22.5028 258.659 23.4661 259.89 23.6413L261.824 23.8164C262.527 23.904 262.967 24.4294 262.967 25.13C262.967 25.8305 262.44 26.4435 261.648 26.4435ZM286.967 27.6695H288.725C290.044 27.6695 291.187 26.5311 291.187 25.2175V19H289.78V25.2175C289.78 25.9181 289.253 26.4435 288.549 26.4435H287.143C286.44 26.4435 285.912 25.9181 285.912 25.2175V19H284.505V25.2175C284.505 26.5311 285.648 27.6695 286.967 27.6695ZM268.769 27.6695H270.527C271.846 27.6695 272.989 26.5311 272.989 25.2175V25.13H271.582V25.2175C271.582 25.9181 271.055 26.4435 270.352 26.4435H268.945C268.242 26.4435 267.714 25.9181 267.714 25.2175V21.3644C267.714 20.6639 268.242 20.1384 268.945 20.1384H270.264C270.967 20.1384 271.495 20.6639 271.495 21.3644H272.901C272.901 20.0509 271.758 18.9124 270.44 18.9124H268.769C267.451 18.9124 266.308 20.0509 266.308 21.3644V25.2175C266.308 26.5311 267.451 27.6695 268.769 27.6695ZM277.736 73.7316L277.121 75.4831H275.626L278.615 66.9011H280.198L283.187 75.4831H281.692L281.077 73.7316H277.736ZM278 72.5057H280.813L279.407 68.4774L278 72.5057ZM273.429 70.9294C274.132 71.3672 274.659 72.1554 274.659 73.0311C274.659 74.3446 273.604 75.4831 272.286 75.4831H268.154V66.9011H272.022C273.253 66.9011 274.308 67.952 274.308 69.178C274.308 69.8785 273.956 70.4915 273.429 70.9294ZM269.56 70.404H271.846C272.462 70.404 272.989 69.8785 272.989 69.2655C272.989 68.6525 272.462 68.1271 271.846 68.1271H269.56V70.404ZM273.253 72.9435C273.253 72.2429 272.637 71.6299 271.934 71.6299H269.56V74.2571H271.934C272.725 74.2571 273.253 73.6441 273.253 72.9435ZM288.198 74.3446H286.879C286.176 74.3446 285.648 73.8192 285.648 73.1186H284.242C284.242 74.4322 285.385 75.5706 286.703 75.5706H288.374C289.78 75.5706 290.923 74.4322 290.923 73.0311C290.923 71.7175 289.956 70.6667 288.637 70.4915L286.703 70.3164C286.176 70.2288 285.736 69.791 285.736 69.178C285.736 68.565 286.264 68.0396 286.879 68.0396H288.022C288.725 68.0396 289.253 68.565 289.253 69.2655H290.659C290.659 67.952 289.516 66.8136 288.198 66.8136H286.615C285.297 66.8136 284.242 67.8644 284.242 69.178C284.242 70.404 285.121 71.3672 286.352 71.5424L288.286 71.7175C288.989 71.8051 289.429 72.3305 289.429 73.0311C289.516 73.7316 288.901 74.3446 288.198 74.3446ZM299.011 68.1271V66.9011H293.121V75.4831H299.011V74.2571H294.527V71.7175H298.484V70.4915H294.527V68.1271H299.011ZM302.879 74.2571V66.9011H301.473V75.4831H307.099V74.2571H302.879ZM253.209 59.5452H254.615V52.1893H257.077V50.9633H250.747V52.1893H253.209V59.5452ZM276.33 59.5452V52.1893H278.791V50.9633H272.462V52.1893H274.923V59.5452H276.33ZM227.802 59.5452H229.824C230.352 59.5452 230.791 59.1949 230.967 58.7571V59.5452H232.286V54.8164H229.56V55.9548H230.967V57.0057C230.967 57.7062 230.44 58.2316 229.736 58.2316H227.978C227.275 58.2316 226.747 57.7062 226.747 57.0057V53.2401C226.747 52.5396 227.275 52.0141 227.978 52.0141H229.56C230.264 52.0141 230.791 52.5396 230.791 53.2401H232.198C232.198 51.9266 231.055 50.7881 229.736 50.7881H227.802C226.484 50.7881 225.341 51.9266 225.341 53.2401V57.0057C225.341 58.4068 226.484 59.5452 227.802 59.5452ZM302 52.1017H303.582C304.286 52.1017 304.813 52.6271 304.813 53.3277H306.22C306.22 52.0141 305.077 50.8757 303.758 50.8757H301.824C300.506 50.8757 299.363 52.0141 299.363 53.3277V57.0932C299.363 58.4068 300.506 59.5452 301.824 59.5452H303.846C304.374 59.5452 304.813 59.1949 304.989 58.7571V59.5452H306.308V54.8164H303.582V55.9548H304.989V57.0057C304.989 57.7062 304.462 58.2316 303.758 58.2316H302C301.297 58.2316 300.769 57.7062 300.769 57.0057V53.2401C300.769 52.6271 301.385 52.1017 302 52.1017ZM289.868 50.8757V59.4576H291.275L291.187 52.452L295.055 59.4576H296.901V50.8757H295.495L295.582 57.8814L291.714 50.8757H289.868ZM240.901 58.2316H236.418V55.6921H240.374V54.4661H236.418V52.1017H240.901V50.8757H235.011V59.4576H240.901V58.2316ZM246.967 58.3192H245.648C244.945 58.3192 244.418 57.7938 244.418 57.0932H243.011C243.011 58.4068 244.154 59.5452 245.473 59.5452H247.143C248.549 59.5452 249.692 58.4068 249.692 57.0057C249.692 55.6921 248.725 54.6413 247.407 54.4661L245.473 54.291C244.945 54.2034 244.505 53.7655 244.505 53.1525C244.505 52.5396 245.033 52.0141 245.648 52.0141H246.791C247.495 52.0141 248.022 52.5396 248.022 53.2401H249.429C249.429 51.9266 248.286 50.7881 246.967 50.7881H245.385C244.066 50.7881 243.011 51.839 243.011 53.1525C243.011 54.3785 243.89 55.3418 245.121 55.517L247.055 55.6921C247.758 55.7797 248.198 56.3051 248.198 57.0057C248.286 57.7938 247.67 58.3192 246.967 58.3192ZM268.242 50.8757H266.835V59.4576H272.462V58.2316H268.242V50.8757ZM259.451 57.7062L258.835 59.4576H257.341L260.33 50.8757H261.912L264.901 59.4576H263.407L262.791 57.7062H259.451ZM259.714 56.5678H262.527L261.121 52.5396L259.714 56.5678ZM284.681 59.5452C286 59.5452 287.143 58.4068 287.143 57.0932V50.8757H285.736V57.0932C285.736 57.7938 285.209 58.3192 284.505 58.3192H283.099C282.396 58.3192 281.868 57.7938 281.868 57.0932V50.8757H280.462V57.0932C280.462 58.4068 281.604 59.5452 282.923 59.5452H284.681Z" fill="black"/>
</g>
<path d="M83.8745 120.744V124H81.9702V114.758H85.5757C86.2697 114.758 86.8791 114.885 87.4038 115.139C87.9328 115.393 88.339 115.754 88.6226 116.224C88.9061 116.69 89.0479 117.221 89.0479 117.817C89.0479 118.723 88.7368 119.438 88.1147 119.963C87.4969 120.483 86.64 120.744 85.5439 120.744H83.8745ZM83.8745 119.201H85.5757C86.0793 119.201 86.4622 119.083 86.7246 118.846C86.9912 118.609 87.1245 118.27 87.1245 117.83C87.1245 117.377 86.9912 117.011 86.7246 116.732C86.458 116.453 86.0898 116.309 85.6201 116.3H83.8745V119.201ZM95.2706 118.852C95.0209 118.818 94.8009 118.801 94.6104 118.801C93.9164 118.801 93.4615 119.036 93.2457 119.506V124H91.4112V117.132H93.1441L93.1949 117.951C93.5631 117.32 94.073 117.005 94.7247 117.005C94.9278 117.005 95.1182 117.032 95.296 117.087L95.2706 118.852ZM100.363 124.127C99.3563 124.127 98.5353 123.818 97.9005 123.2C97.27 122.582 96.9547 121.759 96.9547 120.731V120.553C96.9547 119.863 97.088 119.248 97.3546 118.706C97.6213 118.16 97.9979 117.741 98.4845 117.449C98.9754 117.153 99.534 117.005 100.16 117.005C101.1 117.005 101.838 117.301 102.376 117.894C102.917 118.486 103.188 119.326 103.188 120.414V121.163H98.8146C98.8739 121.611 99.0516 121.971 99.3478 122.242C99.6483 122.513 100.027 122.648 100.484 122.648C101.191 122.648 101.743 122.392 102.141 121.88L103.042 122.889C102.767 123.278 102.395 123.583 101.925 123.803C101.455 124.019 100.935 124.127 100.363 124.127ZM100.154 118.49C99.79 118.49 99.4938 118.613 99.2653 118.858C99.041 119.104 98.8971 119.455 98.8337 119.912H101.385V119.766C101.377 119.36 101.267 119.047 101.055 118.827C100.844 118.602 100.543 118.49 100.154 118.49ZM108.973 120.782H105.399V119.303H108.973V120.782ZM118.992 120.921C118.92 121.916 118.551 122.699 117.887 123.27C117.227 123.841 116.355 124.127 115.272 124.127C114.087 124.127 113.154 123.729 112.472 122.934C111.795 122.134 111.457 121.038 111.457 119.646V119.081C111.457 118.192 111.613 117.409 111.927 116.732C112.24 116.055 112.686 115.536 113.266 115.177C113.85 114.813 114.527 114.631 115.297 114.631C116.364 114.631 117.223 114.917 117.874 115.488C118.526 116.059 118.903 116.861 119.004 117.894H117.1C117.053 117.297 116.886 116.865 116.598 116.599C116.315 116.328 115.881 116.192 115.297 116.192C114.662 116.192 114.186 116.421 113.869 116.878C113.556 117.331 113.395 118.035 113.387 118.992V119.69C113.387 120.689 113.537 121.419 113.837 121.88C114.142 122.341 114.62 122.572 115.272 122.572C115.86 122.572 116.298 122.438 116.586 122.172C116.878 121.901 117.045 121.484 117.087 120.921H118.992ZM121.006 120.502C121.006 119.821 121.137 119.214 121.399 118.681C121.662 118.147 122.038 117.735 122.529 117.443C123.024 117.151 123.598 117.005 124.249 117.005C125.176 117.005 125.932 117.288 126.516 117.855C127.104 118.423 127.432 119.193 127.499 120.166L127.512 120.636C127.512 121.689 127.218 122.536 126.63 123.175C126.042 123.81 125.252 124.127 124.262 124.127C123.272 124.127 122.481 123.81 121.888 123.175C121.3 122.54 121.006 121.677 121.006 120.585V120.502ZM122.84 120.636C122.84 121.287 122.963 121.787 123.208 122.134C123.454 122.477 123.805 122.648 124.262 122.648C124.706 122.648 125.053 122.479 125.303 122.14C125.553 121.797 125.678 121.251 125.678 120.502C125.678 119.863 125.553 119.368 125.303 119.017C125.053 118.666 124.702 118.49 124.249 118.49C123.801 118.49 123.454 118.666 123.208 119.017C122.963 119.364 122.84 119.904 122.84 120.636ZM133.925 123.302C133.472 123.852 132.846 124.127 132.046 124.127C131.31 124.127 130.747 123.915 130.358 123.492C129.973 123.069 129.776 122.449 129.768 121.632V117.132H131.602V121.569C131.602 122.284 131.928 122.642 132.58 122.642C133.202 122.642 133.629 122.426 133.862 121.994V117.132H135.703V124H133.976L133.925 123.302ZM142.116 118.852C141.866 118.818 141.646 118.801 141.456 118.801C140.762 118.801 140.307 119.036 140.091 119.506V124H138.256V117.132H139.989L140.04 117.951C140.408 117.32 140.918 117.005 141.57 117.005C141.773 117.005 141.963 117.032 142.141 117.087L142.116 118.852ZM147.894 122.102C147.894 121.878 147.782 121.702 147.558 121.575C147.338 121.444 146.982 121.328 146.491 121.226C144.858 120.883 144.041 120.189 144.041 119.144C144.041 118.535 144.293 118.027 144.797 117.621C145.304 117.21 145.967 117.005 146.783 117.005C147.655 117.005 148.351 117.21 148.872 117.621C149.396 118.031 149.659 118.564 149.659 119.22H147.824C147.824 118.958 147.74 118.742 147.57 118.573C147.401 118.399 147.137 118.312 146.777 118.312C146.468 118.312 146.229 118.382 146.06 118.522C145.89 118.662 145.806 118.839 145.806 119.055C145.806 119.258 145.901 119.423 146.091 119.55C146.286 119.673 146.612 119.781 147.069 119.874C147.526 119.963 147.911 120.064 148.224 120.179C149.193 120.534 149.678 121.15 149.678 122.026C149.678 122.652 149.409 123.16 148.872 123.549C148.334 123.934 147.64 124.127 146.79 124.127C146.214 124.127 145.702 124.025 145.254 123.822C144.809 123.615 144.46 123.333 144.206 122.978C143.952 122.618 143.825 122.231 143.825 121.816H145.565C145.582 122.142 145.702 122.392 145.926 122.565C146.151 122.739 146.451 122.826 146.828 122.826C147.179 122.826 147.443 122.76 147.621 122.629C147.803 122.493 147.894 122.318 147.894 122.102ZM155.196 124.127C154.189 124.127 153.368 123.818 152.733 123.2C152.103 122.582 151.787 121.759 151.787 120.731V120.553C151.787 119.863 151.921 119.248 152.187 118.706C152.454 118.16 152.83 117.741 153.317 117.449C153.808 117.153 154.367 117.005 154.993 117.005C155.932 117.005 156.671 117.301 157.208 117.894C157.75 118.486 158.021 119.326 158.021 120.414V121.163H153.647C153.706 121.611 153.884 121.971 154.18 122.242C154.481 122.513 154.86 122.648 155.317 122.648C156.023 122.648 156.576 122.392 156.973 121.88L157.875 122.889C157.6 123.278 157.227 123.583 156.758 123.803C156.288 124.019 155.767 124.127 155.196 124.127ZM154.987 118.49C154.623 118.49 154.326 118.613 154.098 118.858C153.874 119.104 153.73 119.455 153.666 119.912H156.218V119.766C156.21 119.36 156.099 119.047 155.888 118.827C155.676 118.602 155.376 118.49 154.987 118.49ZM166.581 124H164.741V117.132H166.581V124ZM164.633 115.354C164.633 115.079 164.724 114.853 164.906 114.675C165.092 114.498 165.344 114.409 165.661 114.409C165.974 114.409 166.224 114.498 166.41 114.675C166.596 114.853 166.689 115.079 166.689 115.354C166.689 115.634 166.594 115.862 166.404 116.04C166.217 116.218 165.97 116.307 165.661 116.307C165.352 116.307 165.102 116.218 164.912 116.04C164.726 115.862 164.633 115.634 164.633 115.354ZM170.957 117.132L171.014 117.925C171.505 117.312 172.163 117.005 172.988 117.005C173.716 117.005 174.258 117.219 174.613 117.646C174.969 118.073 175.151 118.712 175.159 119.563V124H173.325V119.607C173.325 119.218 173.24 118.937 173.071 118.763C172.901 118.585 172.62 118.497 172.227 118.497C171.71 118.497 171.323 118.717 171.065 119.157V124H169.23V117.132H170.957ZM187.471 122.096H184.132L183.498 124H181.473L184.913 114.758H186.678L190.137 124H188.112L187.471 122.096ZM184.647 120.553H186.957L185.796 117.094L184.647 120.553ZM195.909 118.852C195.66 118.818 195.44 118.801 195.249 118.801C194.555 118.801 194.1 119.036 193.884 119.506V124H192.05V117.132H193.783L193.834 117.951C194.202 117.32 194.712 117.005 195.363 117.005C195.567 117.005 195.757 117.032 195.935 117.087L195.909 118.852ZM200.482 115.443V117.132H201.656V118.478H200.482V121.905C200.482 122.159 200.53 122.341 200.628 122.451C200.725 122.561 200.911 122.616 201.186 122.616C201.389 122.616 201.569 122.601 201.726 122.572V123.962C201.366 124.072 200.996 124.127 200.615 124.127C199.329 124.127 198.673 123.477 198.647 122.178V118.478H197.644V117.132H198.647V115.443H200.482ZM208.001 121.512C208.001 121.084 208.12 120.689 208.357 120.325C208.598 119.961 209.038 119.557 209.677 119.112C209.402 118.744 209.186 118.399 209.03 118.078C208.873 117.752 208.795 117.413 208.795 117.062C208.795 116.343 209.021 115.759 209.474 115.31C209.931 114.857 210.545 114.631 211.315 114.631C212.005 114.631 212.57 114.836 213.01 115.247C213.454 115.657 213.676 116.169 213.676 116.783C213.676 117.519 213.304 118.169 212.559 118.731L211.848 119.246L213.441 121.099C213.691 120.608 213.816 120.067 213.816 119.474H215.377C215.377 120.676 215.1 121.649 214.546 122.394L215.93 124H213.848L213.372 123.454C212.69 123.903 211.907 124.127 211.023 124.127C210.109 124.127 209.377 123.888 208.827 123.41C208.276 122.927 208.001 122.295 208.001 121.512ZM211.112 122.654C211.552 122.654 211.969 122.532 212.362 122.286L210.54 120.179L210.407 120.274C210.031 120.596 209.842 120.974 209.842 121.41C209.842 121.778 209.959 122.079 210.191 122.312C210.428 122.54 210.735 122.654 211.112 122.654ZM210.439 117.037C210.439 117.354 210.625 117.754 210.997 118.236L211.486 117.913C211.736 117.752 211.907 117.595 212 117.443C212.098 117.291 212.146 117.109 212.146 116.897C212.146 116.685 212.068 116.501 211.912 116.345C211.755 116.188 211.554 116.11 211.309 116.11C211.046 116.11 210.835 116.194 210.674 116.364C210.517 116.533 210.439 116.757 210.439 117.037ZM222.484 124V114.758H225.328C226.141 114.758 226.866 114.942 227.505 115.31C228.149 115.674 228.65 116.194 229.01 116.872C229.37 117.544 229.549 118.31 229.549 119.169V119.595C229.549 120.454 229.372 121.218 229.016 121.886C228.665 122.555 228.168 123.073 227.525 123.441C226.881 123.81 226.156 123.996 225.347 124H222.484ZM224.389 116.3V122.47H225.309C226.054 122.47 226.623 122.227 227.017 121.74C227.41 121.254 227.611 120.557 227.62 119.652V119.163C227.62 118.224 227.425 117.513 227.036 117.03C226.646 116.544 226.077 116.3 225.328 116.3H224.389ZM235.15 124.127C234.143 124.127 233.322 123.818 232.687 123.2C232.057 122.582 231.741 121.759 231.741 120.731V120.553C231.741 119.863 231.875 119.248 232.141 118.706C232.408 118.16 232.785 117.741 233.271 117.449C233.762 117.153 234.321 117.005 234.947 117.005C235.886 117.005 236.625 117.301 237.162 117.894C237.704 118.486 237.975 119.326 237.975 120.414V121.163H233.601C233.66 121.611 233.838 121.971 234.134 122.242C234.435 122.513 234.814 122.648 235.271 122.648C235.977 122.648 236.53 122.392 236.927 121.88L237.829 122.889C237.554 123.278 237.181 123.583 236.712 123.803C236.242 124.019 235.721 124.127 235.15 124.127ZM234.941 118.49C234.577 118.49 234.28 118.613 234.052 118.858C233.828 119.104 233.684 119.455 233.62 119.912H236.172V119.766C236.164 119.36 236.054 119.047 235.842 118.827C235.63 118.602 235.33 118.49 234.941 118.49ZM243.912 122.102C243.912 121.878 243.8 121.702 243.575 121.575C243.355 121.444 243 121.328 242.509 121.226C240.876 120.883 240.059 120.189 240.059 119.144C240.059 118.535 240.311 118.027 240.814 117.621C241.322 117.21 241.984 117.005 242.801 117.005C243.673 117.005 244.369 117.21 244.889 117.621C245.414 118.031 245.677 118.564 245.677 119.22H243.842C243.842 118.958 243.757 118.742 243.588 118.573C243.419 118.399 243.154 118.312 242.795 118.312C242.486 118.312 242.247 118.382 242.077 118.522C241.908 118.662 241.824 118.839 241.824 119.055C241.824 119.258 241.919 119.423 242.109 119.55C242.304 119.673 242.63 119.781 243.087 119.874C243.544 119.963 243.929 120.064 244.242 120.179C245.211 120.534 245.696 121.15 245.696 122.026C245.696 122.652 245.427 123.16 244.889 123.549C244.352 123.934 243.658 124.127 242.807 124.127C242.232 124.127 241.72 124.025 241.271 123.822C240.827 123.615 240.478 123.333 240.224 122.978C239.97 122.618 239.843 122.231 239.843 121.816H241.582C241.599 122.142 241.72 122.392 241.944 122.565C242.168 122.739 242.469 122.826 242.845 122.826C243.197 122.826 243.461 122.76 243.639 122.629C243.821 122.493 243.912 122.318 243.912 122.102ZM249.989 124H248.148V117.132H249.989V124ZM248.04 115.354C248.04 115.079 248.131 114.853 248.313 114.675C248.499 114.498 248.751 114.409 249.068 114.409C249.381 114.409 249.631 114.498 249.817 114.675C250.003 114.853 250.097 115.079 250.097 115.354C250.097 115.634 250.001 115.862 249.811 116.04C249.625 116.218 249.377 116.307 249.068 116.307C248.759 116.307 248.51 116.218 248.319 116.04C248.133 115.862 248.04 115.634 248.04 115.354ZM252.409 120.515C252.409 119.461 252.659 118.613 253.158 117.97C253.662 117.326 254.339 117.005 255.189 117.005C255.943 117.005 256.529 117.263 256.948 117.779L257.024 117.132H258.687V123.771C258.687 124.372 258.549 124.895 258.274 125.339C258.004 125.784 257.621 126.122 257.125 126.355C256.63 126.588 256.051 126.704 255.386 126.704C254.883 126.704 254.392 126.603 253.913 126.399C253.435 126.201 253.073 125.942 252.828 125.625L253.641 124.508C254.098 125.02 254.652 125.276 255.304 125.276C255.79 125.276 256.169 125.145 256.44 124.882C256.711 124.624 256.846 124.256 256.846 123.778V123.41C256.423 123.888 255.866 124.127 255.177 124.127C254.351 124.127 253.683 123.805 253.171 123.162C252.663 122.515 252.409 121.658 252.409 120.591V120.515ZM254.244 120.648C254.244 121.271 254.368 121.759 254.618 122.115C254.868 122.466 255.211 122.642 255.646 122.642C256.205 122.642 256.605 122.432 256.846 122.013V119.125C256.601 118.706 256.205 118.497 255.659 118.497C255.219 118.497 254.872 118.676 254.618 119.036C254.368 119.396 254.244 119.933 254.244 120.648ZM262.961 117.132L263.018 117.925C263.509 117.312 264.167 117.005 264.992 117.005C265.72 117.005 266.262 117.219 266.617 117.646C266.973 118.073 267.155 118.712 267.163 119.563V124H265.329V119.607C265.329 119.218 265.244 118.937 265.075 118.763C264.905 118.585 264.624 118.497 264.23 118.497C263.714 118.497 263.327 118.717 263.069 119.157V124H261.234V117.132H262.961Z" fill="black"/>
<path d="M79.884 162.414H74.0744L72.7561 166H71.6223L76.465 153.203H77.4934L82.3361 166H81.2111L79.884 162.414ZM74.4084 161.491H79.5412L76.9748 154.521L74.4084 161.491ZM91.6114 164.796C90.9786 165.716 89.9679 166.176 88.5792 166.176C87.5655 166.176 86.795 165.883 86.2677 165.297C85.7403 164.705 85.4708 163.832 85.4591 162.678V156.49H86.505V162.546C86.505 164.356 87.2374 165.262 88.7022 165.262C90.2257 165.262 91.1895 164.632 91.5938 163.372V156.49H92.6485V166H91.629L91.6114 164.796ZM96.5888 161.157C96.5888 159.669 96.917 158.491 97.5732 157.624C98.2353 156.751 99.1318 156.314 100.263 156.314C101.558 156.314 102.542 156.83 103.216 157.861L103.269 156.49H104.253V165.807C104.253 167.031 103.91 168.001 103.225 168.716C102.539 169.431 101.61 169.788 100.438 169.788C99.7763 169.788 99.1435 169.639 98.54 169.34C97.9423 169.047 97.4707 168.654 97.125 168.162L97.7138 167.529C98.458 168.443 99.3427 168.9 100.368 168.9C101.247 168.9 101.933 168.64 102.425 168.118C102.917 167.603 103.172 166.885 103.189 165.965V164.77C102.516 165.707 101.534 166.176 100.245 166.176C99.1435 166.176 98.2588 165.736 97.5908 164.857C96.9228 163.979 96.5888 162.792 96.5888 161.298V161.157ZM97.6523 161.342C97.6523 162.555 97.8955 163.513 98.3818 164.216C98.8681 164.913 99.5537 165.262 100.438 165.262C101.733 165.262 102.65 164.682 103.189 163.521V159.101C102.943 158.491 102.589 158.028 102.126 157.712C101.663 157.39 101.106 157.229 100.456 157.229C99.5713 157.229 98.8828 157.577 98.3906 158.274C97.8984 158.966 97.6523 159.988 97.6523 161.342ZM108.518 165.367C108.518 165.162 108.583 164.989 108.712 164.849C108.847 164.702 109.031 164.629 109.265 164.629C109.5 164.629 109.684 164.702 109.819 164.849C109.954 164.989 110.021 165.162 110.021 165.367C110.021 165.572 109.954 165.742 109.819 165.877C109.684 166.006 109.5 166.07 109.265 166.07C109.031 166.07 108.847 166.006 108.712 165.877C108.583 165.742 108.518 165.572 108.518 165.367ZM128.387 166H120.372V165.191L124.757 160.217C125.484 159.379 125.988 158.688 126.269 158.143C126.55 157.598 126.691 157.067 126.691 156.552C126.691 155.743 126.454 155.104 125.979 154.636C125.504 154.161 124.851 153.924 124.019 153.924C123.158 153.924 122.461 154.199 121.927 154.75C121.4 155.301 121.136 156.016 121.136 156.895H120.09C120.09 156.174 120.252 155.518 120.574 154.926C120.902 154.334 121.365 153.871 121.963 153.537C122.566 153.197 123.252 153.027 124.019 153.027C125.191 153.027 126.105 153.335 126.761 153.95C127.423 154.565 127.754 155.403 127.754 156.464C127.754 157.062 127.567 157.715 127.192 158.424C126.823 159.133 126.17 160.018 125.232 161.078L121.664 165.112H128.387V166ZM139.693 160.665C139.693 162.47 139.362 163.841 138.7 164.778C138.038 165.71 137.062 166.176 135.773 166.176C134.507 166.176 133.538 165.719 132.864 164.805C132.19 163.885 131.844 162.549 131.827 160.797V158.503C131.827 156.704 132.161 155.342 132.829 154.416C133.497 153.49 134.472 153.027 135.755 153.027C137.021 153.027 137.988 153.476 138.656 154.372C139.324 155.263 139.669 156.578 139.693 158.318V160.665ZM138.638 158.371C138.638 156.906 138.398 155.799 137.917 155.049C137.443 154.299 136.722 153.924 135.755 153.924C134.806 153.924 134.091 154.29 133.611 155.022C133.13 155.755 132.884 156.836 132.873 158.266V160.779C132.873 162.238 133.119 163.354 133.611 164.128C134.109 164.901 134.83 165.288 135.773 165.288C136.71 165.288 137.419 164.91 137.9 164.154C138.386 163.398 138.632 162.291 138.638 160.832V158.371ZM148.476 166H147.421V154.469L143.941 155.761V154.776L148.3 153.159H148.476V166ZM161.75 160.076C161.375 160.627 160.909 161.055 160.353 161.359C159.796 161.658 159.193 161.808 158.542 161.808C157.816 161.808 157.174 161.62 156.617 161.245C156.061 160.87 155.63 160.352 155.325 159.689C155.021 159.027 154.868 158.304 154.868 157.519C154.868 156.675 155.03 155.907 155.352 155.216C155.68 154.524 156.134 153.988 156.714 153.607C157.3 153.221 157.974 153.027 158.736 153.027C160.019 153.027 161.018 153.479 161.733 154.381C162.448 155.277 162.805 156.552 162.805 158.204V159.153C162.805 161.462 162.313 163.196 161.328 164.356C160.344 165.517 158.841 166.097 156.82 166.097H156.626L156.635 165.183H157.004C158.533 165.159 159.697 164.726 160.493 163.882C161.29 163.038 161.709 161.77 161.75 160.076ZM158.674 160.902C159.377 160.902 160.007 160.694 160.564 160.278C161.126 159.856 161.525 159.312 161.759 158.644V158.037C161.759 156.736 161.487 155.729 160.942 155.014C160.403 154.293 159.673 153.933 158.753 153.933C157.921 153.933 157.239 154.27 156.705 154.943C156.172 155.611 155.906 156.455 155.906 157.475C155.906 158.453 156.16 159.271 156.67 159.927C157.186 160.577 157.854 160.902 158.674 160.902ZM172.804 167.099H171.846L177.189 153.203H178.139L172.804 167.099ZM193.622 153.203H194.712V162.194C194.712 163.407 194.36 164.374 193.657 165.095C192.96 165.815 192.022 166.176 190.844 166.176C189.602 166.176 188.647 165.851 187.979 165.2C187.311 164.55 186.977 163.642 186.977 162.476H188.058C188.058 163.401 188.302 164.099 188.788 164.567C189.274 165.03 189.96 165.262 190.844 165.262C191.659 165.262 192.321 164.992 192.831 164.453C193.346 163.914 193.61 163.182 193.622 162.256V153.203ZM205.376 164.796C204.743 165.716 203.732 166.176 202.343 166.176C201.33 166.176 200.559 165.883 200.032 165.297C199.505 164.705 199.235 163.832 199.223 162.678V156.49H200.269V162.546C200.269 164.356 201.002 165.262 202.466 165.262C203.99 165.262 204.954 164.632 205.358 163.372V156.49H206.413V166H205.393L205.376 164.796ZM211.777 156.49L211.812 158.116C212.169 157.53 212.615 157.085 213.148 156.78C213.681 156.47 214.27 156.314 214.915 156.314C215.934 156.314 216.693 156.602 217.191 157.176C217.689 157.75 217.941 158.611 217.947 159.76V166H216.901V159.751C216.895 158.901 216.713 158.269 216.356 157.853C216.004 157.437 215.439 157.229 214.66 157.229C214.009 157.229 213.432 157.434 212.928 157.844C212.43 158.248 212.061 158.796 211.821 159.487V166H210.775V156.49H211.777ZM222.195 165.367C222.195 165.162 222.259 164.989 222.388 164.849C222.523 164.702 222.707 164.629 222.942 164.629C223.176 164.629 223.361 164.702 223.496 164.849C223.63 164.989 223.698 165.162 223.698 165.367C223.698 165.572 223.63 165.742 223.496 165.877C223.361 166.006 223.176 166.07 222.942 166.07C222.707 166.07 222.523 166.006 222.388 165.877C222.259 165.742 222.195 165.572 222.195 165.367ZM242.064 166H234.048V165.191L238.434 160.217C239.16 159.379 239.664 158.688 239.945 158.143C240.227 157.598 240.367 157.067 240.367 156.552C240.367 155.743 240.13 155.104 239.655 154.636C239.181 154.161 238.527 153.924 237.695 153.924C236.834 153.924 236.137 154.199 235.604 154.75C235.076 155.301 234.813 156.016 234.813 156.895H233.767C233.767 156.174 233.928 155.518 234.25 154.926C234.578 154.334 235.041 153.871 235.639 153.537C236.242 153.197 236.928 153.027 237.695 153.027C238.867 153.027 239.781 153.335 240.438 153.95C241.1 154.565 241.431 155.403 241.431 156.464C241.431 157.062 241.243 157.715 240.868 158.424C240.499 159.133 239.846 160.018 238.908 161.078L235.34 165.112H242.064V166ZM253.369 160.665C253.369 162.47 253.038 163.841 252.376 164.778C251.714 165.71 250.738 166.176 249.449 166.176C248.184 166.176 247.214 165.719 246.54 164.805C245.866 163.885 245.521 162.549 245.503 160.797V158.503C245.503 156.704 245.837 155.342 246.505 154.416C247.173 153.49 248.148 153.027 249.432 153.027C250.697 153.027 251.664 153.476 252.332 154.372C253 155.263 253.346 156.578 253.369 158.318V160.665ZM252.314 158.371C252.314 156.906 252.074 155.799 251.594 155.049C251.119 154.299 250.398 153.924 249.432 153.924C248.482 153.924 247.768 154.29 247.287 155.022C246.807 155.755 246.561 156.836 246.549 158.266V160.779C246.549 162.238 246.795 163.354 247.287 164.128C247.785 164.901 248.506 165.288 249.449 165.288C250.387 165.288 251.096 164.91 251.576 164.154C252.063 163.398 252.309 162.291 252.314 160.832V158.371ZM265.272 166H257.257V165.191L261.643 160.217C262.369 159.379 262.873 158.688 263.154 158.143C263.435 157.598 263.576 157.067 263.576 156.552C263.576 155.743 263.339 155.104 262.864 154.636C262.39 154.161 261.736 153.924 260.904 153.924C260.043 153.924 259.346 154.199 258.812 154.75C258.285 155.301 258.021 156.016 258.021 156.895H256.976C256.976 156.174 257.137 155.518 257.459 154.926C257.787 154.334 258.25 153.871 258.848 153.537C259.451 153.197 260.137 153.027 260.904 153.027C262.076 153.027 262.99 153.335 263.646 153.95C264.309 154.565 264.64 155.403 264.64 156.464C264.64 157.062 264.452 157.715 264.077 158.424C263.708 159.133 263.055 160.018 262.117 161.078L258.549 165.112H265.272V166ZM276.578 160.665C276.578 162.47 276.247 163.841 275.585 164.778C274.923 165.71 273.947 166.176 272.658 166.176C271.392 166.176 270.423 165.719 269.749 164.805C269.075 163.885 268.729 162.549 268.712 160.797V158.503C268.712 156.704 269.046 155.342 269.714 154.416C270.382 153.49 271.357 153.027 272.64 153.027C273.906 153.027 274.873 153.476 275.541 154.372C276.209 155.263 276.554 156.578 276.578 158.318V160.665ZM275.523 158.371C275.523 156.906 275.283 155.799 274.803 155.049C274.328 154.299 273.607 153.924 272.64 153.924C271.691 153.924 270.976 154.29 270.496 155.022C270.015 155.755 269.769 156.836 269.758 158.266V160.779C269.758 162.238 270.004 163.354 270.496 164.128C270.994 164.901 271.715 165.288 272.658 165.288C273.596 165.288 274.304 164.91 274.785 164.154C275.271 163.398 275.517 162.291 275.523 160.832V158.371Z" fill="black"/>
<defs>
<clipPath id="clip0_386_17">
<rect width="88" height="62" fill="white" transform="translate(222 19)"/>
</clipPath>
</defs>
</svg>
