<?xml version="1.0" encoding="utf-8"?>
<!-- Generator: Adobe Illustrator 18.1.0, SVG Export Plug-In . SVG Version: 6.00 Build 0)  -->
<svg version="1.1" id="Ebene_1" xmlns="http://www.w3.org/2000/svg" xmlns:xlink="http://www.w3.org/1999/xlink" x="0px" y="0px"
	 viewBox="0 0 100.1 70.8" style="enable-background:new 0 0 100.1 70.8;" xml:space="preserve">
<path d="M100.1,11.7v4.4H36.2v-4.4H100.1z M65.2,34.3h34.9V30H65.2V34.3z M0,52.6h100.1v-4.4H0V52.6z M47.5,70.8h52.6v-4.4H47.5
	V70.8z M76.2,19.6l0-1.4h-6.4V28h1.6v-4.2h4.2v-1.4h-4.2v-2.8H76.2z M94.3,23.6l2.3,4.4h-1.8l-2.1-4.2l-2.1,0V28H89v-9.8h4.3
	c1.5,0,2.8,1.2,2.8,2.8C96.1,22.2,95.4,23.2,94.3,23.6z M94.5,21c0-0.8-0.6-1.4-1.4-1.4l-2.5,0v2.8h2.5C93.9,22.4,94.5,21.8,94.5,21
	z M80,25.4l0-7.1h-1.6v7.1c0,1.5,1.3,2.8,2.8,2.8h2c1.5,0,2.8-1.3,2.8-2.8v-7.1h-1.6v7.1c0,0.8-0.6,1.4-1.4,1.4h-1.6
	C80.7,26.8,80,26.2,80,25.4z M81.8,17.2h-1.1v2.3h1.1V17.2z M83.7,17.2h-1.1v2.3h1.1V17.2z M62,5.4h4.4v4.4H68V0h-1.6v4H62V0h-1.6
	v9.8H62V5.4z M88.2,8.4h-4.8l0-8.4h-1.6v9.8h6.4V8.4z M96.5,8.4h-5.1l0-2.9h4.5V4.1h-4.5V1.4h5.1l0-1.4h-6.7v9.8h6.7V8.4z M45.1,8.5
	h-1.5c-0.8,0-1.4-0.6-1.4-1.4h-1.6c0,1.5,1.3,2.8,2.8,2.8h1.9c1.6,0,2.9-1.3,2.9-2.9c0-1.5-1.1-2.7-2.6-2.9l-2.2-0.2
	c-0.6-0.1-1.1-0.6-1.1-1.3c0-0.7,0.6-1.3,1.3-1.3H45c0.8,0,1.4,0.6,1.4,1.4H48c0-1.5-1.3-2.8-2.8-2.8h-1.8c-1.5,0-2.7,1.2-2.7,2.7
	c0,1.4,1,2.5,2.4,2.7l2.2,0.2c0.8,0.1,1.3,0.7,1.3,1.5C46.6,7.8,46,8.5,45.1,8.5z M73.9,9.9h2c1.5,0,2.8-1.3,2.8-2.8V0h-1.6v7.1
	c0,0.8-0.6,1.4-1.4,1.4h-1.6c-0.8,0-1.4-0.6-1.4-1.4l0-7.1h-1.6v7.1C71.1,8.6,72.4,9.9,73.9,9.9z M53.2,9.9h2c1.5,0,2.8-1.3,2.8-2.8
	V7h-1.6v0.1c0,0.8-0.6,1.4-1.4,1.4h-1.6c-0.8,0-1.4-0.6-1.4-1.4V2.7c0-0.8,0.6-1.4,1.4-1.4h1.5c0.8,0,1.4,0.6,1.4,1.4h1.6
	c0-1.5-1.3-2.8-2.8-2.8h-1.9c-1.5,0-2.8,1.3-2.8,2.8v4.4C50.4,8.6,51.7,9.9,53.2,9.9z M63.4,62.5l-0.7,2H61l3.4-9.8h1.8l3.4,9.8
	h-1.7l-0.7-2H63.4z M63.7,61.1h3.2l-1.6-4.6h0L63.7,61.1z M58.5,59.3c0.8,0.5,1.4,1.4,1.4,2.4c0,1.5-1.2,2.8-2.7,2.8h-4.7v-9.8h4.4
	c1.4,0,2.6,1.2,2.6,2.6C59.5,58.1,59.1,58.8,58.5,59.3z M54.1,58.7l2.6,0c0.7,0,1.3-0.6,1.3-1.3c0-0.7-0.6-1.3-1.3-1.3h-2.6V58.7z
	 M58.3,61.6c0-0.8-0.7-1.5-1.5-1.5h-2.7v3h2.7C57.7,63.1,58.3,62.4,58.3,61.6z M75.3,63.2h-1.5c-0.8,0-1.4-0.6-1.4-1.4h-1.6
	c0,1.5,1.3,2.8,2.8,2.8h1.9c1.6,0,2.9-1.3,2.9-2.9c0-1.5-1.1-2.7-2.6-2.9l-2.2-0.2c-0.6-0.1-1.1-0.6-1.1-1.3c0-0.7,0.6-1.3,1.3-1.3
	h1.3c0.8,0,1.4,0.6,1.4,1.4h1.6c0-1.5-1.3-2.8-2.8-2.8h-1.8c-1.5,0-2.7,1.2-2.7,2.7c0,1.4,1,2.5,2.4,2.7l2.2,0.2
	c0.8,0.1,1.3,0.7,1.3,1.5C76.8,62.5,76.1,63.2,75.3,63.2z M87.6,56.1l0-1.4h-6.7l0,9.8h6.7v-1.4h-5.1l0-2.9H87v-1.4h-4.5v-2.7H87.6z
	 M92,63.1l0-8.4h-1.6l0,9.8h6.4v-1.4H92z M35.5,46.3h1.6l0-8.4h2.8v-1.4h-7.2v1.4h2.8V46.3z M61.8,46.3v-8.4h2.8v-1.4h-7.2v1.4h2.8
	v8.4H61.8z M6.6,46.3h2.3c0.6,0,1.1-0.4,1.3-0.9v0.9h1.5l0-5.4H8.6v1.3h1.6v1.2c0,0.8-0.6,1.4-1.4,1.4h-2c-0.8,0-1.4-0.6-1.4-1.4
	v-4.3c0-0.8,0.6-1.4,1.4-1.4h1.8c0.8,0,1.4,0.6,1.4,1.4h1.6c0-1.5-1.3-2.8-2.8-2.8H6.6c-1.5,0-2.8,1.3-2.8,2.8v4.3
	C3.8,45,5.1,46.3,6.6,46.3z M91,37.8h1.8c0.8,0,1.4,0.6,1.4,1.4h1.6c0-1.5-1.3-2.8-2.8-2.8h-2.2c-1.5,0-2.8,1.3-2.8,2.8v4.3
	c0,1.5,1.3,2.8,2.8,2.8h2.3c0.6,0,1.1-0.4,1.3-0.9v0.9h1.5v-5.4h-3.1v1.3h1.6v1.2c0,0.8-0.6,1.4-1.4,1.4h-2c-0.8,0-1.4-0.6-1.4-1.4
	v-4.3C89.6,38.4,90.3,37.8,91,37.8z M77.2,36.4v9.8h1.6l-0.1-8l4.4,8h2.1v-9.8h-1.6l0.1,8l-4.4-8H77.2z M21.5,44.8h-5.1l0-2.9h4.5
	l0-1.4h-4.5l0-2.7h5.1l0-1.4h-6.7l0,9.8h6.7V44.8z M28.4,44.9h-1.5c-0.8,0-1.4-0.6-1.4-1.4h-1.6c0,1.5,1.3,2.8,2.8,2.8h1.9
	c1.6,0,2.9-1.3,2.9-2.9c0-1.5-1.1-2.7-2.6-2.9l-2.2-0.2c-0.6-0.1-1.1-0.6-1.1-1.3c0-0.7,0.6-1.3,1.3-1.3h1.3c0.8,0,1.4,0.6,1.4,1.4
	l1.6,0c0-1.5-1.3-2.8-2.8-2.8h-1.8c-1.5,0-2.7,1.2-2.7,2.7c0,1.4,1,2.5,2.4,2.7l2.2,0.2c0.8,0.1,1.3,0.7,1.3,1.5
	C29.9,44.3,29.2,44.9,28.4,44.9z M52.6,36.4H51l0,9.8h6.4v-1.4h-4.8L52.6,36.4z M42.6,44.2l-0.7,2h-1.7l3.4-9.8h1.8l3.4,9.8h-1.7
	l-0.7-2H42.6z M42.9,42.9h3.2l-1.6-4.6h0L42.9,42.9z M71.3,46.3c1.5,0,2.8-1.3,2.8-2.8v-7.1h-1.6v7.1c0,0.8-0.6,1.4-1.4,1.4h-1.6
	c-0.8,0-1.4-0.6-1.4-1.4l0-7.1h-1.6v7.1c0,1.5,1.3,2.8,2.8,2.8H71.3z"/>
</svg>
